<?xml version="1.0" standalone="no"?>
<!DOCTYPE svg PUBLIC "-//W3C//DTD SVG 1.1//EN" "http://www.w3.org/Graphics/SVG/1.1/DTD/svg11.dtd" >
<svg>
<metadata>
Created by FontForge 20090622 at Fri Sep  2 12:34:12 2016
 By deploy user
Copyright &#194;&#169; 2012 Linotype GmbH, www.linotype.com. All rights reserved. This font software may not be reproduced, modified, disclosed or transferred without the express written approval of Linotype GmbH. Avenir is a trademark of Linotype GmbH registered in the U.S. Patent and Trademark Office and may be registered in certain other jurisdictions. This typeface is original artwork of Adrian Frutiger and Akira Kobayashi. The design may be protected in certain jurisdictions.
</metadata>
<defs>
<font id="AvenirNextCyr-Light" horiz-adv-x="240" >
  <font-face 
    font-family="Avenir Next Cyr Light"
    font-weight="300"
    font-stretch="normal"
    units-per-em="1000"
    panose-1="2 11 4 3 2 2 2 2 2 4"
    ascent="756"
    descent="-244"
    x-height="466"
    cap-height="708"
    bbox="-202 -250 1042 945"
    underline-thickness="50"
    underline-position="125"
    unicode-range="U+000D-U+FB04"
  />
<missing-glyph horiz-adv-x="512" 
d="M278 117h-56v67h56v-67zM271 234h-46l-2 17q0 54 11.5 79.5t47.5 60.5q31 31 40.5 47t9.5 36q0 36 -22.5 60.5t-53.5 24.5q-71 0 -82 -95l-50 8q7 69 43 103t92 34q54 0 89 -36t35 -95q0 -33 -13 -60t-50 -60t-43 -50t-6 -74zM50 50h412v617h-412v-617zM0 718h512v-718
h-512v718z" />
    <glyph glyph-name="napostrophe" unicode="&#x22;n" horiz-adv-x="578" 
d="M90 466h52q4 -52 4 -93h2q20 47 67 76t100 29q87 0 130.5 -53t43.5 -141v-284h-54v264q0 168 -132 168q-65 0 -109.5 -51t-44.5 -144v-237h-55v359q0 66 -4 107zM113 742l-70 -185h-45l58 185h57z" />
    <glyph glyph-name="f_f" unicode="ff" horiz-adv-x="559" 
d="M550 466v-46h-115v-420h-54v420h-213v-420h-55v420h-97v46h97v139q0 80 39 121.5t108 41.5q32 0 53 -7l-9 -47q-24 7 -45 7q-91 0 -91 -122v-133h213v139q0 80 39 121.5t108 41.5q31 0 53 -7l-10 -47q-23 7 -45 7q-91 0 -91 -122v-133h115z" />
    <glyph glyph-name="fi" unicode="fi" horiz-adv-x="529" 
d="M434 466v-466h-54v466h54zM448 651q0 -17 -12 -29t-28 -12t-28.5 12t-12.5 29t12.5 29t28.5 12t28 -12t12 -29zM282 466v-46h-114v-420h-55v420h-97v46h97v139q0 80 39 121.5t108 41.5q32 0 53 -7l-9 -47q-24 7 -45 7q-91 0 -91 -122v-133h114z" />
    <glyph glyph-name="fl" unicode="fl" horiz-adv-x="529" 
d="M434 756v-756h-54v756h54zM282 466v-46h-114v-420h-55v420h-97v46h97v139q0 80 39 121.5t108 41.5q32 0 53 -7l-9 -47q-24 7 -45 7q-91 0 -91 -122v-133h114z" />
    <glyph glyph-name="f_f_i" unicode="ffi" horiz-adv-x="797" 
d="M550 466v-46h-115v-420h-54v420h-213v-420h-55v420h-97v46h97v139q0 80 39 121.5t108 41.5q32 0 53 -7l-9 -47q-24 7 -45 7q-91 0 -91 -122v-133h213v139q0 80 39 121.5t108 41.5q31 0 53 -7l-10 -47q-23 7 -45 7q-91 0 -91 -122v-133h115zM702 466v-466h-54v466h54z
M716 651q0 -17 -12.5 -29t-28.5 -12t-28 12t-12 29t12 29t28 12t28.5 -12t12.5 -29z" />
    <glyph glyph-name="f_f_l" unicode="ffl" horiz-adv-x="797" 
d="M702 756v-756h-54v756h54zM550 466v-46h-115v-420h-54v420h-213v-420h-55v420h-97v46h97v139q0 80 39 121.5t108 41.5q32 0 53 -7l-9 -47q-24 7 -45 7q-91 0 -91 -122v-133h213v139q0 80 39 121.5t108 41.5q31 0 53 -7l-10 -47q-23 7 -45 7q-91 0 -91 -122v-133h115z" />
    <glyph glyph-name=".notdef" horiz-adv-x="512" 
d="M278 117h-56v67h56v-67zM271 234h-46l-2 17q0 54 11.5 79.5t47.5 60.5q31 31 40.5 47t9.5 36q0 36 -22.5 60.5t-53.5 24.5q-71 0 -82 -95l-50 8q7 69 43 103t92 34q54 0 89 -36t35 -95q0 -33 -13 -60t-50 -60t-43 -50t-6 -74zM50 50h412v617h-412v-617zM0 718h512v-718
h-512v718z" />
    <glyph glyph-name=".null" horiz-adv-x="500" 
 />
    <glyph glyph-name=".null" horiz-adv-x="500" 
 />
    <glyph glyph-name="nonmarkingreturn" horiz-adv-x="333" 
 />
    <glyph glyph-name="CR" unicode="&#xd;" horiz-adv-x="0" 
 />
    <glyph glyph-name="space" unicode=" " horiz-adv-x="250" 
 />
    <glyph glyph-name="exclam" unicode="!" horiz-adv-x="312" 
d="M185 708v-515h-57v515h57zM201 39q0 -18 -13 -31.5t-32 -13.5t-32 13.5t-13 31.5q0 19 13 32.5t32 13.5t32 -13.5t13 -32.5z" />
    <glyph glyph-name="quotedbl" unicode="&#x22;" horiz-adv-x="405" 
d="M106 475v233h48v-233h-48zM250 475v233h49v-233h-49z" />
    <glyph glyph-name="numbersign" unicode="#" horiz-adv-x="554" 
d="M108 0l30 222h-105v47h111l24 172h-109v47h116l29 220h48l-29 -220h144l30 220h48l-29 -220h96v-47h-103l-23 -172h100v-47h-107l-30 -222h-48l30 222h-145l-30 -222h-48zM216 441l-23 -172h144l23 172h-144z" />
    <glyph glyph-name="dollar" unicode="$" horiz-adv-x="574" 
d="M261 396v279q-58 -3 -97.5 -40.5t-39.5 -97.5q0 -102 137 -141zM301 328v-294q60 3 103 39.5t43 106.5q0 101 -146 148zM261 34v304q-42 13 -72 27t-59.5 36t-45 55.5t-15.5 76.5q0 82 54.5 132t137.5 55v72h40v-72q117 -2 183 -80l-36 -34q-58 69 -147 69v-293
q37 -13 62 -23.5t54 -28t46.5 -38t29 -50t11.5 -66.5q0 -83 -57.5 -134.5t-145.5 -53.5v-72h-40v72q-125 3 -203 102l40 31q33 -43 77 -64.5t86 -22.5z" />
    <glyph glyph-name="percent" unicode="%" horiz-adv-x="829" 
d="M383 548q0 -71 -49.5 -120.5t-120.5 -49.5q-72 0 -121.5 49.5t-49.5 120.5q0 72 49.5 121.5t121.5 49.5q71 0 120.5 -49.5t49.5 -121.5zM334 548q0 52 -35.5 87.5t-85.5 35.5q-51 0 -86.5 -35.5t-35.5 -87.5t35.5 -87t86.5 -35q50 0 85.5 35t35.5 87zM787 159
q0 -71 -50 -120.5t-121 -49.5t-120.5 49.5t-49.5 120.5t49.5 120.5t120.5 49.5t121 -49.5t50 -120.5zM738 159q0 52 -35.5 87.5t-86.5 35.5q-50 0 -85.5 -35.5t-35.5 -87.5t35.5 -87t85.5 -35q51 0 86.5 35t35.5 87zM657 716l-447 -746l-41 22l448 746z" />
    <glyph glyph-name="ampersand" unicode="&#x26;" horiz-adv-x="704" 
d="M652 379l-128 -221l151 -158h-78l-105 111q-86 -125 -221 -125q-92 0 -152.5 52.5t-60.5 144.5q0 74 43 124t122 87q-88 93 -88 169q0 75 48.5 119t121.5 44q70 0 117 -42t47 -111q0 -64 -43 -107t-121 -83l180 -188l103 184h64zM413 571q0 47 -31 77.5t-77 30.5
q-49 0 -81.5 -32t-32.5 -84q0 -67 81 -146q67 33 104 67.5t37 86.5zM454 148l-198 209q-141 -66 -141 -175q0 -65 46 -106.5t113 -41.5q108 0 180 114z" />
    <glyph glyph-name="quotesingle" unicode="'" horiz-adv-x="260" 
d="M106 475v233h48v-233h-48z" />
    <glyph glyph-name="parenleft" unicode="(" horiz-adv-x="300" 
d="M97 288q0 -111 35.5 -221.5t95.5 -198.5l-43 -26q-140 204 -140 446q0 123 38 241t102 205l43 -26q-59 -83 -95 -195.5t-36 -224.5z" />
    <glyph glyph-name="parenright" unicode=")" horiz-adv-x="300" 
d="M202 288q0 112 -36 224.5t-95 195.5l43 26q64 -87 102.5 -205t38.5 -241t-38.5 -241t-102.5 -205l-43 26q59 83 95 195.5t36 224.5z" />
    <glyph glyph-name="asterisk" unicode="*" horiz-adv-x="444" 
d="M246 708v-151l147 47l16 -45l-148 -46l94 -127l-38 -29l-95 130l-95 -130l-38 29l94 127l-148 46l16 45l147 -47v151h48z" />
    <glyph glyph-name="plus" unicode="+" horiz-adv-x="666" 
d="M358 554v-227h223v-47h-223v-227h-49v227h-224v47h224v227h49z" />
    <glyph glyph-name="comma" unicode="," horiz-adv-x="254" 
d="M174 94l-76 -233h-45l64 233h57z" />
    <glyph glyph-name="hyphen" unicode="-" horiz-adv-x="314" 
d="M262 269v-46h-210v46h210z" />
    <glyph glyph-name="period" unicode="." horiz-adv-x="254" 
d="M172 40q0 -19 -13 -32.5t-32 -13.5t-32 13.5t-13 32.5q0 18 13 31.5t32 13.5t32 -13.5t13 -31.5z" />
    <glyph glyph-name="slash" unicode="/" horiz-adv-x="370" 
d="M360 711l-303 -728l-47 15l305 729z" />
    <glyph glyph-name="zero" unicode="0" horiz-adv-x="574" 
d="M287 724q52 0 92 -22t65 -57t41.5 -84.5t23 -100t6.5 -107.5q0 -71 -11 -133t-35.5 -117t-71 -87t-110.5 -32t-110.5 32t-71 87t-35.5 116.5t-11 133.5t11 134t35.5 117.5t71 87.5t110.5 32zM287 675q-50 0 -86 -31t-53.5 -82t-24.5 -102t-7 -107t7 -106t24.5 -101.5
t53.5 -82t86 -30.5t85.5 30.5t53 81.5t25 102t7.5 106q0 56 -7.5 107t-25 102t-53 82t-85.5 31z" />
    <glyph glyph-name="one" unicode="1" horiz-adv-x="574" 
d="M344 708v-708h-57v638l-130 -111l-34 40l170 141h51z" />
    <glyph glyph-name="two" unicode="2" horiz-adv-x="574" 
d="M491 51v-51h-436v60l277 292q96 101 96 181q0 64 -42 103.5t-104 39.5q-56 0 -97 -34t-55 -91l-56 12q17 72 73.5 116.5t134.5 44.5q87 0 145.5 -50.5t58.5 -137.5q0 -62 -30 -111.5t-92 -114.5l-248 -259h375z" />
    <glyph glyph-name="three" unicode="3" horiz-adv-x="574" 
d="M215 347v49h29q73 0 120.5 34.5t47.5 105.5q0 62 -41.5 101t-102.5 39q-86 0 -139 -80l-43 28q63 100 184 100q84 0 141 -49.5t57 -135.5q0 -62 -35 -107t-95 -58v-2q70 -14 111 -62t41 -117q0 -93 -61.5 -151t-158.5 -58q-148 0 -213 132l47 24q52 -107 166 -107
q70 0 116.5 44t46.5 116q0 78 -56 116t-133 38h-29z" />
    <glyph glyph-name="four" unicode="4" horiz-adv-x="574" 
d="M424 708v-483h108v-50h-108v-175h-56v175h-326v57l306 476h76zM368 225v419h-2l-265 -419h267z" />
    <glyph glyph-name="five" unicode="5" horiz-adv-x="574" 
d="M466 708v-51h-296l-6 -236q43 19 105 19q100 0 163 -62t63 -160q0 -104 -65 -169t-164 -65q-138 0 -202 116l47 27q54 -94 152 -94q73 0 123.5 50t50.5 130q0 81 -51 130.5t-133 49.5q-72 0 -143 -38l7 353h349z" />
    <glyph glyph-name="six" unicode="6" horiz-adv-x="574" 
d="M383 708l-203 -324l2 -2q41 39 117 39q91 0 151.5 -61t60.5 -156q0 -97 -63 -158.5t-161 -61.5t-160.5 61.5t-62.5 158.5q0 87 62 190l191 314h66zM120 204q0 -74 47 -123t120 -49t120 49t47 123t-46 122.5t-119 48.5q-74 0 -121.5 -49t-47.5 -122z" />
    <glyph glyph-name="seven" unicode="7" horiz-adv-x="574" 
d="M486 708v-54l-288 -654h-64l295 657h-352v51h409z" />
    <glyph glyph-name="eight" unicode="8" horiz-adv-x="574" 
d="M370 376q64 -19 101.5 -70t37.5 -119q0 -91 -64.5 -147t-157.5 -56t-157.5 56t-64.5 147q0 68 37.5 119.5t101.5 69.5v2q-51 18 -81.5 63t-30.5 99q0 82 56.5 133t138.5 51t138.5 -51t56.5 -133q0 -54 -30.5 -99t-81.5 -63v-2zM148 537q0 -58 40 -97t99 -39t99 39t40 97
q0 60 -39.5 99.5t-99.5 39.5t-99.5 -39.5t-39.5 -99.5zM122 192q0 -69 46 -114.5t119 -45.5t119 45.5t46 114.5t-46.5 114t-118.5 45t-118.5 -45t-46.5 -114z" />
    <glyph glyph-name="nine" unicode="9" horiz-adv-x="574" 
d="M192 0l204 326l-2 2q-41 -39 -118 -39q-91 0 -151.5 60.5t-60.5 155.5q0 96 63.5 157.5t161.5 61.5t160 -61t62 -158q0 -89 -61 -189l-192 -316h-66zM455 505q0 74 -47 122.5t-120 48.5t-120 -48.5t-47 -122.5t46 -122t120 -48t121 48.5t47 121.5z" />
    <glyph glyph-name="colon" unicode=":" horiz-adv-x="294" 
d="M192 424q0 -18 -13 -31.5t-32 -13.5t-32 13.5t-13 31.5t13 32t32 14t32 -14t13 -32zM192 40q0 -19 -13 -32.5t-32 -13.5t-32 13.5t-13 32.5q0 18 13 31.5t32 13.5t32 -13.5t13 -31.5z" />
    <glyph glyph-name="semicolon" unicode=";" horiz-adv-x="294" 
d="M192 424q0 -18 -13 -31.5t-32 -13.5t-32 13.5t-13 31.5t13 32t32 14t32 -14t13 -32zM188 94l-76 -233h-47l64 233h59z" />
    <glyph glyph-name="less" unicode="&#x3c;" horiz-adv-x="666" 
d="M581 557v-49l-436 -205l436 -205v-49l-496 234v40z" />
    <glyph glyph-name="equal" unicode="=" horiz-adv-x="666" 
d="M85 405h496v-47h-496v47zM85 249h496v-48h-496v48z" />
    <glyph glyph-name="greater" unicode="&#x3e;" horiz-adv-x="666" 
d="M85 508v49l496 -234v-40l-496 -234v49l436 205z" />
    <glyph glyph-name="question" unicode="?" horiz-adv-x="479" 
d="M267 240v-46h-56v58q0 47 19.5 81t57.5 67l30 26q30 26 45.5 53t15.5 66q0 59 -38.5 93t-96.5 34q-57 0 -94.5 -34.5t-46.5 -90.5l-54 10q15 77 68 121t129 44q82 0 136 -46.5t54 -127.5q0 -58 -22 -92t-69 -72q-47 -39 -62.5 -66t-15.5 -78zM289 39q0 -18 -12.5 -31.5
t-31.5 -13.5q-20 0 -32.5 13.5t-12.5 31.5q0 19 12.5 32.5t32.5 13.5q19 0 31.5 -13.5t12.5 -32.5z" />
    <glyph glyph-name="at" unicode="@" horiz-adv-x="800" 
d="M418 502q-62 0 -100.5 -60t-38.5 -131q0 -41 20.5 -72.5t64.5 -31.5q45 0 78.5 35t47 77.5t13.5 80.5q0 44 -20 73t-65 29zM697 143l30 -36q-117 -126 -309 -126q-169 0 -274 105.5t-105 267.5q0 158 110 265.5t268 107.5q147 0 249 -86t102 -233q0 -114 -55 -181
t-140 -67q-42 0 -63.5 21.5t-21.5 56.5h-3q-15 -29 -49 -53.5t-79 -24.5q-63 0 -99.5 43.5t-36.5 110.5q0 91 56 163.5t143 72.5q39 0 67 -19t37 -50h4l13 53h50l-49 -201q-10 -45 -10 -74q0 -52 53 -52q59 0 94 56.5t35 139.5q0 127 -83 200.5t-215 73.5q-140 0 -229 -94
t-89 -232q0 -143 90 -232.5t235 -89.5q163 0 274 114z" />
    <glyph glyph-name="A" unicode="A" horiz-adv-x="690" 
d="M155 191l-80 -191h-63l307 708h57l301 -708h-63l-80 191h-379zM346 648l-170 -405h337z" />
    <glyph glyph-name="B" unicode="B" horiz-adv-x="629" 
d="M98 0v708h205q44 0 81.5 -8.5t71.5 -27.5t53.5 -55t19.5 -86q0 -60 -36.5 -101.5t-94.5 -54.5v-2q69 -7 117 -54t48 -125q0 -93 -70.5 -143.5t-182.5 -50.5h-212zM155 659v-265h152q67 0 115.5 32.5t48.5 100.5t-50 100t-129 32h-137zM155 346v-297h149q89 0 145 36
t56 111t-52 112.5t-137 37.5h-161z" />
    <glyph glyph-name="C" unicode="C" horiz-adv-x="721" 
d="M645 136l39 -31q-95 -124 -258 -124q-159 0 -262 105.5t-103 267.5t104 267.5t262 105.5q78 0 142 -27t102 -76l-41 -38q-32 40 -85.5 65t-116.5 25q-138 0 -222.5 -93.5t-84.5 -228.5t84.5 -228.5t222.5 -93.5q133 0 217 104z" />
    <glyph glyph-name="D" unicode="D" horiz-adv-x="761" 
d="M98 0v708h224q73 0 139.5 -22t120.5 -64.5t86 -112t32 -155.5t-32 -155.5t-86 -112t-120.5 -64.5t-139.5 -22h-224zM155 657v-606h152q155 0 244 85t89 218t-89 218t-244 85h-152z" />
    <glyph glyph-name="E" unicode="E" horiz-adv-x="591" 
d="M154 343v-292h388v-51h-444v708h431v-51h-375v-264h351v-50h-351z" />
    <glyph glyph-name="F" unicode="F" horiz-adv-x="561" 
d="M155 342v-342h-57v708h420v-51h-363v-265h337v-50h-337z" />
    <glyph glyph-name="G" unicode="G" horiz-adv-x="784" 
d="M677 635l-36 -39q-80 80 -211 80q-139 0 -224 -93t-85 -228t85 -229t226 -94q122 0 203 48v234h-170v50h227v-316q-112 -67 -261 -67q-162 0 -266 106t-104 268q0 161 104.5 266.5t264.5 105.5q153 0 247 -92z" />
    <glyph glyph-name="H" unicode="H" horiz-adv-x="722" 
d="M98 0v708h57v-314h413v314h57v-708h-57v341h-413v-341h-57z" />
    <glyph glyph-name="I" unicode="I" horiz-adv-x="252" 
d="M155 708v-708h-57v708h57z" />
    <glyph glyph-name="J" unicode="J" horiz-adv-x="488" 
d="M26 116l53 15q12 -44 45 -71.5t80 -27.5q135 0 135 173v503h57v-507q0 -42 -9 -78.5t-29.5 -69.5t-58 -52t-89.5 -19q-71 0 -120 37.5t-64 96.5z" />
    <glyph glyph-name="K" unicode="K" horiz-adv-x="609" 
d="M155 708v-320l343 320h82l-358 -322l377 -386h-83l-361 378v-378h-57v708h57z" />
    <glyph glyph-name="L" unicode="L" horiz-adv-x="506" 
d="M155 708v-657h336v-51h-393v708h57z" />
    <glyph glyph-name="M" unicode="M" horiz-adv-x="892" 
d="M98 0v708h88l261 -613l259 613h88v-708h-57v635h-2l-273 -635h-32l-273 635h-2v-635h-57z" />
    <glyph glyph-name="N" unicode="N" horiz-adv-x="768" 
d="M170 708l441 -626h2v626h57v-708h-72l-441 630h-2v-630h-57v708h72z" />
    <glyph glyph-name="O" unicode="O" horiz-adv-x="857" 
d="M796 354q0 -162 -104.5 -267.5t-263.5 -105.5q-158 0 -262.5 105.5t-104.5 267.5t104.5 267.5t262.5 105.5q159 0 263.5 -105.5t104.5 -267.5zM736 354q0 135 -85.5 228.5t-222.5 93.5t-222 -93.5t-85 -228.5t85 -228.5t222 -93.5q138 0 223 93.5t85 228.5z" />
    <glyph glyph-name="P" unicode="P" horiz-adv-x="578" 
d="M98 0v708h197q105 0 169 -46t64 -139q0 -91 -63 -139.5t-167 -48.5h-143v-335h-57zM155 659v-276h140q81 0 128.5 35.5t47.5 104.5t-48 102.5t-129 33.5h-139z" />
    <glyph glyph-name="Q" unicode="Q" horiz-adv-x="855" 
d="M121 362q0 -130 83 -221t217 -91q133 0 216.5 92.5t83.5 219.5q0 131 -83.5 222.5t-216.5 91.5q-134 0 -217 -91t-83 -223zM825 51v-51h-405q-154 0 -256.5 102t-102.5 260t102.5 261.5t257.5 103.5q154 0 256.5 -104t102.5 -261q0 -102 -51.5 -186t-139.5 -123v-2h236z
" />
    <glyph glyph-name="R" unicode="R" horiz-adv-x="598" 
d="M155 339v-339h-57v708h204q236 0 236 -185q0 -80 -54 -127t-134 -53l209 -343h-69l-202 339h-133zM155 659v-271h139q90 0 138.5 34.5t48.5 100.5q0 136 -188 136h-138z" />
    <glyph glyph-name="S" unicode="S" horiz-adv-x="566" 
d="M491 643l-41 -37q-59 72 -156 72q-64 0 -114 -37.5t-50 -105.5q0 -42 20.5 -71t53.5 -45t72.5 -29t79 -28t72.5 -35.5t53.5 -57.5t20.5 -88q0 -96 -67 -148t-159 -52q-136 0 -214 102l40 35q74 -87 174 -87q67 0 117.5 39.5t50.5 107.5q0 42 -20.5 71.5t-53 46.5
t-72.5 30.5t-79.5 28.5t-72 35.5t-53 57t-20.5 87.5q0 92 67 142t157 50q130 0 194 -84z" />
    <glyph glyph-name="T" unicode="T" horiz-adv-x="561" 
d="M309 657v-657h-57v657h-238v51h533v-51h-238z" />
    <glyph glyph-name="U" unicode="U" horiz-adv-x="717" 
d="M358 -19q-74 0 -128.5 25.5t-83 68.5t-41.5 90t-13 100v443h57v-436q0 -36 5.5 -68.5t20.5 -64.5t38 -55t60 -37.5t85 -14.5q59 0 101.5 21t65.5 56.5t33 76t10 86.5v436h57v-443q0 -53 -13 -100t-41.5 -90t-83 -68.5t-129.5 -25.5z" />
    <glyph glyph-name="V" unicode="V" horiz-adv-x="618" 
d="M69 708l239 -637h2l239 637h61l-270 -708h-64l-269 708h62z" />
    <glyph glyph-name="W" unicode="W" horiz-adv-x="967" 
d="M78 708l184 -633h2l184 633h71l185 -633h3l182 633h60l-210 -708h-69l-186 632h-2l-185 -632h-69l-210 708h60z" />
    <glyph glyph-name="X" unicode="X" horiz-adv-x="631" 
d="M95 0h-71l257 372l-234 336h71l198 -292l196 292h67l-231 -335l259 -373h-71l-221 327z" />
    <glyph glyph-name="Y" unicode="Y" horiz-adv-x="583" 
d="M320 306v-306h-57v306l-259 402h71l218 -353l219 353h66z" />
    <glyph glyph-name="Z" unicode="Z" horiz-adv-x="579" 
d="M536 708v-51l-428 -606h436v-51h-506v50l429 607h-418v51h487z" />
    <glyph glyph-name="bracketleft" unicode="[" horiz-adv-x="300" 
d="M220 732v-44h-103v-800h103v-44h-155v888h155z" />
    <glyph glyph-name="backslash" unicode="\" horiz-adv-x="370" 
d="M314 -17l-304 728l46 16l304 -729z" />
    <glyph glyph-name="bracketright" unicode="]" horiz-adv-x="300" 
d="M80 -156v44h103v800h-103v44h155v-888h-155z" />
    <glyph glyph-name="asciicircum" unicode="^" horiz-adv-x="666" 
d="M85 265l228 443h40l228 -443h-50l-198 389l-198 -389h-50z" />
    <glyph glyph-name="underscore" unicode="_" horiz-adv-x="500" 
d="M0 -122v41h500v-41h-500z" />
    <glyph glyph-name="grave" unicode="`" 
d="M125 564l-126 144h72l101 -144h-47z" />
    <glyph glyph-name="a" unicode="a" horiz-adv-x="527" 
d="M218 -13q-62 0 -111 35t-49 104q0 48 23.5 80.5t67 48t88.5 21.5t104 6h47v21q0 130 -132 130q-82 0 -139 -55l-30 36q66 64 174 64q81 0 130 -43t49 -126v-204q0 -63 8 -105h-49q-8 48 -8 86h-2q-55 -99 -171 -99zM231 32q76 0 116.5 49.5t40.5 119.5v38h-35
q-239 0 -239 -110q0 -50 34.5 -73.5t82.5 -23.5z" />
    <glyph glyph-name="b" unicode="b" horiz-adv-x="634" 
d="M152 92h-3v-92h-54v756h54v-385h3q29 51 79.5 79t106.5 28q106 0 172 -69.5t66 -175.5t-66.5 -176t-171.5 -70q-56 0 -107 27.5t-79 77.5zM519 233q0 85 -50.5 142.5t-135.5 57.5q-82 0 -136 -57.5t-54 -142.5t54 -142t136 -57q85 0 135.5 57t50.5 142z" />
    <glyph glyph-name="c" unicode="c" horiz-adv-x="494" 
d="M466 405l-36 -33q-21 27 -56 43t-73 16q-83 0 -134.5 -56.5t-51.5 -141.5t51 -141t133 -56t136 56l34 -31q-64 -74 -170 -74q-108 0 -174 69t-66 177q0 107 67.5 176t173.5 69q108 0 166 -73z" />
    <glyph glyph-name="d" unicode="d" horiz-adv-x="634" 
d="M482 92q-29 -50 -79.5 -77.5t-106.5 -27.5q-105 0 -171.5 70t-66.5 176q0 105 66.5 175t171.5 70q56 0 106.5 -28t79.5 -79h2v385h55v-756h-55v92h-2zM115 233q0 -85 50.5 -142t135.5 -57q82 0 135.5 57t53.5 142t-53.5 142.5t-135.5 57.5q-85 0 -135.5 -57.5
t-50.5 -142.5z" />
    <glyph glyph-name="e" unicode="e" horiz-adv-x="567" 
d="M115 265h340q-3 75 -47.5 121.5t-119.5 46.5q-74 0 -122 -52.5t-51 -115.5zM294 -13q-102 0 -169 70t-67 177q0 105 66.5 174.5t164.5 69.5q105 0 162.5 -65.5t57.5 -162.5v-28h-395q2 -77 52 -132.5t130 -55.5q93 0 160 79l36 -29q-75 -97 -198 -97z" />
    <glyph glyph-name="f" unicode="f" horiz-adv-x="291" 
d="M282 466v-46h-114v-420h-55v420h-97v46h97v139q0 80 39 121.5t108 41.5q32 0 53 -7l-9 -45q-18 5 -45 5q-91 0 -91 -122v-133h114z" />
    <glyph glyph-name="g" unicode="g" horiz-adv-x="630" 
d="M74 -151l35 37q76 -81 186 -81q99 0 144 57.5t45 148.5v91h-2q-26 -50 -77.5 -78t-108.5 -28q-106 0 -172 67.5t-66 171.5q0 103 66.5 173t171.5 70q57 0 107.5 -28t78.5 -79h2v95h55v-455q0 -48 -11.5 -89.5t-37.5 -80.5t-76.5 -61.5t-120.5 -22.5q-133 0 -219 92z
M115 237q0 -82 50.5 -138.5t135.5 -56.5q82 0 135.5 55.5t53.5 139.5q0 80 -54 138t-135 58q-85 0 -135.5 -57t-50.5 -139z" />
    <glyph glyph-name="h" unicode="h" horiz-adv-x="579" 
d="M149 375h2q23 50 67 76.5t97 26.5q88 0 131.5 -53.5t43.5 -140.5v-284h-54v264q0 168 -133 168q-64 0 -109 -51t-45 -144v-237h-54v756h54v-381z" />
    <glyph glyph-name="i" unicode="i" horiz-adv-x="243" 
d="M149 466v-466h-55v466h55zM162 651q0 -17 -12.5 -29t-28.5 -12t-28 12t-12 29t12 29t28 12t28.5 -12t12.5 -29z" />
    <glyph glyph-name="j" unicode="j" horiz-adv-x="244" 
d="M-24 -234l8 45q20 -5 38 -5q44 0 58.5 27.5t14.5 79.5v553h54v-560q0 -68 -28 -107t-98 -39q-30 0 -47 6zM163 651q0 -17 -12.5 -29t-28.5 -12t-28 12t-12 29t12 29t28 12t28.5 -12t12.5 -29z" />
    <glyph glyph-name="k" unicode="k" horiz-adv-x="491" 
d="M149 756v-502h3l222 212h78l-238 -214l263 -252h-80l-245 245h-3v-245h-54v756h54z" />
    <glyph glyph-name="l" unicode="l" horiz-adv-x="244" 
d="M149 756v-756h-54v756h54z" />
    <glyph glyph-name="m" unicode="m" horiz-adv-x="885" 
d="M94 0v359q0 66 -4 107h52q4 -52 4 -93h2q20 48 63.5 76.5t93.5 28.5q112 0 149 -111h2q23 53 66 82t101 29q86 0 129.5 -53.5t43.5 -140.5v-284h-54v264q0 76 -30.5 122.5t-96.5 46.5q-70 0 -107.5 -54t-37.5 -136v-243h-55v274q0 159 -119 159q-60 0 -103.5 -52
t-43.5 -144v-237h-55z" />
    <glyph glyph-name="n" unicode="n" horiz-adv-x="578" 
d="M90 466h52q4 -52 4 -93h2q20 47 67 76t100 29q87 0 130.5 -53t43.5 -141v-284h-54v264q0 168 -132 168q-65 0 -109.5 -51t-44.5 -144v-237h-55v359q0 66 -4 107z" />
    <glyph glyph-name="o" unicode="o" horiz-adv-x="609" 
d="M550 233q0 -106 -69 -176t-177 -70q-107 0 -176 70t-69 176q0 107 68.5 176t176.5 69t177 -69t69 -176zM494 233q0 85 -52 141.5t-138 56.5q-85 0 -137 -56.5t-52 -141.5t52 -141t137 -56q86 0 138 56t52 141z" />
    <glyph glyph-name="p" unicode="p" horiz-adv-x="632" 
d="M148 90v-330h-54v706h54v-93h3q29 52 78.5 78.5t106.5 26.5q106 0 172.5 -69.5t66.5 -175.5t-65.5 -176t-171.5 -70q-58 0 -109 26.5t-78 76.5h-3zM517 233q0 85 -50.5 142.5t-135.5 57.5q-81 0 -134.5 -57.5t-53.5 -142.5t53.5 -142t134.5 -57q85 0 135.5 57t50.5 142z
" />
    <glyph glyph-name="q" unicode="q" horiz-adv-x="632" 
d="M484 92h-3q-27 -49 -78 -77t-107 -28q-105 0 -171.5 70t-66.5 176t66 175.5t172 69.5q56 0 106.5 -28t78.5 -79h3v95h55v-706h-55v332zM115 233q0 -85 50.5 -142t135.5 -57q81 0 134.5 57t53.5 142t-53.5 142.5t-134.5 57.5q-85 0 -135.5 -57.5t-50.5 -142.5z" />
    <glyph glyph-name="r" unicode="r" horiz-adv-x="347" 
d="M94 359q0 66 -4 107h52q4 -52 4 -93h2q19 49 60.5 77t92.5 28q25 0 37 -4l-6 -50q-14 4 -38 4q-65 0 -105 -51t-40 -138v-239h-55v359z" />
    <glyph glyph-name="s" unicode="s" horiz-adv-x="435" 
d="M379 399l-42 -30q-38 64 -117 64q-42 0 -73.5 -20.5t-31.5 -60.5q0 -38 27 -56.5t90 -32.5q78 -17 117 -48t39 -86q0 -70 -49.5 -105.5t-119.5 -35.5q-118 0 -177 87l43 31q21 -32 56.5 -52t77.5 -20q48 0 81.5 22.5t33.5 68.5q0 35 -28 55t-68 29.5t-79.5 21t-67.5 40.5
t-28 77q0 64 46.5 97t112.5 33q52 0 93.5 -20.5t63.5 -58.5z" />
    <glyph glyph-name="t" unicode="t" horiz-adv-x="313" 
d="M294 466v-46h-133v-295q0 -47 19 -66.5t55 -19.5q29 0 57 13l3 -47q-36 -13 -74 -13q-49 0 -81.5 28.5t-32.5 91.5v308h-98v46h97v133h55v-133h133z" />
    <glyph glyph-name="u" unicode="u" horiz-adv-x="578" 
d="M488 0h-53q-4 50 -4 92h-2q-19 -47 -66 -76t-100 -29q-88 0 -131.5 53.5t-43.5 140.5v285h55v-264q0 -169 132 -169q64 0 109 51.5t45 144.5v237h54v-359q0 -57 5 -107z" />
    <glyph glyph-name="v" unicode="v" horiz-adv-x="472" 
d="M453 466l-185 -466h-62l-188 466h61l158 -409h2l156 409h58z" />
    <glyph glyph-name="w" unicode="w" horiz-adv-x="732" 
d="M28 466h58l117 -398h2l133 398h55l135 -398h2l116 398h57l-144 -466h-61l-132 396h-2l-131 -396h-61z" />
    <glyph glyph-name="x" unicode="x" horiz-adv-x="474" 
d="M20 0l183 242l-169 224h70l133 -186l133 186h66l-167 -222l186 -244h-71l-148 205l-151 -205h-65z" />
    <glyph glyph-name="y" unicode="y" horiz-adv-x="470" 
d="M84 -241q-25 0 -55 7l7 49q21 -8 46 -8q34 0 54.5 21.5t36.5 63.5l40 105l-195 469h61l162 -411l2 2l150 409h59l-232 -596q-22 -55 -53 -83t-83 -28z" />
    <glyph glyph-name="z" unicode="z" horiz-adv-x="441" 
d="M393 466v-41l-286 -378h297v-47h-368v40l287 380h-272v46h342z" />
    <glyph glyph-name="braceleft" unicode="{" horiz-adv-x="300" 
d="M0 264v48q78 0 78 112v183q0 66 30 95.5t78 29.5h58v-44h-48q-65 0 -65 -89v-184q0 -62 -26.5 -92t-55.5 -34v-2q29 -4 55.5 -34t26.5 -92v-184q0 -89 65 -89h48v-44h-58q-48 0 -78 29.5t-30 95.5v183q0 112 -78 112z" />
    <glyph glyph-name="bar" unicode="|" horiz-adv-x="222" 
d="M87 750h48v-1000h-48v1000z" />
    <glyph glyph-name="braceright" unicode="}" horiz-adv-x="300" 
d="M300 312v-48q-78 0 -78 -112v-183q0 -66 -30 -95.5t-78 -29.5h-58v44h48q65 0 65 89v184q0 62 26.5 92t55.5 34v2q-29 4 -55.5 34t-26.5 92v184q0 89 -65 89h-48v44h58q48 0 78 -29.5t30 -95.5v-183q0 -112 78 -112z" />
    <glyph glyph-name="asciitilde" unicode="~" horiz-adv-x="666" 
d="M542 365l34 -33q-58 -92 -134 -92q-55 0 -108 35q-38 25 -60 34t-47 9q-61 0 -102 -76l-35 32q62 93 135 93q55 0 107 -35q66 -44 108 -44q56 0 102 77z" />
    <glyph glyph-name="uni00A0" unicode="&#xa0;" horiz-adv-x="250" 
 />
    <glyph glyph-name="exclamdown" unicode="&#xa1;" horiz-adv-x="312" 
d="M185 288v-515h-57v515h57zM201 442q0 -19 -13 -32.5t-32 -13.5t-32 13.5t-13 32.5q0 18 13 31.5t32 13.5t32 -13.5t13 -31.5z" />
    <glyph glyph-name="cent" unicode="&#xa2;" horiz-adv-x="574" 
d="M340 -72h-44v61q-95 10 -151.5 77t-56.5 167q0 98 57.5 165.5t150.5 77.5v64h44v-62q100 -5 155 -73l-36 -33q-43 54 -119 59v-395q74 4 124 56l34 -31q-60 -70 -158 -74v-59zM144 233q0 -76 41.5 -130t110.5 -65v390q-70 -12 -111 -66t-41 -129z" />
    <glyph glyph-name="sterling" unicode="&#xa3;" horiz-adv-x="574" 
d="M405 390v-48h-169v-294h261v-48h-422v48h104v294h-96v48h96v106q0 99 49.5 164.5t153.5 65.5q87 0 142 -55l-35 -40q-43 46 -109 46q-55 0 -89 -31t-44.5 -69.5t-10.5 -85.5v-101h169z" />
    <glyph glyph-name="currency" unicode="&#xa4;" horiz-adv-x="842" 
d="M621 470q53 -67 53 -161q0 -97 -57 -165l94 -94l-35 -35l-95 94q-67 -53 -159 -53q-93 0 -160 55l-97 -96l-34 35l96 96q-55 64 -55 163q0 94 51 159l-92 92l35 35l92 -92q69 58 164 58q96 0 162 -57l91 91l36 -35zM422 507q-87 0 -140 -57t-53 -141q0 -85 53.5 -142.5
t139.5 -57.5t139.5 57.5t53.5 142.5q0 84 -53 141t-140 57z" />
    <glyph glyph-name="yen" unicode="&#xa5;" horiz-adv-x="574" 
d="M87 223h173v113h-173v43h156l-228 329h70l204 -309l202 309h68l-226 -329h154v-43h-173v-113h173v-44h-173v-179h-54v179h-173v44z" />
    <glyph glyph-name="brokenbar" unicode="&#xa6;" horiz-adv-x="222" 
d="M88 675h47v-344h-47v344zM88 170h47v-344h-47v344z" />
    <glyph glyph-name="section" unicode="&#xa7;" horiz-adv-x="574" 
d="M465 642l-46 -26q-31 63 -116 63q-52 0 -86 -27t-34 -75q0 -24 8 -42.5t26 -32t33 -21t41 -18.5l70 -33q56 -26 86 -59t30 -85q0 -51 -29.5 -86t-73.5 -47q82 -44 82 -127q0 -77 -53 -118t-131 -41q-64 0 -113.5 25.5t-74.5 75.5l51 27q37 -80 138 -80q50 0 88 26t38 80
q0 67 -93 107l-100 48q-53 24 -80 54t-27 84q0 50 32 85t80 49q-38 20 -61.5 48t-23.5 76q0 74 52 114.5t127 40.5q59 0 100.5 -23.5t59.5 -61.5zM313 394l-55 23q-40 -4 -71.5 -29.5t-31.5 -71.5q0 -42 27 -64.5t87 -46.5l59 -26q38 6 65.5 31.5t27.5 68.5q0 44 -27 68
t-81 47z" />
    <glyph glyph-name="dieresis" unicode="&#xa8;" 
d="M-13 651q0 17 12.5 30t30.5 13t30 -13t12 -30q0 -18 -12 -31t-30 -13t-30.5 13t-12.5 31zM168 651q0 17 12 30t30 13t30.5 -13t12.5 -30q0 -18 -12.5 -31t-30.5 -13t-30 13t-12 31z" />
    <glyph glyph-name="copyright" unicode="&#xa9;" horiz-adv-x="800" 
d="M532 239l41 -28q-26 -36 -68 -58t-93 -22q-96 0 -159.5 64t-63.5 162q0 97 63.5 161t159.5 64q46 0 88 -19.5t67 -53.5l-42 -32q-18 24 -48.5 40.5t-63.5 16.5q-75 0 -122 -52t-47 -125q0 -74 46 -126t122 -52q74 0 120 60zM20 353q0 157 111.5 267t269.5 110
q157 0 268 -110t111 -267q0 -156 -111 -265.5t-268 -109.5q-158 0 -269.5 109.5t-111.5 265.5zM69 353q0 -136 97.5 -232.5t234.5 -96.5t233.5 96.5t96.5 232.5q0 137 -96.5 234t-233.5 97t-234.5 -97t-97.5 -234z" />
    <glyph glyph-name="ordfeminine" unicode="&#xaa;" horiz-adv-x="357" 
d="M251 605v9q0 34 -21 51.5t-57 17.5q-54 0 -88 -34l-26 30q44 41 117 41q58 0 88.5 -29.5t30.5 -78.5v-123q0 -38 4 -58h-42q-5 22 -5 48h-2q-33 -55 -104 -55q-41 0 -72 21t-31 65q0 31 17 51t50 29t64.5 12t76.5 3zM251 572h-15q-146 0 -146 -61q0 -50 67 -50
q43 0 68.5 26t25.5 66v19z" />
    <glyph glyph-name="guillemotleft" unicode="&#xab;" horiz-adv-x="482" 
d="M233 418l-114 -179l115 -179l-38 -26l-135 205l135 205zM411 418l-115 -179l115 -179l-38 -26l-135 205l135 205z" />
    <glyph glyph-name="logicalnot" unicode="&#xac;" horiz-adv-x="666" 
d="M584 405v-274h-49v227h-452v47h501z" />
    <glyph glyph-name="uni00AD" unicode="&#xad;" horiz-adv-x="314" 
d="M262 269v-46h-210v46h210z" />
    <glyph glyph-name="registered" unicode="&#xae;" horiz-adv-x="600" 
d="M72 493q0 94 66.5 160.5t161.5 66.5t161.5 -66.5t66.5 -160.5t-66.5 -159.5t-161.5 -65.5t-161.5 65.5t-66.5 159.5zM104 493q0 -80 57.5 -138t138.5 -58t138.5 58t57.5 138q0 81 -57.5 138.5t-138.5 57.5t-138.5 -57.5t-57.5 -138.5zM215 367v255h88q40 0 65.5 -18
t25.5 -56q0 -28 -17 -45.5t-44 -22.5l71 -113h-47l-64 108h-40v-108h-38zM253 506h41q62 0 62 43q0 40 -54 40h-49v-83z" />
    <glyph glyph-name="macron" unicode="&#xaf;" 
d="M249 650v-44h-258v44h258z" />
    <glyph glyph-name="degree" unicode="&#xb0;" horiz-adv-x="400" 
d="M348 571q0 -63 -42.5 -105.5t-105.5 -42.5t-105.5 42.5t-42.5 105.5t42.5 105.5t105.5 42.5t105.5 -42.5t42.5 -105.5zM308 571q0 45 -31.5 76.5t-76.5 31.5t-76.5 -31.5t-31.5 -76.5t31.5 -76.5t76.5 -31.5t76.5 31.5t31.5 76.5z" />
    <glyph glyph-name="plusminus" unicode="&#xb1;" horiz-adv-x="666" 
d="M83 346v48h225v168h48v-168h228v-48h-227v-164h-49v164h-225zM84 48v48h498v-48h-498z" />
    <glyph glyph-name="twosuperior" unicode="&#xb2;" horiz-adv-x="364" 
d="M313 496v-44h-268v46l163 169q51 52 52 100q0 33 -21 52t-54 19q-31 0 -53 -18.5t-30 -52.5l-47 8q10 49 46 78t84 29q55 0 90.5 -30.5t35.5 -82.5q0 -39 -18 -68t-57 -69l-132 -136h209z" />
    <glyph glyph-name="threesuperior" unicode="&#xb3;" horiz-adv-x="364" 
d="M174 444q-97 0 -135 88l45 16q12 -29 36.5 -45t53.5 -16q38 0 62.5 22t24.5 61q0 41 -30 61t-73 20h-24v41h24q42 0 66.5 20.5t24.5 57.5q0 31 -22 50.5t-54 19.5q-51 0 -78 -48l-39 21q41 69 119 69q54 0 87.5 -29.5t33.5 -82.5q0 -69 -64 -94l-3 -2q80 -23 80 -105
q0 -59 -38.5 -92t-96.5 -33z" />
    <glyph glyph-name="acute" unicode="&#xb4;" 
d="M241 708l-126 -144h-47l101 144h72z" />
    <glyph glyph-name="mu" unicode="&#xb5;" horiz-adv-x="556" 
d="M79 -228v694h52v-264q0 -83 30 -125t103 -42q67 0 110.5 52t43.5 142v237h53v-359q0 -43 4 -107h-57v89h-2q-22 -44 -68 -73t-96 -29q-78 0 -121 46v-261h-52z" />
    <glyph glyph-name="paragraph" unicode="&#xb6;" horiz-adv-x="600" 
d="M506 708v-834h-53v791h-133v-791h-53v449q-92 0 -151.5 53t-59.5 131q0 95 60.5 148t166.5 53h223z" />
    <glyph glyph-name="periodcentered" unicode="&#xb7;" horiz-adv-x="254" 
d="M172 296q0 -18 -13 -31.5t-32 -13.5t-32 13.5t-13 31.5t13 32t32 14t32 -14t13 -32z" />
    <glyph glyph-name="cedilla" unicode="&#xb8;" 
d="M150 0l-50 -78q15 5 40 5q33 0 58.5 -18.5t25.5 -52.5q0 -45 -35 -65t-81 -20q-50 0 -93 20l13 31q33 -16 76 -16q26 0 49 12t23 37q0 43 -60 43q-28 0 -51 -10l-15 13l64 99h36z" />
    <glyph glyph-name="onesuperior" unicode="&#xb9;" horiz-adv-x="364" 
d="M220 873v-421h-50v361l-73 -59l-30 34l111 85h42z" />
    <glyph glyph-name="ordmasculine" unicode="&#xba;" horiz-adv-x="357" 
d="M328 572q0 -64 -42 -106t-107 -42t-107.5 42t-42.5 106q0 65 42.5 106.5t107.5 41.5t107 -41.5t42 -106.5zM281 572q0 47 -27 79t-75 32t-75.5 -32t-27.5 -79t27.5 -79t75.5 -32q47 0 74.5 32t27.5 79z" />
    <glyph glyph-name="guillemotright" unicode="&#xbb;" horiz-adv-x="482" 
d="M248 60l115 179l-115 179l38 27l135 -206l-135 -205zM71 60l115 179l-115 179l38 27l135 -206l-135 -205z" />
    <glyph glyph-name="onequarter" unicode="&#xbc;" horiz-adv-x="828" 
d="M707 423v-279h63v-43h-63v-101h-44v101h-190v43l178 279h56zM663 359h-3l-137 -215h140v215zM220 708v-421h-50v361l-73 -59l-30 34l111 85h42zM651 716l-447 -746l-42 22l448 746z" />
    <glyph glyph-name="onehalf" unicode="&#xbd;" horiz-adv-x="828" 
d="M768 43v-43h-268v46l164 169q51 52 52 100q0 32 -21.5 51.5t-54.5 19.5q-30 0 -52 -19t-30 -53l-48 8q10 49 46 78.5t84 29.5q56 0 91.5 -30.5t35.5 -83.5q0 -27 -11 -51.5t-24 -40.5t-41 -45l-131 -136h208zM651 716l-447 -746l-42 22l448 746zM220 708v-421h-50v361
l-73 -59l-30 34l137 85h16z" />
    <glyph glyph-name="threequarters" unicode="&#xbe;" horiz-adv-x="828" 
d="M663 0v101h-190v43l178 279h56v-279h63v-43h-63v-101h-44zM174 282q-97 0 -135 88l45 16q12 -29 36.5 -45t53.5 -16q38 0 62.5 22t24.5 61q0 41 -30 61t-73 20h-24v41h24q42 0 66.5 20.5t24.5 57.5q0 31 -22 50.5t-54 19.5q-51 0 -78 -48l-39 21q41 69 119 69
q54 0 87.5 -29.5t33.5 -82.5q0 -71 -67 -96l1 -1q37 -10 58 -37.5t21 -66.5q0 -59 -38.5 -92t-96.5 -33zM523 144h140v215h-3zM651 716l-447 -746l-42 22l448 746z" />
    <glyph glyph-name="questiondown" unicode="&#xbf;" horiz-adv-x="479" 
d="M216 241v46h56v-58q0 -47 -19.5 -81t-57.5 -67l-30 -26q-61 -52 -61 -119q0 -59 38.5 -93t96.5 -34q57 0 94.5 34.5t45.5 90.5l54 -9q-14 -77 -67 -121.5t-129 -44.5q-82 0 -136 46.5t-54 127.5q0 40 14 72t29.5 48.5t47.5 43.5q47 39 62.5 66t15.5 78zM194 442
q0 18 12.5 31.5t31.5 13.5t32 -13.5t13 -31.5q0 -19 -13 -32.5t-32 -13.5t-31.5 13.5t-12.5 32.5z" />
    <glyph glyph-name="Agrave" unicode="&#xc0;" horiz-adv-x="690" 
d="M155 191l-80 -191h-63l307 708h57l301 -708h-63l-80 191h-379zM346 648l-170 -405h337zM327 764l-126 144h72l101 -144h-47z" />
    <glyph glyph-name="Aacute" unicode="&#xc1;" horiz-adv-x="690" 
d="M155 191l-80 -191h-63l307 708h57l301 -708h-63l-80 191h-379zM346 648l-170 -405h337zM494 908l-126 -144h-47l101 144h72z" />
    <glyph glyph-name="Acircumflex" unicode="&#xc2;" horiz-adv-x="690" 
d="M155 191l-80 -191h-63l307 708h57l301 -708h-63l-80 191h-379zM346 648l-170 -405h337zM377 908l107 -144h-53l-86 115l-86 -115h-53l107 144h64z" />
    <glyph glyph-name="Atilde" unicode="&#xc3;" horiz-adv-x="690" 
d="M155 191l-80 -191h-63l307 708h57l301 -708h-63l-80 191h-379zM346 648l-170 -405h337zM233 781h-35q15 94 82 94q22 0 71 -23.5t64 -23.5q35 0 46 49h35q-15 -93 -81 -93q-23 0 -71 23.5t-64 23.5q-36 0 -47 -50z" />
    <glyph glyph-name="Adieresis" unicode="&#xc4;" horiz-adv-x="690" 
d="M155 191l-80 -191h-63l307 708h57l301 -708h-63l-80 191h-379zM346 648l-170 -405h337zM214 851q0 17 12.5 30t30.5 13t30 -13t12 -30q0 -18 -12 -31t-30 -13t-30.5 13t-12.5 31zM395 851q0 17 12 30t30 13t30.5 -13t12.5 -30q0 -18 -12.5 -31t-30.5 -13t-30 13t-12 31z
" />
    <glyph glyph-name="Aring" unicode="&#xc5;" horiz-adv-x="690" 
d="M155 191l-80 -191h-63l307 708h57l301 -708h-63l-80 191h-379zM346 648l-170 -405h337zM442 850q0 -40 -28.5 -67.5t-67.5 -27.5t-67.5 27.5t-28.5 67.5t28.5 67.5t67.5 27.5t67.5 -27.5t28.5 -67.5zM411 850q0 27 -19 46t-46 19t-46 -19t-19 -46t19 -46t46 -19t46 19
t19 46z" />
    <glyph glyph-name="AE" unicode="&#xc6;" horiz-adv-x="983" 
d="M568 343v-292h361v-51h-418v200h-298l-130 -200h-65l460 708h437v-51h-347v-264h323v-50h-323zM243 251h268v406h-6z" />
    <glyph glyph-name="Ccedilla" unicode="&#xc7;" horiz-adv-x="721" 
d="M645 136l39 -31q-94 -123 -255 -124l-38 -59q15 5 40 5q33 0 58.5 -18.5t25.5 -52.5q0 -45 -35 -65t-81 -20q-50 0 -93 20l13 31q33 -16 76 -16q26 0 49 12t23 37q0 43 -60 43q-28 0 -51 -10l-15 13l52 81q-147 11 -239.5 114.5t-92.5 257.5q0 162 104 267.5t262 105.5
q78 0 142 -27t102 -76l-41 -38q-32 40 -85.5 65t-116.5 25q-138 0 -222.5 -93.5t-84.5 -228.5t84.5 -228.5t222.5 -93.5q133 0 217 104z" />
    <glyph glyph-name="Egrave" unicode="&#xc8;" horiz-adv-x="591" 
d="M154 343v-292h388v-51h-444v708h431v-51h-375v-264h351v-50h-351zM317 764l-126 144h72l101 -144h-47z" />
    <glyph glyph-name="Eacute" unicode="&#xc9;" horiz-adv-x="591" 
d="M154 343v-292h388v-51h-444v708h431v-51h-375v-264h351v-50h-351zM445 908l-126 -144h-47l101 144h72z" />
    <glyph glyph-name="Ecircumflex" unicode="&#xca;" horiz-adv-x="591" 
d="M154 343v-292h388v-51h-444v708h431v-51h-375v-264h351v-50h-351zM347 908l107 -144h-53l-86 115l-86 -115h-53l107 144h64z" />
    <glyph glyph-name="Edieresis" unicode="&#xcb;" horiz-adv-x="591" 
d="M154 343v-292h388v-51h-444v708h431v-51h-375v-264h351v-50h-351zM183 851q0 17 12.5 30t30.5 13t30 -13t12 -30q0 -18 -12 -31t-30 -13t-30.5 13t-12.5 31zM364 851q0 17 12 30t30 13t30.5 -13t12.5 -30q0 -18 -12.5 -31t-30.5 -13t-30 13t-12 31z" />
    <glyph glyph-name="Igrave" unicode="&#xcc;" horiz-adv-x="252" 
d="M155 708v-708h-57v708h57zM107 764l-126 144h72l101 -144h-47z" />
    <glyph glyph-name="Iacute" unicode="&#xcd;" horiz-adv-x="252" 
d="M155 708v-708h-57v708h57zM270 908l-126 -144h-47l101 144h72z" />
    <glyph glyph-name="Icircumflex" unicode="&#xce;" horiz-adv-x="252" 
d="M155 708v-708h-57v708h57zM157 908l107 -144h-53l-86 115l-86 -115h-53l107 144h64z" />
    <glyph glyph-name="Idieresis" unicode="&#xcf;" horiz-adv-x="252" 
d="M155 708v-708h-57v708h57zM-7 851q0 17 12.5 30t30.5 13t30 -13t12 -30q0 -18 -12 -31t-30 -13t-30.5 13t-12.5 31zM174 851q0 17 12 30t30 13t30.5 -13t12.5 -30q0 -18 -12.5 -31t-30.5 -13t-30 13t-12 31z" />
    <glyph glyph-name="Eth" unicode="&#xd0;" horiz-adv-x="761" 
d="M92 0v350h-75v44h75v314h225q73 0 139.5 -22t120 -64.5t85.5 -112t32 -155.5t-32 -155.5t-85.5 -112t-120 -64.5t-139.5 -22h-225zM149 350v-298h150q156 0 245 84.5t89 217.5q0 134 -88.5 218t-245.5 84h-150v-262h261v-44h-261z" />
    <glyph glyph-name="Ntilde" unicode="&#xd1;" horiz-adv-x="768" 
d="M170 708l441 -626h2v626h57v-708h-72l-441 630h-2v-630h-57v708h72zM274 781h-35q15 94 82 94q22 0 71 -23.5t64 -23.5q35 0 46 49h35q-15 -93 -81 -93q-23 0 -71 23.5t-64 23.5q-36 0 -47 -50z" />
    <glyph glyph-name="Ograve" unicode="&#xd2;" horiz-adv-x="857" 
d="M796 354q0 -162 -104.5 -267.5t-263.5 -105.5q-158 0 -262.5 105.5t-104.5 267.5t104.5 267.5t262.5 105.5q159 0 263.5 -105.5t104.5 -267.5zM736 354q0 135 -85.5 228.5t-222.5 93.5t-222 -93.5t-85 -228.5t85 -228.5t222 -93.5q138 0 223 93.5t85 228.5zM443 764
l-126 144h72l101 -144h-47z" />
    <glyph glyph-name="Oacute" unicode="&#xd3;" horiz-adv-x="857" 
d="M796 354q0 -162 -104.5 -267.5t-263.5 -105.5q-158 0 -262.5 105.5t-104.5 267.5t104.5 267.5t262.5 105.5q159 0 263.5 -105.5t104.5 -267.5zM736 354q0 135 -85.5 228.5t-222.5 93.5t-222 -93.5t-85 -228.5t85 -228.5t222 -93.5q138 0 223 93.5t85 228.5zM553 908
l-126 -144h-47l101 144h72z" />
    <glyph glyph-name="Ocircumflex" unicode="&#xd4;" horiz-adv-x="857" 
d="M796 354q0 -162 -104.5 -267.5t-263.5 -105.5q-158 0 -262.5 105.5t-104.5 267.5t104.5 267.5t262.5 105.5q159 0 263.5 -105.5t104.5 -267.5zM736 354q0 135 -85.5 228.5t-222.5 93.5t-222 -93.5t-85 -228.5t85 -228.5t222 -93.5q138 0 223 93.5t85 228.5zM460 908
l107 -144h-53l-86 115l-86 -115h-53l107 144h64z" />
    <glyph glyph-name="Otilde" unicode="&#xd5;" horiz-adv-x="857" 
d="M796 354q0 -162 -104.5 -267.5t-263.5 -105.5q-158 0 -262.5 105.5t-104.5 267.5t104.5 267.5t262.5 105.5q159 0 263.5 -105.5t104.5 -267.5zM736 354q0 135 -85.5 228.5t-222.5 93.5t-222 -93.5t-85 -228.5t85 -228.5t222 -93.5q138 0 223 93.5t85 228.5zM315 781h-35
q15 94 82 94q22 0 71 -23.5t64 -23.5q35 0 46 49h35q-15 -93 -81 -93q-23 0 -71 23.5t-64 23.5q-36 0 -47 -50z" />
    <glyph glyph-name="Odieresis" unicode="&#xd6;" horiz-adv-x="857" 
d="M796 354q0 -162 -104.5 -267.5t-263.5 -105.5q-158 0 -262.5 105.5t-104.5 267.5t104.5 267.5t262.5 105.5q159 0 263.5 -105.5t104.5 -267.5zM736 354q0 135 -85.5 228.5t-222.5 93.5t-222 -93.5t-85 -228.5t85 -228.5t222 -93.5q138 0 223 93.5t85 228.5zM296 851
q0 17 12.5 30t30.5 13t30 -13t12 -30q0 -18 -12 -31t-30 -13t-30.5 13t-12.5 31zM477 851q0 17 12 30t30 13t30.5 -13t12.5 -30q0 -18 -12.5 -31t-30.5 -13t-30 13t-12 31z" />
    <glyph glyph-name="multiply" unicode="&#xd7;" horiz-adv-x="666" 
d="M168 504l165 -165l165 165l34 -34l-165 -166l165 -165l-34 -34l-165 165l-165 -165l-33 34l165 165l-165 166z" />
    <glyph glyph-name="Oslash" unicode="&#xd8;" horiz-adv-x="857" 
d="M763 699l-73 -81q102 -105 102 -264q0 -162 -104.5 -267.5t-263.5 -105.5q-138 0 -237 83l-74 -80l-30 28l73 81q-99 104 -99 261q0 162 104.5 267.5t262.5 105.5q137 0 235 -81l74 80zM652 576l-428 -472q82 -72 200 -72q139 0 223.5 93.5t84.5 228.5q0 134 -80 222z
M195 134l428 472q-80 70 -199 70q-138 0 -222.5 -93.5t-84.5 -228.5q0 -133 78 -220z" />
    <glyph glyph-name="Ugrave" unicode="&#xd9;" horiz-adv-x="717" 
d="M358 -19q-74 0 -128.5 25.5t-83 68.5t-41.5 90t-13 100v443h57v-436q0 -36 5.5 -68.5t20.5 -64.5t38 -55t60 -37.5t85 -14.5q59 0 101.5 21t65.5 56.5t33 76t10 86.5v436h57v-443q0 -53 -13 -100t-41.5 -90t-83 -68.5t-129.5 -25.5zM364 764l-126 144h72l101 -144h-47z
" />
    <glyph glyph-name="Uacute" unicode="&#xda;" horiz-adv-x="717" 
d="M358 -19q-74 0 -128.5 25.5t-83 68.5t-41.5 90t-13 100v443h57v-436q0 -36 5.5 -68.5t20.5 -64.5t38 -55t60 -37.5t85 -14.5q59 0 101.5 21t65.5 56.5t33 76t10 86.5v436h57v-443q0 -53 -13 -100t-41.5 -90t-83 -68.5t-129.5 -25.5zM484 908l-126 -144h-47l101 144h72z
" />
    <glyph glyph-name="Ucircumflex" unicode="&#xdb;" horiz-adv-x="717" 
d="M358 -19q-74 0 -128.5 25.5t-83 68.5t-41.5 90t-13 100v443h57v-436q0 -36 5.5 -68.5t20.5 -64.5t38 -55t60 -37.5t85 -14.5q59 0 101.5 21t65.5 56.5t33 76t10 86.5v436h57v-443q0 -53 -13 -100t-41.5 -90t-83 -68.5t-129.5 -25.5zM390 908l107 -144h-53l-86 115
l-86 -115h-53l107 144h64z" />
    <glyph glyph-name="Udieresis" unicode="&#xdc;" horiz-adv-x="717" 
d="M358 -19q-74 0 -128.5 25.5t-83 68.5t-41.5 90t-13 100v443h57v-436q0 -36 5.5 -68.5t20.5 -64.5t38 -55t60 -37.5t85 -14.5q59 0 101.5 21t65.5 56.5t33 76t10 86.5v436h57v-443q0 -53 -13 -100t-41.5 -90t-83 -68.5t-129.5 -25.5zM226 851q0 17 12.5 30t30.5 13t30 -13
t12 -30q0 -18 -12 -31t-30 -13t-30.5 13t-12.5 31zM407 851q0 17 12 30t30 13t30.5 -13t12.5 -30q0 -18 -12.5 -31t-30.5 -13t-30 13t-12 31z" />
    <glyph glyph-name="Yacute" unicode="&#xdd;" horiz-adv-x="583" 
d="M320 306v-306h-57v306l-259 402h71l218 -353l219 353h66zM441 908l-126 -144h-47l101 144h72z" />
    <glyph glyph-name="Thorn" unicode="&#xde;" horiz-adv-x="578" 
d="M98 0v708h57v-156h140q105 0 169 -46t64 -139q0 -91 -63 -139.5t-167 -48.5h-143v-179h-57zM155 502v-273h136q82 0 129 35t47 103q0 69 -48 102t-130 33h-134z" />
    <glyph glyph-name="germandbls" unicode="&#xdf;" horiz-adv-x="595" 
d="M146 540v-540h-54v542q0 45 11 83.5t34 71.5t64.5 52t97.5 19q79 0 134 -48t55 -128q0 -123 -122 -161v-2q77 -9 125.5 -65t48.5 -145q0 -104 -64 -167t-171 -63q-32 0 -53 4v46q30 -4 48 -4q84 0 133.5 50t49.5 135q0 90 -54 137t-144 47h-11v48h11q66 0 107 35t41 101
q0 62 -38.5 97t-97.5 35q-44 0 -75 -16t-46.5 -44t-22.5 -57t-7 -63z" />
    <glyph glyph-name="agrave" unicode="&#xe0;" horiz-adv-x="527" 
d="M218 -13q-62 0 -111 35t-49 104q0 48 23.5 80.5t67 48t88.5 21.5t104 6h47v21q0 130 -132 130q-82 0 -139 -55l-30 36q66 64 174 64q81 0 130 -43t49 -126v-204q0 -63 8 -105h-49q-8 48 -8 86h-2q-55 -99 -171 -99zM231 32q76 0 116.5 49.5t40.5 119.5v38h-35
q-239 0 -239 -110q0 -50 34.5 -73.5t82.5 -23.5zM276 564l-126 144h72l101 -144h-47z" />
    <glyph glyph-name="aacute" unicode="&#xe1;" horiz-adv-x="527" 
d="M218 -13q-62 0 -111 35t-49 104q0 48 23.5 80.5t67 48t88.5 21.5t104 6h47v21q0 130 -132 130q-82 0 -139 -55l-30 36q66 64 174 64q81 0 130 -43t49 -126v-204q0 -63 8 -105h-49q-8 48 -8 86h-2q-55 -99 -171 -99zM231 32q76 0 116.5 49.5t40.5 119.5v38h-35
q-239 0 -239 -110q0 -50 34.5 -73.5t82.5 -23.5zM393 708l-126 -144h-47l101 144h72z" />
    <glyph glyph-name="acircumflex" unicode="&#xe2;" horiz-adv-x="527" 
d="M218 -13q-62 0 -111 35t-49 104q0 48 23.5 80.5t67 48t88.5 21.5t104 6h47v21q0 130 -132 130q-82 0 -139 -55l-30 36q66 64 174 64q81 0 130 -43t49 -126v-204q0 -63 8 -105h-49q-8 48 -8 86h-2q-55 -99 -171 -99zM231 32q76 0 116.5 49.5t40.5 119.5v38h-35
q-239 0 -239 -110q0 -50 34.5 -73.5t82.5 -23.5zM294 708l107 -144h-53l-86 115l-86 -115h-53l107 144h64z" />
    <glyph glyph-name="atilde" unicode="&#xe3;" horiz-adv-x="527" 
d="M218 -13q-62 0 -111 35t-49 104q0 48 23.5 80.5t67 48t88.5 21.5t104 6h47v21q0 130 -132 130q-82 0 -139 -55l-30 36q66 64 174 64q81 0 130 -43t49 -126v-204q0 -63 8 -105h-49q-8 48 -8 86h-2q-55 -99 -171 -99zM231 32q76 0 116.5 49.5t40.5 119.5v38h-35
q-239 0 -239 -110q0 -50 34.5 -73.5t82.5 -23.5zM147 581h-35q15 94 82 94q22 0 71 -23.5t64 -23.5q35 0 46 49h35q-15 -93 -81 -93q-23 0 -71 23.5t-64 23.5q-36 0 -47 -50z" />
    <glyph glyph-name="adieresis" unicode="&#xe4;" horiz-adv-x="527" 
d="M218 -13q-62 0 -111 35t-49 104q0 48 23.5 80.5t67 48t88.5 21.5t104 6h47v21q0 130 -132 130q-82 0 -139 -55l-30 36q66 64 174 64q81 0 130 -43t49 -126v-204q0 -63 8 -105h-49q-8 48 -8 86h-2q-55 -99 -171 -99zM231 32q76 0 116.5 49.5t40.5 119.5v38h-35
q-239 0 -239 -110q0 -50 34.5 -73.5t82.5 -23.5zM129 651q0 17 12.5 30t30.5 13t30 -13t12 -30q0 -18 -12 -31t-30 -13t-30.5 13t-12.5 31zM310 651q0 17 12 30t30 13t30.5 -13t12.5 -30q0 -18 -12.5 -31t-30.5 -13t-30 13t-12 31z" />
    <glyph glyph-name="aring" unicode="&#xe5;" horiz-adv-x="527" 
d="M218 -13q-62 0 -111 35t-49 104q0 48 23.5 80.5t67 48t88.5 21.5t104 6h47v21q0 130 -132 130q-82 0 -139 -55l-30 36q66 64 174 64q81 0 130 -43t49 -126v-204q0 -63 8 -105h-49q-8 48 -8 86h-2q-55 -99 -171 -99zM231 32q76 0 116.5 49.5t40.5 119.5v38h-35
q-239 0 -239 -110q0 -50 34.5 -73.5t82.5 -23.5zM357 650q0 -40 -28.5 -67.5t-67.5 -27.5t-67.5 27.5t-28.5 67.5t28.5 67.5t67.5 27.5t67.5 -27.5t28.5 -67.5zM326 650q0 27 -19 46t-46 19t-46 -19t-19 -46t19 -46t46 -19t46 19t19 46z" />
    <glyph glyph-name="ae" unicode="&#xe6;" horiz-adv-x="873" 
d="M225 -13q-68 0 -117 33.5t-49 100.5q0 44 23 73.5t65.5 44t85.5 20.5t101 7h54v24q0 66 -33.5 104.5t-96.5 38.5q-82 0 -144 -55l-31 35q32 29 80.5 47t101.5 18q62 0 103.5 -29t56.5 -80q27 50 75 79.5t105 29.5q100 0 155 -65.5t55 -162.5q0 -22 -1 -28h-375
q1 -77 48.5 -132.5t123.5 -55.5q48 0 87 22.5t62 58.5l39 -31q-73 -96 -188 -96q-68 0 -118 33t-73 90q-41 -124 -195 -124zM233 32q78 0 116.5 42.5t38.5 110.5v37h-36q-52 0 -89 -3.5t-73.5 -13t-55.5 -30.5t-19 -53q0 -48 33.5 -69t84.5 -21zM441 266h319
q-1 74 -43 120.5t-112 46.5q-69 0 -115.5 -53t-48.5 -114z" />
    <glyph glyph-name="ccedilla" unicode="&#xe7;" horiz-adv-x="494" 
d="M466 405l-36 -33q-21 27 -56.5 44t-72.5 17q-83 0 -134.5 -57.5t-51.5 -142.5t51 -142t133 -57q80 0 136 58l34 -31q-60 -70 -159 -74l-41 -65q15 5 40 5q33 0 58.5 -18.5t25.5 -52.5q0 -45 -35 -65t-81 -20q-50 0 -93 20l13 31q33 -16 76 -16q26 0 49 12t23 37
q0 43 -60 43q-28 0 -51 -10l-15 13l56 87q-99 8 -158 76t-59 169q0 106 67.5 175.5t174.5 69.5q108 0 166 -73z" />
    <glyph glyph-name="egrave" unicode="&#xe8;" horiz-adv-x="567" 
d="M115 265h340q-3 75 -47.5 121.5t-119.5 46.5q-74 0 -122 -52.5t-51 -115.5zM294 -13q-102 0 -169 70t-67 177q0 105 66.5 174.5t164.5 69.5q105 0 162.5 -65.5t57.5 -162.5v-28h-395q2 -77 52 -132.5t130 -55.5q93 0 160 79l36 -29q-75 -97 -198 -97zM286 564l-126 144
h72l101 -144h-47z" />
    <glyph glyph-name="eacute" unicode="&#xe9;" horiz-adv-x="567" 
d="M115 265h340q-3 75 -47.5 121.5t-119.5 46.5q-74 0 -122 -52.5t-51 -115.5zM294 -13q-102 0 -169 70t-67 177q0 105 66.5 174.5t164.5 69.5q105 0 162.5 -65.5t57.5 -162.5v-28h-395q2 -77 52 -132.5t130 -55.5q93 0 160 79l36 -29q-75 -97 -198 -97zM426 708l-126 -144
h-47l101 144h72z" />
    <glyph glyph-name="ecircumflex" unicode="&#xea;" horiz-adv-x="567" 
d="M115 265h340q-3 75 -47.5 121.5t-119.5 46.5q-74 0 -122 -52.5t-51 -115.5zM294 -13q-102 0 -169 70t-67 177q0 105 66.5 174.5t164.5 69.5q105 0 162.5 -65.5t57.5 -162.5v-28h-395q2 -77 52 -132.5t130 -55.5q93 0 160 79l36 -29q-75 -97 -198 -97zM327 708l107 -144
h-53l-86 115l-86 -115h-53l107 144h64z" />
    <glyph glyph-name="edieresis" unicode="&#xeb;" horiz-adv-x="567" 
d="M115 265h340q-3 75 -47.5 121.5t-119.5 46.5q-74 0 -122 -52.5t-51 -115.5zM294 -13q-102 0 -169 70t-67 177q0 105 66.5 174.5t164.5 69.5q105 0 162.5 -65.5t57.5 -162.5v-28h-395q2 -77 52 -132.5t130 -55.5q93 0 160 79l36 -29q-75 -97 -198 -97zM161 651
q0 17 12.5 30t30.5 13t30 -13t12 -30q0 -18 -12 -31t-30 -13t-30.5 13t-12.5 31zM342 651q0 17 12 30t30 13t30.5 -13t12.5 -30q0 -18 -12.5 -31t-30.5 -13t-30 13t-12 31z" />
    <glyph glyph-name="igrave" unicode="&#xec;" horiz-adv-x="243" 
d="M149 466v-466h-55v466h55zM101 564l-126 144h72l101 -144h-47z" />
    <glyph glyph-name="iacute" unicode="&#xed;" horiz-adv-x="243" 
d="M149 466v-466h-55v466h55zM267 708l-126 -144h-47l101 144h72z" />
    <glyph glyph-name="icircumflex" unicode="&#xee;" horiz-adv-x="243" 
d="M149 466v-466h-55v466h55zM155 708l107 -144h-53l-86 115l-86 -115h-53l107 144h64z" />
    <glyph glyph-name="idieresis" unicode="&#xef;" horiz-adv-x="243" 
d="M149 466v-466h-55v466h55zM-11 651q0 17 12.5 30t30.5 13t30 -13t12 -30q0 -18 -12 -31t-30 -13t-30.5 13t-12.5 31zM170 651q0 17 12 30t30 13t30.5 -13t12.5 -30q0 -18 -12.5 -31t-30.5 -13t-30 13t-12 31z" />
    <glyph glyph-name="eth" unicode="&#xf0;" horiz-adv-x="609" 
d="M109 233q0 -85 52 -141.5t137 -56.5q86 0 137.5 56.5t51.5 141.5t-51.5 141t-137.5 56q-85 0 -137 -56t-52 -141zM451 718l-103 -56q80 -76 138 -187.5t58 -227.5q0 -106 -63 -183t-183 -77q-107 0 -176.5 70t-69.5 176q0 107 69 176t177 69q89 0 159 -63l3 2
q-27 61 -70.5 120t-90.5 100l-112 -58l-28 29l110 58q-41 39 -99 78l46 30q59 -44 99 -82l103 54z" />
    <glyph glyph-name="ntilde" unicode="&#xf1;" horiz-adv-x="578" 
d="M90 466h52q4 -52 4 -93h2q20 47 67 76t100 29q87 0 130.5 -53t43.5 -141v-284h-54v264q0 168 -132 168q-65 0 -109.5 -51t-44.5 -144v-237h-55v359q0 66 -4 107zM179 581h-35q15 94 82 94q22 0 71 -23.5t64 -23.5q35 0 46 49h35q-15 -93 -81 -93q-23 0 -71 23.5t-64 23.5
q-36 0 -47 -50z" />
    <glyph glyph-name="ograve" unicode="&#xf2;" horiz-adv-x="609" 
d="M550 233q0 -106 -69 -176t-177 -70q-107 0 -176 70t-69 176q0 107 68.5 176t176.5 69t177 -69t69 -176zM494 233q0 85 -52 141.5t-138 56.5q-85 0 -137 -56.5t-52 -141.5t52 -141t137 -56q86 0 138 56t52 141zM297 564l-126 144h72l101 -144h-47z" />
    <glyph glyph-name="oacute" unicode="&#xf3;" horiz-adv-x="609" 
d="M550 233q0 -106 -69 -176t-177 -70q-107 0 -176 70t-69 176q0 107 68.5 176t176.5 69t177 -69t69 -176zM494 233q0 85 -52 141.5t-138 56.5q-85 0 -137 -56.5t-52 -141.5t52 -141t137 -56q86 0 138 56t52 141zM438 708l-126 -144h-47l101 144h72z" />
    <glyph glyph-name="ocircumflex" unicode="&#xf4;" horiz-adv-x="609" 
d="M550 233q0 -106 -69 -176t-177 -70q-107 0 -176 70t-69 176q0 107 68.5 176t176.5 69t177 -69t69 -176zM494 233q0 85 -52 141.5t-138 56.5q-85 0 -137 -56.5t-52 -141.5t52 -141t137 -56q86 0 138 56t52 141zM336 708l107 -144h-53l-86 115l-86 -115h-53l107 144h64z
" />
    <glyph glyph-name="otilde" unicode="&#xf5;" horiz-adv-x="609" 
d="M550 233q0 -106 -69 -176t-177 -70q-107 0 -176 70t-69 176q0 107 68.5 176t176.5 69t177 -69t69 -176zM494 233q0 85 -52 141.5t-138 56.5q-85 0 -137 -56.5t-52 -141.5t52 -141t137 -56q86 0 138 56t52 141zM191 581h-35q15 94 82 94q22 0 71 -23.5t64 -23.5
q35 0 46 49h35q-15 -93 -81 -93q-23 0 -71 23.5t-64 23.5q-36 0 -47 -50z" />
    <glyph glyph-name="odieresis" unicode="&#xf6;" horiz-adv-x="609" 
d="M550 233q0 -106 -69 -176t-177 -70q-107 0 -176 70t-69 176q0 107 68.5 176t176.5 69t177 -69t69 -176zM494 233q0 85 -52 141.5t-138 56.5q-85 0 -137 -56.5t-52 -141.5t52 -141t137 -56q86 0 138 56t52 141zM172 651q0 17 12.5 30t30.5 13t30 -13t12 -30q0 -18 -12 -31
t-30 -13t-30.5 13t-12.5 31zM353 651q0 17 12 30t30 13t30.5 -13t12.5 -30q0 -18 -12.5 -31t-30.5 -13t-30 13t-12 31z" />
    <glyph glyph-name="divide" unicode="&#xf7;" horiz-adv-x="666" 
d="M584 327v-48h-501v48h501zM382 466q0 -19 -14.5 -34t-34.5 -15t-34 15t-14 34q0 20 14 35t34 15q21 0 35 -15t14 -35zM382 140q0 -20 -14 -35t-35 -15q-20 0 -34 15t-14 35t13.5 34.5t34.5 14.5q20 0 34.5 -15t14.5 -34z" />
    <glyph glyph-name="oslash" unicode="&#xf8;" horiz-adv-x="609" 
d="M76 -23l-27 25l66 68q-57 68 -57 163q0 107 69 176t176 69q95 0 161 -54l64 66l26 -26l-64 -66q61 -68 61 -165q0 -106 -70 -176t-178 -70q-94 0 -161 57zM151 106l279 284q-46 44 -126 44q-86 0 -138.5 -57.5t-52.5 -143.5q0 -78 38 -127zM303 32q87 0 140 57.5
t53 143.5q0 79 -42 129l-279 -284q51 -46 128 -46z" />
    <glyph glyph-name="ugrave" unicode="&#xf9;" horiz-adv-x="578" 
d="M488 0h-53q-4 50 -4 92h-2q-19 -47 -66 -76t-100 -29q-88 0 -131.5 53.5t-43.5 140.5v285h55v-264q0 -169 132 -169q64 0 109 51.5t45 144.5v237h54v-359q0 -57 5 -107zM280 564l-126 144h72l101 -144h-47z" />
    <glyph glyph-name="uacute" unicode="&#xfa;" horiz-adv-x="578" 
d="M488 0h-53q-4 50 -4 92h-2q-19 -47 -66 -76t-100 -29q-88 0 -131.5 53.5t-43.5 140.5v285h55v-264q0 -169 132 -169q64 0 109 51.5t45 144.5v237h54v-359q0 -57 5 -107zM415 708l-126 -144h-47l101 144h72z" />
    <glyph glyph-name="ucircumflex" unicode="&#xfb;" horiz-adv-x="578" 
d="M488 0h-53q-4 50 -4 92h-2q-19 -47 -66 -76t-100 -29q-88 0 -131.5 53.5t-43.5 140.5v285h55v-264q0 -169 132 -169q64 0 109 51.5t45 144.5v237h54v-359q0 -57 5 -107zM317 708l107 -144h-53l-86 115l-86 -115h-53l107 144h64z" />
    <glyph glyph-name="udieresis" unicode="&#xfc;" horiz-adv-x="578" 
d="M488 0h-53q-4 50 -4 92h-2q-19 -47 -66 -76t-100 -29q-88 0 -131.5 53.5t-43.5 140.5v285h55v-264q0 -169 132 -169q64 0 109 51.5t45 144.5v237h54v-359q0 -57 5 -107zM153 651q0 17 12.5 30t30.5 13t30 -13t12 -30q0 -18 -12 -31t-30 -13t-30.5 13t-12.5 31zM334 651
q0 17 12 30t30 13t30.5 -13t12.5 -30q0 -18 -12.5 -31t-30.5 -13t-30 13t-12 31z" />
    <glyph glyph-name="yacute" unicode="&#xfd;" horiz-adv-x="470" 
d="M84 -241q-25 0 -55 7l7 49q21 -8 46 -8q34 0 54.5 21.5t36.5 63.5l40 105l-195 469h61l162 -411l2 2l150 409h59l-232 -596q-22 -55 -53 -83t-83 -28zM377 708l-126 -144h-47l101 144h72z" />
    <glyph glyph-name="thorn" unicode="&#xfe;" horiz-adv-x="631" 
d="M334 -13q-57 0 -106.5 27.5t-77.5 77.5h-2v-332h-53v996h53v-385h2q29 51 78.5 79t105.5 28q103 0 171 -69.5t68 -175.5t-68 -176t-171 -70zM516 233q0 84 -51 140.5t-135 56.5q-83 0 -135 -56.5t-52 -140.5t52 -141t135 -57q84 0 135 56.5t51 141.5z" />
    <glyph glyph-name="ydieresis" unicode="&#xff;" horiz-adv-x="470" 
d="M84 -241q-25 0 -55 7l7 49q21 -8 46 -8q34 0 54.5 21.5t36.5 63.5l40 105l-195 469h61l162 -411l2 2l150 409h59l-232 -596q-22 -55 -53 -83t-83 -28zM109 651q0 17 12.5 30t30.5 13t30 -13t12 -30q0 -18 -12 -31t-30 -13t-30.5 13t-12.5 31zM290 651q0 17 12 30t30 13
t30.5 -13t12.5 -30q0 -18 -12.5 -31t-30.5 -13t-30 13t-12 31z" />
    <glyph glyph-name="Amacron" unicode="&#x100;" horiz-adv-x="690" 
d="M155 191l-80 -191h-63l307 708h57l301 -708h-63l-80 191h-379zM346 648l-170 -405h337zM476 850v-44h-258v44h258z" />
    <glyph glyph-name="amacron" unicode="&#x101;" horiz-adv-x="527" 
d="M218 -13q-62 0 -111 35t-49 104q0 48 23.5 80.5t67 48t88.5 21.5t104 6h47v21q0 130 -132 130q-82 0 -139 -55l-30 36q66 64 174 64q81 0 130 -43t49 -126v-204q0 -63 8 -105h-49q-8 48 -8 86h-2q-55 -99 -171 -99zM231 32q76 0 116.5 49.5t40.5 119.5v38h-35
q-239 0 -239 -110q0 -50 34.5 -73.5t82.5 -23.5zM396 650v-44h-258v44h258z" />
    <glyph glyph-name="Abreve" unicode="&#x102;" horiz-adv-x="690" 
d="M155 191l-80 -191h-63l307 708h57l301 -708h-63l-80 191h-379zM346 648l-170 -405h337zM452 905h36q-5 -61 -43.5 -95.5t-97.5 -34.5t-97 34.5t-43 95.5h37q7 -41 35.5 -63.5t67.5 -22.5q89 0 105 86z" />
    <glyph glyph-name="abreve" unicode="&#x103;" horiz-adv-x="527" 
d="M218 -13q-62 0 -111 35t-49 104q0 48 23.5 80.5t67 48t88.5 21.5t104 6h47v21q0 130 -132 130q-82 0 -139 -55l-30 36q66 64 174 64q81 0 130 -43t49 -126v-204q0 -63 8 -105h-49q-8 48 -8 86h-2q-55 -99 -171 -99zM231 32q76 0 116.5 49.5t40.5 119.5v38h-35
q-239 0 -239 -110q0 -50 34.5 -73.5t82.5 -23.5zM374 705h36q-5 -61 -43.5 -95.5t-97.5 -34.5t-97 34.5t-43 95.5h37q7 -41 35.5 -63.5t67.5 -22.5q89 0 105 86z" />
    <glyph glyph-name="Aogonek" unicode="&#x104;" horiz-adv-x="690" 
d="M12 0l307 708h57l301 -708q-5 -5 -23 -12.5t-20 -10.5q-61 -64 -61 -104q0 -24 15.5 -38.5t39.5 -14.5q34 0 56 24l16 -32q-35 -35 -87 -35q-36 0 -62 23.5t-26 60.5q0 62 89 139l-80 191h-379l-80 -191h-63zM346 648l-170 -405h337z" />
    <glyph glyph-name="aogonek" unicode="&#x105;" horiz-adv-x="527" 
d="M218 -13q-62 0 -111 35t-49 104q0 156 278 156h52v21q0 130 -132 130q-82 0 -139 -55l-30 36q66 64 174 64q81 0 130 -43t49 -126v-204q0 -63 8 -105h-8q-44 -45 -62.5 -72t-18.5 -55q0 -24 15 -38.5t39 -14.5q35 0 56 24l17 -32q-37 -35 -88 -35q-36 0 -62 23.5
t-26 60.5q0 62 90 139h-1q-8 48 -8 86h-2q-55 -99 -171 -99zM231 32q76 0 116.5 49.5t40.5 119.5v38h-35q-239 0 -239 -110q0 -50 34.5 -73.5t82.5 -23.5z" />
    <glyph glyph-name="Cacute" unicode="&#x106;" horiz-adv-x="721" 
d="M645 136l39 -31q-95 -124 -258 -124q-159 0 -262 105.5t-103 267.5t104 267.5t262 105.5q78 0 142 -27t102 -76l-41 -38q-32 40 -85.5 65t-116.5 25q-138 0 -222.5 -93.5t-84.5 -228.5t84.5 -228.5t222.5 -93.5q133 0 217 104zM549 908l-126 -144h-47l101 144h72z" />
    <glyph glyph-name="cacute" unicode="&#x107;" horiz-adv-x="494" 
d="M466 405l-36 -33q-21 27 -56 43t-73 16q-83 0 -134.5 -56.5t-51.5 -141.5t51 -141t133 -56t136 56l34 -31q-64 -74 -170 -74q-108 0 -174 69t-66 177q0 107 67.5 176t173.5 69q108 0 166 -73zM428 708l-126 -144h-47l101 144h72z" />
    <glyph glyph-name="Ccircumflex" unicode="&#x108;" horiz-adv-x="721" 
d="M645 136l39 -31q-95 -124 -258 -124q-159 0 -262 105.5t-103 267.5t104 267.5t262 105.5q78 0 142 -27t102 -76l-41 -38q-32 40 -85.5 65t-116.5 25q-138 0 -222.5 -93.5t-84.5 -228.5t84.5 -228.5t222.5 -93.5q133 0 217 104zM458 908l107 -144h-53l-86 115l-86 -115
h-53l107 144h64z" />
    <glyph glyph-name="ccircumflex" unicode="&#x109;" horiz-adv-x="494" 
d="M466 405l-36 -33q-21 27 -56 43t-73 16q-83 0 -134.5 -56.5t-51.5 -141.5t51 -141t133 -56t136 56l34 -31q-64 -74 -170 -74q-108 0 -174 69t-66 177q0 107 67.5 176t173.5 69q108 0 166 -73zM332 708l107 -144h-53l-86 115l-86 -115h-53l107 144h64z" />
    <glyph glyph-name="Cdotaccent" unicode="&#x10a;" horiz-adv-x="721" 
d="M645 136l39 -31q-95 -124 -258 -124q-159 0 -262 105.5t-103 267.5t104 267.5t262 105.5q78 0 142 -27t102 -76l-41 -38q-32 40 -85.5 65t-116.5 25q-138 0 -222.5 -93.5t-84.5 -228.5t84.5 -228.5t222.5 -93.5q133 0 217 104zM462 851q0 -17 -12.5 -29t-28.5 -12
t-28.5 12t-12.5 29t12.5 29t28.5 12t28.5 -12t12.5 -29z" />
    <glyph glyph-name="cdotaccent" unicode="&#x10b;" horiz-adv-x="494" 
d="M466 405l-36 -33q-21 27 -56 43t-73 16q-83 0 -134.5 -56.5t-51.5 -141.5t51 -141t133 -56t136 56l34 -31q-64 -74 -170 -74q-108 0 -174 69t-66 177q0 107 67.5 176t173.5 69q108 0 166 -73zM336 651q0 -17 -12.5 -29t-28.5 -12t-28.5 12t-12.5 29t12.5 29t28.5 12
t28.5 -12t12.5 -29z" />
    <glyph glyph-name="Ccaron" unicode="&#x10c;" horiz-adv-x="721" 
d="M645 136l39 -31q-95 -124 -258 -124q-159 0 -262 105.5t-103 267.5t104 267.5t262 105.5q78 0 142 -27t102 -76l-41 -38q-32 40 -85.5 65t-116.5 25q-138 0 -222.5 -93.5t-84.5 -228.5t84.5 -228.5t222.5 -93.5q133 0 217 104zM565 908l-107 -144h-64l-107 144h53
l86 -115l86 115h53z" />
    <glyph glyph-name="ccaron" unicode="&#x10d;" horiz-adv-x="494" 
d="M466 405l-36 -33q-21 27 -56 43t-73 16q-83 0 -134.5 -56.5t-51.5 -141.5t51 -141t133 -56t136 56l34 -31q-64 -74 -170 -74q-108 0 -174 69t-66 177q0 107 67.5 176t173.5 69q108 0 166 -73zM439 708l-107 -144h-64l-107 144h53l86 -115l86 115h53z" />
    <glyph glyph-name="Dcaron" unicode="&#x10e;" horiz-adv-x="761" 
d="M98 0v708h224q73 0 139.5 -22t120.5 -64.5t86 -112t32 -155.5t-32 -155.5t-86 -112t-120.5 -64.5t-139.5 -22h-224zM155 657v-606h152q155 0 244 85t89 218t-89 218t-244 85h-152zM488 908l-107 -144h-64l-107 144h53l86 -115l86 115h53z" />
    <glyph glyph-name="dcaron" unicode="&#x10f;" horiz-adv-x="668" 
d="M482 92q-29 -50 -79.5 -77.5t-106.5 -27.5q-105 0 -171.5 70t-66.5 176q0 105 66.5 175t171.5 70q56 0 106.5 -28t79.5 -79h2v385h55v-756h-55v92h-2zM115 233q0 -85 50.5 -142t135.5 -57q82 0 135.5 57t53.5 142t-53.5 142.5t-135.5 57.5q-85 0 -135.5 -57.5
t-50.5 -142.5zM712 708l-70 -185h-45l58 185h57z" />
    <glyph glyph-name="Dcroat" unicode="&#x110;" horiz-adv-x="761" 
d="M92 0v350h-75v44h75v314h225q73 0 139.5 -22t120 -64.5t85.5 -112t32 -155.5t-32 -155.5t-85.5 -112t-120 -64.5t-139.5 -22h-225zM149 350v-298h150q156 0 245 84.5t89 217.5q0 134 -88.5 218t-245.5 84h-150v-262h261v-44h-261z" />
    <glyph glyph-name="dcroat" unicode="&#x111;" horiz-adv-x="634" 
d="M311 610h173v146h55v-146h60v-40h-60v-570h-55v92h-2q-29 -50 -79.5 -77.5t-106.5 -27.5q-105 0 -171.5 70t-66.5 176q0 105 66.5 175t171.5 70q56 0 106.5 -28t79.5 -79h2v199h-173v40zM115 233q0 -85 50.5 -142t135.5 -57q82 0 135.5 57t53.5 142t-53.5 142.5
t-135.5 57.5q-85 0 -135.5 -57.5t-50.5 -142.5z" />
    <glyph glyph-name="Emacron" unicode="&#x112;" horiz-adv-x="591" 
d="M154 343v-292h388v-51h-444v708h431v-51h-375v-264h351v-50h-351zM445 850v-44h-258v44h258z" />
    <glyph glyph-name="emacron" unicode="&#x113;" horiz-adv-x="567" 
d="M115 265h340q-3 75 -47.5 121.5t-119.5 46.5q-74 0 -122 -52.5t-51 -115.5zM294 -13q-102 0 -169 70t-67 177q0 105 66.5 174.5t164.5 69.5q105 0 162.5 -65.5t57.5 -162.5v-28h-395q2 -77 52 -132.5t130 -55.5q93 0 160 79l36 -29q-75 -97 -198 -97zM422 650v-44h-258
v44h258z" />
    <glyph glyph-name="Ebreve" unicode="&#x114;" horiz-adv-x="591" 
d="M154 343v-292h388v-51h-444v708h431v-51h-375v-264h351v-50h-351zM420 905h36q-5 -61 -43.5 -95.5t-97.5 -34.5t-97 34.5t-43 95.5h37q7 -41 35.5 -63.5t67.5 -22.5q89 0 105 86z" />
    <glyph glyph-name="ebreve" unicode="&#x115;" horiz-adv-x="567" 
d="M115 265h340q-3 75 -47.5 121.5t-119.5 46.5q-74 0 -122 -52.5t-51 -115.5zM294 -13q-102 0 -169 70t-67 177q0 105 66.5 174.5t164.5 69.5q105 0 162.5 -65.5t57.5 -162.5v-28h-395q2 -77 52 -132.5t130 -55.5q93 0 160 79l36 -29q-75 -97 -198 -97zM397 705h36
q-5 -61 -43.5 -95.5t-97.5 -34.5t-97 34.5t-43 95.5h37q7 -41 35.5 -63.5t67.5 -22.5q89 0 105 86z" />
    <glyph glyph-name="Edotaccent" unicode="&#x116;" horiz-adv-x="591" 
d="M154 343v-292h388v-51h-444v708h431v-51h-375v-264h351v-50h-351zM361 851q0 -17 -12.5 -29t-28.5 -12t-28.5 12t-12.5 29t12.5 29t28.5 12t28.5 -12t12.5 -29z" />
    <glyph glyph-name="edotaccent" unicode="&#x117;" horiz-adv-x="567" 
d="M115 265h340q-3 75 -47.5 121.5t-119.5 46.5q-74 0 -122 -52.5t-51 -115.5zM294 -13q-102 0 -169 70t-67 177q0 105 66.5 174.5t164.5 69.5q105 0 162.5 -65.5t57.5 -162.5v-28h-395q2 -77 52 -132.5t130 -55.5q93 0 160 79l36 -29q-75 -97 -198 -97zM333 651
q0 -17 -12.5 -29t-28.5 -12t-28.5 12t-12.5 29t12.5 29t28.5 12t28.5 -12t12.5 -29z" />
    <glyph glyph-name="Eogonek" unicode="&#x118;" horiz-adv-x="591" 
d="M555 -156l17 -32q-37 -35 -88 -35q-36 0 -62 23.5t-26 60.5q0 62 90 139h-388v708h431v-51h-375v-264h351v-50h-351v-292h388v-51h-16q-44 -45 -62.5 -72t-18.5 -55q0 -24 15 -38.5t39 -14.5q34 0 56 24z" />
    <glyph glyph-name="eogonek" unicode="&#x119;" horiz-adv-x="567" 
d="M312 -223q-36 0 -62 23.5t-26 60.5q0 58 75 127h-22q-96 7 -157.5 75.5t-61.5 170.5q0 105 66.5 174.5t164.5 69.5q105 0 162.5 -65.5t57.5 -162.5v-28h-395q2 -77 52 -132.5t130 -55.5q50 0 90.5 22.5t65.5 59.5l40 -32q-58 -75 -146 -92q-39 -40 -56 -66t-17 -53
q0 -24 15.5 -38.5t38.5 -14.5q35 0 57 24l16 -32q-37 -35 -88 -35zM115 265h340q-3 75 -47.5 121.5t-119.5 46.5q-74 0 -122 -52.5t-51 -115.5z" />
    <glyph glyph-name="Ecaron" unicode="&#x11a;" horiz-adv-x="591" 
d="M154 343v-292h388v-51h-444v708h431v-51h-375v-264h351v-50h-351zM455 908l-107 -144h-64l-107 144h53l86 -115l86 115h53z" />
    <glyph glyph-name="ecaron" unicode="&#x11b;" horiz-adv-x="567" 
d="M115 265h340q-3 75 -47.5 121.5t-119.5 46.5q-74 0 -122 -52.5t-51 -115.5zM294 -13q-102 0 -169 70t-67 177q0 105 66.5 174.5t164.5 69.5q105 0 162.5 -65.5t57.5 -162.5v-28h-395q2 -77 52 -132.5t130 -55.5q93 0 160 79l36 -29q-75 -97 -198 -97zM430 708l-107 -144
h-64l-107 144h53l86 -115l86 115h53z" />
    <glyph glyph-name="Gcircumflex" unicode="&#x11c;" horiz-adv-x="784" 
d="M677 635l-36 -39q-80 80 -211 80q-139 0 -224 -93t-85 -228t85 -229t226 -94q122 0 203 48v234h-170v50h227v-316q-112 -67 -261 -67q-162 0 -266 106t-104 268q0 161 104.5 266.5t264.5 105.5q153 0 247 -92zM463 908l107 -144h-53l-86 115l-86 -115h-53l107 144h64z
" />
    <glyph glyph-name="gcircumflex" unicode="&#x11d;" horiz-adv-x="630" 
d="M74 -151l35 37q76 -81 186 -81q99 0 144 57.5t45 148.5v91h-2q-26 -50 -77.5 -78t-108.5 -28q-106 0 -172 67.5t-66 171.5q0 103 66.5 173t171.5 70q57 0 107.5 -28t78.5 -79h2v95h55v-455q0 -48 -11.5 -89.5t-37.5 -80.5t-76.5 -61.5t-120.5 -22.5q-133 0 -219 92z
M115 237q0 -82 50.5 -138.5t135.5 -56.5q82 0 135.5 55.5t53.5 139.5q0 80 -54 138t-135 58q-85 0 -135.5 -57t-50.5 -139zM339 708l107 -144h-53l-86 115l-86 -115h-53l107 144h64z" />
    <glyph glyph-name="Gbreve" unicode="&#x11e;" horiz-adv-x="784" 
d="M677 635l-36 -39q-80 80 -211 80q-139 0 -224 -93t-85 -228t85 -229t226 -94q122 0 203 48v234h-170v50h227v-316q-112 -67 -261 -67q-162 0 -266 106t-104 268q0 161 104.5 266.5t264.5 105.5q153 0 247 -92zM534 905h36q-5 -61 -43.5 -95.5t-97.5 -34.5t-97 34.5
t-43 95.5h37q7 -41 35.5 -63.5t67.5 -22.5q89 0 105 86z" />
    <glyph glyph-name="gbreve" unicode="&#x11f;" horiz-adv-x="630" 
d="M74 -151l35 37q76 -81 186 -81q99 0 144 57.5t45 148.5v91h-2q-26 -50 -77.5 -78t-108.5 -28q-106 0 -172 67.5t-66 171.5q0 103 66.5 173t171.5 70q57 0 107.5 -28t78.5 -79h2v95h55v-455q0 -48 -11.5 -89.5t-37.5 -80.5t-76.5 -61.5t-120.5 -22.5q-133 0 -219 92z
M115 237q0 -82 50.5 -138.5t135.5 -56.5q82 0 135.5 55.5t53.5 139.5q0 80 -54 138t-135 58q-85 0 -135.5 -57t-50.5 -139zM413 705h36q-5 -61 -43.5 -95.5t-97.5 -34.5t-97 34.5t-43 95.5h37q7 -41 35.5 -63.5t67.5 -22.5q89 0 105 86z" />
    <glyph glyph-name="Gdotaccent" unicode="&#x120;" horiz-adv-x="784" 
d="M677 635l-36 -39q-80 80 -211 80q-139 0 -224 -93t-85 -228t85 -229t226 -94q122 0 203 48v234h-170v50h227v-316q-112 -67 -261 -67q-162 0 -266 106t-104 268q0 161 104.5 266.5t264.5 105.5q153 0 247 -92zM469 851q0 -17 -12.5 -29t-28.5 -12t-28.5 12t-12.5 29
t12.5 29t28.5 12t28.5 -12t12.5 -29z" />
    <glyph glyph-name="gdotaccent" unicode="&#x121;" horiz-adv-x="630" 
d="M74 -151l35 37q76 -81 186 -81q99 0 144 57.5t45 148.5v91h-2q-26 -50 -77.5 -78t-108.5 -28q-106 0 -172 67.5t-66 171.5q0 103 66.5 173t171.5 70q57 0 107.5 -28t78.5 -79h2v95h55v-455q0 -48 -11.5 -89.5t-37.5 -80.5t-76.5 -61.5t-120.5 -22.5q-133 0 -219 92z
M115 237q0 -82 50.5 -138.5t135.5 -56.5q82 0 135.5 55.5t53.5 139.5q0 80 -54 138t-135 58q-85 0 -135.5 -57t-50.5 -139zM348 651q0 -17 -12.5 -29t-28.5 -12t-28.5 12t-12.5 29t12.5 29t28.5 12t28.5 -12t12.5 -29z" />
    <glyph glyph-name="Gcommaaccent" unicode="&#x122;" horiz-adv-x="787" 
d="M677 635l-36 -39q-80 80 -211 80q-139 0 -224 -93t-85 -228t85 -229t226 -94q122 0 203 48v234h-170v50h227v-316q-112 -67 -261 -67q-162 0 -266 106t-104 268q0 161 104.5 266.5t264.5 105.5q153 0 247 -92zM472 -45l-71 -185h-45l59 185h57z" />
    <glyph glyph-name="gcommaaccent" unicode="&#x123;" horiz-adv-x="630" 
d="M74 -151l35 37q76 -81 186 -81q99 0 144 57.5t45 148.5v91h-2q-26 -50 -77.5 -78t-108.5 -28q-106 0 -172 67.5t-66 171.5q0 103 66.5 173t171.5 70q57 0 107.5 -28t78.5 -79h2v95h55v-455q0 -48 -11.5 -89.5t-37.5 -80.5t-76.5 -61.5t-120.5 -22.5q-133 0 -219 92z
M115 237q0 -82 50.5 -138.5t135.5 -56.5q82 0 135.5 55.5t53.5 139.5q0 80 -54 138t-135 58q-85 0 -135.5 -57t-50.5 -139zM280 564l71 185h45l-59 -185h-57z" />
    <glyph glyph-name="Hcircumflex" unicode="&#x124;" horiz-adv-x="722" 
d="M98 0v708h57v-314h413v314h57v-708h-57v341h-413v-341h-57zM392 908l107 -144h-53l-86 115l-86 -115h-53l107 144h64z" />
    <glyph glyph-name="hcircumflex" unicode="&#x125;" horiz-adv-x="579" 
d="M149 375h2q23 50 67 76.5t97 26.5q88 0 131.5 -53.5t43.5 -140.5v-284h-54v264q0 168 -133 168q-64 0 -109 -51t-45 -144v-237h-54v756h54v-381zM318 940l107 -144h-53l-86 115l-86 -115h-53l107 144h64z" />
    <glyph glyph-name="Hbar" unicode="&#x126;" horiz-adv-x="722" 
d="M98 0v708h57v-168h413v168h57v-708h-57v341h-413v-341h-57zM155 394h413v106h-413v-106z" />
    <glyph glyph-name="hbar" unicode="&#x127;" horiz-adv-x="579" 
d="M36 610h59v146h54v-146h174v-40h-174v-195h2q19 47 65 75t99 28q88 0 131.5 -53.5t43.5 -140.5v-284h-54v264q0 169 -133 169q-64 0 -109 -51.5t-45 -144.5v-237h-54v570h-59v40z" />
    <glyph glyph-name="Itilde" unicode="&#x128;" horiz-adv-x="252" 
d="M155 708v-708h-57v708h57zM14 781h-35q15 94 82 94q22 0 71 -23.5t64 -23.5q35 0 46 49h35q-15 -93 -81 -93q-23 0 -71 23.5t-64 23.5q-36 0 -47 -50z" />
    <glyph glyph-name="itilde" unicode="&#x129;" horiz-adv-x="243" 
d="M149 466v-466h-55v466h55zM10 581h-35q15 94 82 94q22 0 71 -23.5t64 -23.5q35 0 46 49h35q-15 -93 -81 -93q-23 0 -71 23.5t-64 23.5q-36 0 -47 -50z" />
    <glyph glyph-name="Imacron" unicode="&#x12a;" horiz-adv-x="252" 
d="M155 708v-708h-57v708h57zM256 850v-44h-258v44h258z" />
    <glyph glyph-name="imacron" unicode="&#x12b;" horiz-adv-x="243" 
d="M149 466v-466h-55v466h55zM251 650v-44h-258v44h258z" />
    <glyph glyph-name="Ibreve" unicode="&#x12c;" horiz-adv-x="252" 
d="M155 708v-708h-57v708h57zM231 905h36q-5 -61 -43.5 -95.5t-97.5 -34.5t-97 34.5t-43 95.5h37q7 -41 35.5 -63.5t67.5 -22.5q89 0 105 86z" />
    <glyph glyph-name="ibreve" unicode="&#x12d;" horiz-adv-x="243" 
d="M149 466v-466h-55v466h55zM226 705h36q-5 -61 -43.5 -95.5t-97.5 -34.5t-97 34.5t-43 95.5h37q7 -41 35.5 -63.5t67.5 -22.5q89 0 105 86z" />
    <glyph glyph-name="Iogonek" unicode="&#x12e;" horiz-adv-x="252" 
d="M108 -223q-36 0 -62 23.5t-26 60.5q0 62 90 139h-12v708h57v-708l-49 -50t-25.5 -36t-11.5 -41q0 -24 15.5 -38.5t38.5 -14.5q35 0 57 24l16 -32q-37 -35 -88 -35z" />
    <glyph glyph-name="iogonek" unicode="&#x12f;" horiz-adv-x="243" 
d="M104 -223q-36 0 -62 23.5t-26 60.5q0 63 89 138l-11 1v466h55v-466h-3q-45 -45 -63.5 -71.5t-18.5 -55.5q0 -24 15.5 -38.5t39.5 -14.5q34 0 56 24l16 -32q-35 -35 -87 -35zM121 610q-16 0 -28 12t-12 29t12 29t28 12t28.5 -12t12.5 -29t-12.5 -29t-28.5 -12z" />
    <glyph glyph-name="Idotaccent" unicode="&#x130;" horiz-adv-x="252" 
d="M155 708v-708h-57v708h57zM168 851q0 -17 -12.5 -29t-28.5 -12t-28.5 12t-12.5 29t12.5 29t28.5 12t28.5 -12t12.5 -29z" />
    <glyph glyph-name="dotlessi" unicode="&#x131;" horiz-adv-x="243" 
d="M149 466v-466h-55v466h55z" />
    <glyph glyph-name="IJ" unicode="&#x132;" horiz-adv-x="726" 
d="M155 708v-708h-57v708h57zM264 116l52 15q13 -44 46 -71.5t80 -27.5q135 0 135 173v503h57v-507q0 -42 -9.5 -78.5t-29.5 -69.5t-58 -52t-90 -19q-70 0 -119 37.5t-64 96.5z" />
    <glyph glyph-name="ij" unicode="&#x133;" horiz-adv-x="485" 
d="M218 -234l8 45q20 -5 37 -5q45 0 59.5 27.5t14.5 79.5v553h54v-560q0 -68 -28 -107t-99 -39q-29 0 -46 6zM94 0v466h55v-466h-55zM121 610q-16 0 -28 12t-12 29t12 29t28 12t28.5 -12t12.5 -29t-12.5 -29t-28.5 -12zM364 610q-16 0 -28.5 12t-12.5 29t12.5 29t28.5 12
t28 -12t12 -29t-12 -29t-28 -12z" />
    <glyph glyph-name="Jcircumflex" unicode="&#x134;" horiz-adv-x="488" 
d="M26 116l53 15q12 -44 45 -71.5t80 -27.5q135 0 135 173v503h57v-507q0 -42 -9 -78.5t-29.5 -69.5t-58 -52t-89.5 -19q-71 0 -120 37.5t-64 96.5zM398 908l107 -144h-53l-86 115l-86 -115h-53l107 144h64z" />
    <glyph glyph-name="jcircumflex" unicode="&#x135;" horiz-adv-x="244" 
d="M-24 -234l8 45q20 -5 38 -5q44 0 58.5 27.5t14.5 79.5v553h54v-560q0 -68 -28 -107t-98 -39q-30 0 -47 6zM153 708l107 -144h-53l-86 115l-86 -115h-53l107 144h64z" />
    <glyph glyph-name="Kcommaaccent" unicode="&#x136;" horiz-adv-x="609" 
d="M155 708v-320l343 320h82l-358 -322l377 -386h-83l-361 378v-378h-57v708h57zM369 -45l-71 -185h-45l59 185h57z" />
    <glyph glyph-name="kcommaaccent" unicode="&#x137;" horiz-adv-x="491" 
d="M149 756v-502h3l222 212h78l-238 -214l263 -252h-80l-245 245h-3v-245h-54v756h54zM310 -44l-71 -185h-45l59 185h57z" />
    <glyph glyph-name="kgreenlandic" unicode="&#x138;" horiz-adv-x="491" 
d="M149 466v-212h3l222 212h78l-238 -214l263 -252h-80l-245 245h-3v-245h-54v466h54z" />
    <glyph glyph-name="Lacute" unicode="&#x139;" horiz-adv-x="506" 
d="M155 708v-657h336v-51h-393v708h57zM275 908l-126 -144h-47l101 144h72z" />
    <glyph glyph-name="lacute" unicode="&#x13a;" horiz-adv-x="244" 
d="M149 756v-756h-54v756h54zM269 936l-126 -144h-47l101 144h72z" />
    <glyph glyph-name="Lcommaaccent" unicode="&#x13b;" horiz-adv-x="506" 
d="M155 708v-657h336v-51h-393v708h57zM335 -45l-70 -185h-45l58 185h57z" />
    <glyph glyph-name="lcommaaccent" unicode="&#x13c;" horiz-adv-x="244" 
d="M149 756v-756h-54v756h54zM167 -44l-71 -185h-45l59 185h57z" />
    <glyph glyph-name="Lcaron" unicode="&#x13d;" horiz-adv-x="506" 
d="M155 708v-657h336v-51h-393v708h57zM348 708l-70 -185h-45l59 185h56z" />
    <glyph glyph-name="lcaron" unicode="&#x13e;" horiz-adv-x="278" 
d="M149 756v-756h-54v756h54zM321 708l-70 -185h-45l58 185h57z" />
    <glyph glyph-name="Ldot" unicode="&#x13f;" horiz-adv-x="506" 
d="M155 708v-657h336v-51h-393v708h57zM355 431q0 -17 -12 -29t-28 -12t-28.5 12t-12.5 29t12.5 29t28.5 12t28 -12t12 -29z" />
    <glyph glyph-name="ldot" unicode="&#x140;" horiz-adv-x="291" 
d="M149 756v-756h-54v756h54zM289 461q0 -17 -12.5 -29t-28.5 -12t-28.5 12t-12.5 29t12.5 29t28.5 12t28.5 -12t12.5 -29z" />
    <glyph glyph-name="Lslash" unicode="&#x141;" horiz-adv-x="506" 
d="M155 708v-364l213 186v-56l-213 -187v-236h336v-51h-393v247l-77 -67v57l77 67v404h57z" />
    <glyph glyph-name="lslash" unicode="&#x142;" horiz-adv-x="244" 
d="M149 756v-314l79 78v-58l-79 -78v-384h-53v340l-76 -76v59l76 76v357h53z" />
    <glyph glyph-name="Nacute" unicode="&#x143;" horiz-adv-x="768" 
d="M170 708l441 -626h2v626h57v-708h-72l-441 630h-2v-630h-57v708h72zM524 908l-126 -144h-47l101 144h72z" />
    <glyph glyph-name="nacute" unicode="&#x144;" horiz-adv-x="578" 
d="M90 466h52q4 -52 4 -93h2q20 47 67 76t100 29q87 0 130.5 -53t43.5 -141v-284h-54v264q0 168 -132 168q-65 0 -109.5 -51t-44.5 -144v-237h-55v359q0 66 -4 107zM426 708l-126 -144h-47l101 144h72z" />
    <glyph glyph-name="Ncommaaccent" unicode="&#x145;" horiz-adv-x="768" 
d="M170 708l441 -626h2v626h57v-708h-72l-441 630h-2v-630h-57v708h72zM418 -45l-70 -185h-46l59 185h57z" />
    <glyph glyph-name="ncommaaccent" unicode="&#x146;" horiz-adv-x="578" 
d="M90 466h52q4 -52 4 -93h2q20 47 67 76t100 29q87 0 130.5 -53t43.5 -141v-284h-54v264q0 168 -132 168q-65 0 -109.5 -51t-44.5 -144v-237h-55v359q0 66 -4 107zM334 -45l-71 -185h-45l59 185h57z" />
    <glyph glyph-name="Ncaron" unicode="&#x147;" horiz-adv-x="768" 
d="M170 708l441 -626h2v626h57v-708h-72l-441 630h-2v-630h-57v708h72zM523 908l-107 -144h-64l-107 144h53l86 -115l86 115h53z" />
    <glyph glyph-name="ncaron" unicode="&#x148;" horiz-adv-x="578" 
d="M90 466h52q4 -52 4 -93h2q20 47 67 76t100 29q87 0 130.5 -53t43.5 -141v-284h-54v264q0 168 -132 168q-65 0 -109.5 -51t-44.5 -144v-237h-55v359q0 66 -4 107zM432 708l-107 -144h-64l-107 144h53l86 -115l86 115h53z" />
    <glyph glyph-name="Eng" unicode="&#x14a;" horiz-adv-x="768" 
d="M98 0v708h72l441 -612h2v612h57v-802q0 -68 -28 -107t-98 -39q-30 0 -47 6l8 45q20 -5 38 -5q44 0 58.5 27.5t14.5 79.5v77l-459 640h-2v-630h-57z" />
    <glyph glyph-name="eng" unicode="&#x14b;" horiz-adv-x="578" 
d="M316 -234l8 45q20 -5 38 -5q44 0 58.5 27.5t14.5 79.5v351q0 169 -132 169q-65 0 -109.5 -51.5t-44.5 -144.5v-237h-55v359q0 66 -4 107h52q4 -52 4 -93h2q20 47 67 76t100 29q87 0 130.5 -53t43.5 -141v-378q0 -68 -28 -107t-98 -39q-30 0 -47 6z" />
    <glyph glyph-name="Omacron" unicode="&#x14c;" horiz-adv-x="857" 
d="M796 354q0 -162 -104.5 -267.5t-263.5 -105.5q-158 0 -262.5 105.5t-104.5 267.5t104.5 267.5t262.5 105.5q159 0 263.5 -105.5t104.5 -267.5zM736 354q0 135 -85.5 228.5t-222.5 93.5t-222 -93.5t-85 -228.5t85 -228.5t222 -93.5q138 0 223 93.5t85 228.5zM560 850v-44
h-258v44h258z" />
    <glyph glyph-name="omacron" unicode="&#x14d;" horiz-adv-x="609" 
d="M550 233q0 -106 -69 -176t-177 -70q-107 0 -176 70t-69 176q0 107 68.5 176t176.5 69t177 -69t69 -176zM494 233q0 85 -52 141.5t-138 56.5q-85 0 -137 -56.5t-52 -141.5t52 -141t137 -56q86 0 138 56t52 141zM434 650v-44h-258v44h258z" />
    <glyph glyph-name="Obreve" unicode="&#x14e;" horiz-adv-x="857" 
d="M796 354q0 -162 -104.5 -267.5t-263.5 -105.5q-158 0 -262.5 105.5t-104.5 267.5t104.5 267.5t262.5 105.5q159 0 263.5 -105.5t104.5 -267.5zM736 354q0 135 -85.5 228.5t-222.5 93.5t-222 -93.5t-85 -228.5t85 -228.5t222 -93.5q138 0 223 93.5t85 228.5zM535 905h36
q-5 -61 -43.5 -95.5t-97.5 -34.5t-97 34.5t-43 95.5h37q7 -41 35.5 -63.5t67.5 -22.5q89 0 105 86z" />
    <glyph glyph-name="obreve" unicode="&#x14f;" horiz-adv-x="609" 
d="M550 233q0 -106 -69 -176t-177 -70q-107 0 -176 70t-69 176q0 107 68.5 176t176.5 69t177 -69t69 -176zM494 233q0 85 -52 141.5t-138 56.5q-85 0 -137 -56.5t-52 -141.5t52 -141t137 -56q86 0 138 56t52 141zM410 705h36q-5 -61 -43.5 -95.5t-97.5 -34.5t-97 34.5
t-43 95.5h37q7 -41 35.5 -63.5t67.5 -22.5q89 0 105 86z" />
    <glyph glyph-name="Ohungarumlaut" unicode="&#x150;" horiz-adv-x="857" 
d="M796 354q0 -162 -104.5 -267.5t-263.5 -105.5q-158 0 -262.5 105.5t-104.5 267.5t104.5 267.5t262.5 105.5q159 0 263.5 -105.5t104.5 -267.5zM736 354q0 135 -85.5 228.5t-222.5 93.5t-222 -93.5t-85 -228.5t85 -228.5t222 -93.5q138 0 223 93.5t85 228.5zM326 764
l101 144h72l-126 -144h-47zM480 764l101 144h72l-126 -144h-47z" />
    <glyph glyph-name="ohungarumlaut" unicode="&#x151;" horiz-adv-x="609" 
d="M550 233q0 -106 -69 -176t-177 -70q-107 0 -176 70t-69 176q0 107 68.5 176t176.5 69t177 -69t69 -176zM494 233q0 85 -52 141.5t-138 56.5q-85 0 -137 -56.5t-52 -141.5t52 -141t137 -56q86 0 138 56t52 141zM206 564l101 144h72l-126 -144h-47zM360 564l101 144h72
l-126 -144h-47z" />
    <glyph glyph-name="OE" unicode="&#x152;" horiz-adv-x="988" 
d="M449 708h476v-51h-339v-264h316v-50h-316v-292h352v-51h-489q-73 0 -139.5 22t-120.5 64.5t-86 112t-32 155.5t32 155.5t86 112t120.5 64.5t139.5 22zM464 657q-154 0 -243.5 -85t-89.5 -218t89 -218t244 -85h65v606h-65z" />
    <glyph glyph-name="oe" unicode="&#x153;" horiz-adv-x="999" 
d="M303 -13q-107 0 -176 70t-69 176q0 107 69 176t176 69q74 0 130 -34t86 -93q28 59 81 93t120 34q105 0 163.5 -65.5t58.5 -162.5q0 -20 -1 -28h-396q2 -77 53 -132.5t130 -55.5q50 0 90.5 22.5t65.5 59.5l40 -32q-75 -97 -197 -97q-70 0 -124.5 34.5t-82.5 94.5
q-30 -60 -86.5 -94.5t-130.5 -34.5zM494 233q0 85 -52.5 142.5t-138.5 57.5q-85 0 -137.5 -57.5t-52.5 -142.5t52.5 -142t137.5 -57q86 0 138.5 57t52.5 142zM548 265h339q-3 75 -47 121.5t-119 46.5t-122.5 -52t-50.5 -116z" />
    <glyph glyph-name="Racute" unicode="&#x154;" horiz-adv-x="598" 
d="M155 339v-339h-57v708h204q236 0 236 -185q0 -80 -54 -127t-134 -53l209 -343h-69l-202 339h-133zM155 659v-271h139q90 0 138.5 34.5t48.5 100.5q0 136 -188 136h-138zM406 908l-126 -144h-47l101 144h72z" />
    <glyph glyph-name="racute" unicode="&#x155;" horiz-adv-x="347" 
d="M94 359q0 66 -4 107h52q4 -52 4 -93h2q19 49 60.5 77t92.5 28q25 0 37 -4l-6 -50q-14 4 -38 4q-65 0 -105 -51t-40 -138v-239h-55v359zM292 708l-126 -144h-47l101 144h72z" />
    <glyph glyph-name="Rcommaaccent" unicode="&#x156;" horiz-adv-x="598" 
d="M155 339v-339h-57v708h204q236 0 236 -185q0 -80 -54 -127t-134 -53l209 -343h-69l-202 339h-133zM155 659v-271h139q90 0 138.5 34.5t48.5 100.5q0 136 -188 136h-138zM353 -45l-71 -185h-45l59 185h57z" />
    <glyph glyph-name="rcommaaccent" unicode="&#x157;" horiz-adv-x="347" 
d="M94 359q0 66 -4 107h52q4 -52 4 -93h2q19 49 60.5 77t92.5 28q25 0 37 -4l-6 -50q-14 4 -38 4q-65 0 -105 -51t-40 -138v-239h-55v359zM166 -45l-71 -185h-45l59 185h57z" />
    <glyph glyph-name="Rcaron" unicode="&#x158;" horiz-adv-x="598" 
d="M155 339v-339h-57v708h204q236 0 236 -185q0 -80 -54 -127t-134 -53l209 -343h-69l-202 339h-133zM155 659v-271h139q90 0 138.5 34.5t48.5 100.5q0 136 -188 136h-138zM421 908l-107 -144h-64l-107 144h53l86 -115l86 115h53z" />
    <glyph glyph-name="rcaron" unicode="&#x159;" horiz-adv-x="347" 
d="M94 359q0 66 -4 107h52q4 -52 4 -93h2q19 49 60.5 77t92.5 28q25 0 37 -4l-6 -50q-14 4 -38 4q-65 0 -105 -51t-40 -138v-239h-55v359zM347 708l-107 -144h-64l-107 144h53l86 -115l86 115h53z" />
    <glyph glyph-name="Sacute" unicode="&#x15a;" horiz-adv-x="566" 
d="M491 643l-41 -37q-59 72 -156 72q-64 0 -114 -37.5t-50 -105.5q0 -42 20.5 -71t53.5 -45t72.5 -29t79 -28t72.5 -35.5t53.5 -57.5t20.5 -88q0 -96 -67 -148t-159 -52q-136 0 -214 102l40 35q74 -87 174 -87q67 0 117.5 39.5t50.5 107.5q0 42 -20.5 71.5t-53 46.5
t-72.5 30.5t-79.5 28.5t-72 35.5t-53 57t-20.5 87.5q0 92 67 142t157 50q130 0 194 -84zM422 908l-126 -144h-47l101 144h72z" />
    <glyph glyph-name="sacute" unicode="&#x15b;" horiz-adv-x="435" 
d="M379 399l-42 -30q-38 64 -117 64q-42 0 -73.5 -20.5t-31.5 -60.5q0 -38 27 -56.5t90 -32.5q78 -17 117 -48t39 -86q0 -70 -49.5 -105.5t-119.5 -35.5q-118 0 -177 87l43 31q21 -32 56.5 -52t77.5 -20q48 0 81.5 22.5t33.5 68.5q0 35 -28 55t-68 29.5t-79.5 21t-67.5 40.5
t-28 77q0 64 46.5 97t112.5 33q52 0 93.5 -20.5t63.5 -58.5zM359 708l-126 -144h-47l101 144h72z" />
    <glyph glyph-name="Scircumflex" unicode="&#x15c;" horiz-adv-x="566" 
d="M491 643l-41 -37q-59 72 -156 72q-64 0 -114 -37.5t-50 -105.5q0 -42 20.5 -71t53.5 -45t72.5 -29t79 -28t72.5 -35.5t53.5 -57.5t20.5 -88q0 -96 -67 -148t-159 -52q-136 0 -214 102l40 35q74 -87 174 -87q67 0 117.5 39.5t50.5 107.5q0 42 -20.5 71.5t-53 46.5
t-72.5 30.5t-79.5 28.5t-72 35.5t-53 57t-20.5 87.5q0 92 67 142t157 50q130 0 194 -84zM327 908l107 -144h-53l-86 115l-86 -115h-53l107 144h64z" />
    <glyph glyph-name="scircumflex" unicode="&#x15d;" horiz-adv-x="435" 
d="M379 399l-42 -30q-38 64 -117 64q-42 0 -73.5 -20.5t-31.5 -60.5q0 -38 27 -56.5t90 -32.5q78 -17 117 -48t39 -86q0 -70 -49.5 -105.5t-119.5 -35.5q-118 0 -177 87l43 31q21 -32 56.5 -52t77.5 -20q48 0 81.5 22.5t33.5 68.5q0 35 -28 55t-68 29.5t-79.5 21t-67.5 40.5
t-28 77q0 64 46.5 97t112.5 33q52 0 93.5 -20.5t63.5 -58.5zM257 708l107 -144h-53l-86 115l-86 -115h-53l107 144h64z" />
    <glyph glyph-name="Scedilla" unicode="&#x15e;" horiz-adv-x="566" 
d="M491 643l-41 -37q-59 72 -156 72q-64 0 -114 -37.5t-50 -105.5q0 -42 20.5 -71t53.5 -45t72.5 -29t79 -28t72.5 -35.5t53.5 -57.5t20.5 -88q0 -91 -60 -142t-147 -57l-38 -60q15 5 40 5q33 0 58.5 -18.5t25.5 -52.5q0 -45 -35 -65t-81 -20q-50 0 -93 20l13 31
q33 -16 76 -16q26 0 49 12t23 37q0 43 -60 43q-28 0 -51 -10l-15 13l52 81q-124 6 -197 101l40 35q74 -87 174 -87q67 0 117.5 39.5t50.5 107.5q0 42 -20.5 71.5t-53 46.5t-72.5 30.5t-79.5 28.5t-72 35.5t-53 57t-20.5 87.5q0 92 67 142t157 50q130 0 194 -84z" />
    <glyph glyph-name="scedilla" unicode="&#x15f;" horiz-adv-x="435" 
d="M379 399l-42 -30q-38 64 -117 64q-42 0 -73.5 -20.5t-31.5 -60.5q0 -38 27 -56.5t90 -32.5q78 -17 117 -48t39 -86q0 -64 -42 -99t-105 -41l-43 -67q15 5 40 5q33 0 58.5 -18.5t25.5 -52.5q0 -45 -35 -65t-81 -20q-50 0 -93 20l13 31q33 -16 76 -16q26 0 49 12t23 37
q0 43 -60 43q-28 0 -51 -10l-15 13l56 88q-108 5 -162 86l43 31q21 -32 56.5 -52t77.5 -20q48 0 81.5 22.5t33.5 68.5q0 35 -28 55t-68 29.5t-79.5 21t-67.5 40.5t-28 77q0 64 46.5 97t112.5 33q52 0 93.5 -20.5t63.5 -58.5z" />
    <glyph glyph-name="Scaron" unicode="&#x160;" horiz-adv-x="566" 
d="M491 643l-41 -37q-59 72 -156 72q-64 0 -114 -37.5t-50 -105.5q0 -42 20.5 -71t53.5 -45t72.5 -29t79 -28t72.5 -35.5t53.5 -57.5t20.5 -88q0 -96 -67 -148t-159 -52q-136 0 -214 102l40 35q74 -87 174 -87q67 0 117.5 39.5t50.5 107.5q0 42 -20.5 71.5t-53 46.5
t-72.5 30.5t-79.5 28.5t-72 35.5t-53 57t-20.5 87.5q0 92 67 142t157 50q130 0 194 -84zM428 908l-107 -144h-64l-107 144h53l86 -115l86 115h53z" />
    <glyph glyph-name="scaron" unicode="&#x161;" horiz-adv-x="435" 
d="M379 399l-42 -30q-38 64 -117 64q-42 0 -73.5 -20.5t-31.5 -60.5q0 -38 27 -56.5t90 -32.5q78 -17 117 -48t39 -86q0 -70 -49.5 -105.5t-119.5 -35.5q-118 0 -177 87l43 31q21 -32 56.5 -52t77.5 -20q48 0 81.5 22.5t33.5 68.5q0 35 -28 55t-68 29.5t-79.5 21t-67.5 40.5
t-28 77q0 64 46.5 97t112.5 33q52 0 93.5 -20.5t63.5 -58.5zM364 708l-107 -144h-64l-107 144h53l86 -115l86 115h53z" />
    <glyph glyph-name="uni0162" unicode="&#x162;" horiz-adv-x="561" 
d="M309 657v-657h-57v657h-238v51h533v-51h-238zM325 -45l-70 -185h-45l58 185h57z" />
    <glyph glyph-name="uni0163" unicode="&#x163;" horiz-adv-x="313" 
d="M294 466v-46h-133v-295q0 -47 19 -66.5t55 -19.5q29 0 57 13l3 -47q-36 -13 -74 -13q-49 0 -81.5 28.5t-32.5 91.5v308h-98v46h97v133h55v-133h133zM239 -45l-70 -185h-45l58 185h57z" />
    <glyph glyph-name="Tcaron" unicode="&#x164;" horiz-adv-x="561" 
d="M309 657v-657h-57v657h-238v51h533v-51h-238zM419 908l-107 -144h-64l-107 144h53l86 -115l86 115h53z" />
    <glyph glyph-name="tcaron" unicode="&#x165;" horiz-adv-x="323" 
d="M294 466v-46h-133v-295q0 -47 19 -66.5t55 -19.5q29 0 57 13l3 -47q-36 -13 -74 -13q-49 0 -81.5 28.5t-32.5 91.5v308h-98v46h97v133h55v-133h133zM341 731l-70 -185h-45l58 185h57z" />
    <glyph glyph-name="Tbar" unicode="&#x166;" horiz-adv-x="561" 
d="M69 544h183v113h-238v51h533v-51h-238v-113h176v-41h-176v-503h-57v503h-183v41z" />
    <glyph glyph-name="tbar" unicode="&#x167;" horiz-adv-x="313" 
d="M17 303h90v117h-98v46h97v133h55v-133h133v-46h-133v-117h122v-40h-122v-138q0 -47 19 -66.5t55 -19.5q29 0 57 13l3 -47q-36 -13 -74 -13q-49 0 -81.5 28.5t-32.5 91.5v151h-90v40z" />
    <glyph glyph-name="Utilde" unicode="&#x168;" horiz-adv-x="717" 
d="M358 -19q-74 0 -128.5 25.5t-83 68.5t-41.5 90t-13 100v443h57v-436q0 -36 5.5 -68.5t20.5 -64.5t38 -55t60 -37.5t85 -14.5q59 0 101.5 21t65.5 56.5t33 76t10 86.5v436h57v-443q0 -53 -13 -100t-41.5 -90t-83 -68.5t-129.5 -25.5zM245 781h-35q15 94 82 94
q22 0 71 -23.5t64 -23.5q35 0 46 49h35q-15 -93 -81 -93q-23 0 -71 23.5t-64 23.5q-36 0 -47 -50z" />
    <glyph glyph-name="utilde" unicode="&#x169;" horiz-adv-x="578" 
d="M488 0h-53q-4 50 -4 92h-2q-19 -47 -66 -76t-100 -29q-88 0 -131.5 53.5t-43.5 140.5v285h55v-264q0 -169 132 -169q64 0 109 51.5t45 144.5v237h54v-359q0 -57 5 -107zM175 581h-35q15 94 82 94q22 0 71 -23.5t64 -23.5q35 0 46 49h35q-15 -93 -81 -93q-23 0 -71 23.5
t-64 23.5q-36 0 -47 -50z" />
    <glyph glyph-name="Umacron" unicode="&#x16a;" horiz-adv-x="717" 
d="M358 -19q-74 0 -128.5 25.5t-83 68.5t-41.5 90t-13 100v443h57v-436q0 -36 5.5 -68.5t20.5 -64.5t38 -55t60 -37.5t85 -14.5q59 0 101.5 21t65.5 56.5t33 76t10 86.5v436h57v-443q0 -53 -13 -100t-41.5 -90t-83 -68.5t-129.5 -25.5zM488 850v-44h-258v44h258z" />
    <glyph glyph-name="umacron" unicode="&#x16b;" horiz-adv-x="578" 
d="M488 0h-53q-4 50 -4 92h-2q-19 -47 -66 -76t-100 -29q-88 0 -131.5 53.5t-43.5 140.5v285h55v-264q0 -169 132 -169q64 0 109 51.5t45 144.5v237h54v-359q0 -57 5 -107zM416 650v-44h-258v44h258z" />
    <glyph glyph-name="Ubreve" unicode="&#x16c;" horiz-adv-x="717" 
d="M358 -19q-74 0 -128.5 25.5t-83 68.5t-41.5 90t-13 100v443h57v-436q0 -36 5.5 -68.5t20.5 -64.5t38 -55t60 -37.5t85 -14.5q59 0 101.5 21t65.5 56.5t33 76t10 86.5v436h57v-443q0 -53 -13 -100t-41.5 -90t-83 -68.5t-129.5 -25.5zM463 905h36q-5 -61 -43.5 -95.5
t-97.5 -34.5t-97 34.5t-43 95.5h37q7 -41 35.5 -63.5t67.5 -22.5q89 0 105 86z" />
    <glyph glyph-name="ubreve" unicode="&#x16d;" horiz-adv-x="578" 
d="M488 0h-53q-4 50 -4 92h-2q-19 -47 -66 -76t-100 -29q-88 0 -131.5 53.5t-43.5 140.5v285h55v-264q0 -169 132 -169q64 0 109 51.5t45 144.5v237h54v-359q0 -57 5 -107zM393 705h36q-5 -61 -43.5 -95.5t-97.5 -34.5t-97 34.5t-43 95.5h37q7 -41 35.5 -63.5t67.5 -22.5
q89 0 105 86z" />
    <glyph glyph-name="Uring" unicode="&#x16e;" horiz-adv-x="717" 
d="M358 -19q-74 0 -128.5 25.5t-83 68.5t-41.5 90t-13 100v443h57v-436q0 -36 5.5 -68.5t20.5 -64.5t38 -55t60 -37.5t85 -14.5q59 0 101.5 21t65.5 56.5t33 76t10 86.5v436h57v-443q0 -53 -13 -100t-41.5 -90t-83 -68.5t-129.5 -25.5zM456 850q0 -40 -28.5 -67.5
t-67.5 -27.5t-67.5 27.5t-28.5 67.5t28.5 67.5t67.5 27.5t67.5 -27.5t28.5 -67.5zM425 850q0 27 -19 46t-46 19t-46 -19t-19 -46t19 -46t46 -19t46 19t19 46z" />
    <glyph glyph-name="uring" unicode="&#x16f;" horiz-adv-x="578" 
d="M488 0h-53q-4 50 -4 92h-2q-19 -47 -66 -76t-100 -29q-88 0 -131.5 53.5t-43.5 140.5v285h55v-264q0 -169 132 -169q64 0 109 51.5t45 144.5v237h54v-359q0 -57 5 -107zM383 650q0 -40 -28.5 -67.5t-67.5 -27.5t-67.5 27.5t-28.5 67.5t28.5 67.5t67.5 27.5t67.5 -27.5
t28.5 -67.5zM352 650q0 27 -19 46t-46 19t-46 -19t-19 -46t19 -46t46 -19t46 19t19 46z" />
    <glyph glyph-name="Uhungarumlaut" unicode="&#x170;" horiz-adv-x="717" 
d="M358 -19q-74 0 -128.5 25.5t-83 68.5t-41.5 90t-13 100v443h57v-436q0 -36 5.5 -68.5t20.5 -64.5t38 -55t60 -37.5t85 -14.5q59 0 101.5 21t65.5 56.5t33 76t10 86.5v436h57v-443q0 -53 -13 -100t-41.5 -90t-83 -68.5t-129.5 -25.5zM251 764l101 144h72l-126 -144h-47z
M405 764l101 144h72l-126 -144h-47z" />
    <glyph glyph-name="uhungarumlaut" unicode="&#x171;" horiz-adv-x="578" 
d="M488 0h-53q-4 50 -4 92h-2q-19 -47 -66 -76t-100 -29q-88 0 -131.5 53.5t-43.5 140.5v285h55v-264q0 -169 132 -169q64 0 109 51.5t45 144.5v237h54v-359q0 -57 5 -107zM181 564l101 144h72l-126 -144h-47zM335 564l101 144h72l-126 -144h-47z" />
    <glyph glyph-name="Uogonek" unicode="&#x172;" horiz-adv-x="717" 
d="M367 -18h-12q-60 0 -106.5 17.5t-75.5 45t-48 65.5t-26 76t-7 79v443h57v-436q0 -36 5.5 -68.5t20.5 -64.5t38 -55t60 -37.5t85 -14.5q59 0 101.5 21t65.5 56.5t33 76t10 86.5v436h57v-443q0 -47 -10.5 -90t-33.5 -83.5t-65.5 -68.5t-100.5 -37q-36 -37 -52 -61.5
t-16 -51.5q0 -24 15.5 -38.5t38.5 -14.5q35 0 57 24l16 -32q-35 -35 -88 -35q-36 0 -62 23.5t-26 60.5q0 56 69 121z" />
    <glyph glyph-name="uogonek" unicode="&#x173;" horiz-adv-x="578" 
d="M434 -223q-36 0 -62 23.5t-26 60.5q0 62 90 139h-1q-4 50 -4 92h-2q-19 -47 -66 -76t-100 -29q-88 0 -131.5 53.5t-43.5 140.5v285h55v-264q0 -169 132 -169q64 0 109 51.5t45 144.5v237h54v-359q0 -57 5 -107h-6q-6 -1 -7 -1q-43 -43 -61.5 -70t-18.5 -56
q0 -24 15 -38.5t39 -14.5q34 0 56 24l17 -32q-37 -35 -88 -35z" />
    <glyph glyph-name="Wcircumflex" unicode="&#x174;" horiz-adv-x="967" 
d="M78 708l184 -633h2l184 633h71l185 -633h3l182 633h60l-210 -708h-69l-186 632h-2l-185 -632h-69l-210 708h60zM515 908l107 -144h-53l-86 115l-86 -115h-53l107 144h64z" />
    <glyph glyph-name="wcircumflex" unicode="&#x175;" horiz-adv-x="732" 
d="M28 466h58l117 -398h2l133 398h55l135 -398h2l116 398h57l-144 -466h-61l-132 396h-2l-131 -396h-61zM396 708l107 -144h-53l-86 115l-86 -115h-53l107 144h64z" />
    <glyph glyph-name="Ycircumflex" unicode="&#x176;" horiz-adv-x="583" 
d="M320 306v-306h-57v306l-259 402h71l218 -353l219 353h66zM325 908l107 -144h-53l-86 115l-86 -115h-53l107 144h64z" />
    <glyph glyph-name="ycircumflex" unicode="&#x177;" horiz-adv-x="470" 
d="M84 -241q-25 0 -55 7l7 49q21 -8 46 -8q34 0 54.5 21.5t36.5 63.5l40 105l-195 469h61l162 -411l2 2l150 409h59l-232 -596q-22 -55 -53 -83t-83 -28zM273 708l107 -144h-53l-86 115l-86 -115h-53l107 144h64z" />
    <glyph glyph-name="Ydieresis" unicode="&#x178;" horiz-adv-x="583" 
d="M320 306v-306h-57v306l-259 402h71l218 -353l219 353h66zM160 851q0 17 12.5 30t30.5 13t30 -13t12 -30q0 -18 -12 -31t-30 -13t-30.5 13t-12.5 31zM341 851q0 17 12 30t30 13t30.5 -13t12.5 -30q0 -18 -12.5 -31t-30.5 -13t-30 13t-12 31z" />
    <glyph glyph-name="Zacute" unicode="&#x179;" horiz-adv-x="579" 
d="M536 708v-51l-428 -606h436v-51h-506v50l429 607h-418v51h487zM425 908l-126 -144h-47l101 144h72z" />
    <glyph glyph-name="zacute" unicode="&#x17a;" horiz-adv-x="441" 
d="M393 466v-41l-286 -378h297v-47h-368v40l287 380h-272v46h342zM359 708l-126 -144h-47l101 144h72z" />
    <glyph glyph-name="Zdotaccent" unicode="&#x17b;" horiz-adv-x="579" 
d="M536 708v-51l-428 -606h436v-51h-506v50l429 607h-418v51h487zM332 851q0 -17 -12.5 -29t-28.5 -12t-28.5 12t-12.5 29t12.5 29t28.5 12t28.5 -12t12.5 -29z" />
    <glyph glyph-name="zdotaccent" unicode="&#x17c;" horiz-adv-x="441" 
d="M393 466v-41l-286 -378h297v-47h-368v40l287 380h-272v46h342zM264 651q0 -17 -12.5 -29t-28.5 -12t-28.5 12t-12.5 29t12.5 29t28.5 12t28.5 -12t12.5 -29z" />
    <glyph glyph-name="Zcaron" unicode="&#x17d;" horiz-adv-x="579" 
d="M536 708v-51l-428 -606h436v-51h-506v50l429 607h-418v51h487zM430 908l-107 -144h-64l-107 144h53l86 -115l86 115h53z" />
    <glyph glyph-name="zcaron" unicode="&#x17e;" horiz-adv-x="441" 
d="M393 466v-41l-286 -378h297v-47h-368v40l287 380h-272v46h342zM363 708l-107 -144h-64l-107 144h53l86 -115l86 115h53z" />
    <glyph glyph-name="florin" unicode="&#x192;" horiz-adv-x="574" 
d="M429 416v-44h-120l-69 -369q-13 -65 -45 -104t-99 -39q-45 0 -72 16l22 44q22 -12 51 -12q44 0 62.5 29t28.5 83l65 352h-109v44h118l28 152q27 152 145 152q51 0 86 -26l-27 -39q-25 17 -56 17q-75 0 -95 -115l-25 -141h111z" />
    <glyph glyph-name="Scommaaccent" unicode="&#x218;" horiz-adv-x="566" 
d="M491 643l-41 -37q-59 72 -156 72q-64 0 -114 -37.5t-50 -105.5q0 -42 20.5 -71t53.5 -45t72.5 -29t79 -28t72.5 -35.5t53.5 -57.5t20.5 -88q0 -96 -67 -148t-159 -52q-136 0 -214 102l40 35q74 -87 174 -87q67 0 117.5 39.5t50.5 107.5q0 42 -20.5 71.5t-53 46.5
t-72.5 30.5t-79.5 28.5t-72 35.5t-53 57t-20.5 87.5q0 92 67 142t157 50q130 0 194 -84zM330 -46l-71 -185h-45l59 185h57z" />
    <glyph glyph-name="scommaaccent" unicode="&#x219;" horiz-adv-x="435" 
d="M379 399l-42 -30q-38 64 -117 64q-42 0 -73.5 -20.5t-31.5 -60.5q0 -38 27 -56.5t90 -32.5q78 -17 117 -48t39 -86q0 -70 -49.5 -105.5t-119.5 -35.5q-118 0 -177 87l43 31q21 -32 56.5 -52t77.5 -20q48 0 81.5 22.5t33.5 68.5q0 35 -28 55t-68 29.5t-79.5 21t-67.5 40.5
t-28 77q0 64 46.5 97t112.5 33q52 0 93.5 -20.5t63.5 -58.5zM261 -46l-71 -185h-45l59 185h57z" />
    <glyph glyph-name="uni021A" unicode="&#x21a;" horiz-adv-x="561" 
d="M309 657v-657h-57v657h-238v51h533v-51h-238zM325 -45l-70 -185h-45l58 185h57z" />
    <glyph glyph-name="uni021B" unicode="&#x21b;" horiz-adv-x="313" 
d="M294 466v-46h-133v-295q0 -47 19 -66.5t55 -19.5q29 0 57 13l3 -47q-36 -13 -74 -13q-49 0 -81.5 28.5t-32.5 91.5v308h-98v46h97v133h55v-133h133zM239 -45l-70 -185h-45l58 185h57z" />
    <glyph glyph-name="dotlessj" unicode="&#x237;" horiz-adv-x="244" 
d="M-24 -234l8 45q20 -5 38 -5q44 0 58.5 27.5t14.5 79.5v553h54v-560q0 -68 -28 -107t-98 -39q-30 0 -47 6z" />
    <glyph glyph-name="circumflex" unicode="&#x2c6;" 
d="M152 708l107 -144h-53l-86 115l-86 -115h-53l107 144h64z" />
    <glyph glyph-name="caron" unicode="&#x2c7;" 
d="M259 708l-107 -144h-64l-107 144h53l86 -115l86 115h53z" />
    <glyph glyph-name="uni02C9" unicode="&#x2c9;" 
d="M249 850v-44h-258v44h258z" />
    <glyph glyph-name="breve" unicode="&#x2d8;" 
d="M224 705h36q-5 -61 -43.5 -95.5t-97.5 -34.5t-97 34.5t-43 95.5h37q7 -41 35.5 -63.5t67.5 -22.5q89 0 105 86z" />
    <glyph glyph-name="dotaccent" unicode="&#x2d9;" 
d="M161 651q0 -17 -12.5 -29t-28.5 -12t-28.5 12t-12.5 29t12.5 29t28.5 12t28.5 -12t12.5 -29z" />
    <glyph glyph-name="ring" unicode="&#x2da;" 
d="M216 650q0 -40 -28.5 -67.5t-67.5 -27.5t-67.5 27.5t-28.5 67.5t28.5 67.5t67.5 27.5t67.5 -27.5t28.5 -67.5zM185 650q0 27 -19 46t-46 19t-46 -19t-19 -46t19 -46t46 -19t46 19t19 46z" />
    <glyph glyph-name="ogonek" unicode="&#x2db;" 
d="M192 -156l17 -32q-37 -35 -88 -35q-36 0 -62 23.5t-26 60.5q0 62 90 139h40q-44 -45 -62.5 -72t-18.5 -55q0 -24 15.5 -38.5t38.5 -14.5q35 0 56 24z" />
    <glyph glyph-name="tilde" unicode="&#x2dc;" 
d="M6 581h-35q15 94 82 94q22 0 71 -23.5t64 -23.5q35 0 46 49h35q-15 -93 -81 -93q-23 0 -71 23.5t-64 23.5q-36 0 -47 -50z" />
    <glyph glyph-name="hungarumlaut" unicode="&#x2dd;" 
d="M-30 564l101 144h72l-126 -144h-47zM124 564l101 144h72l-126 -144h-47z" />
    <glyph glyph-name="uni0394" unicode="&#x394;" horiz-adv-x="666" 
d="M646 0h-624l279 712h61zM570 49l-239 610l-237 -610h476z" />
    <glyph glyph-name="uni03A9" unicode="&#x3a9;" horiz-adv-x="742" 
d="M678 0h-238v175q89 16 137 82t48 159q0 110 -75 183t-185 73q-109 0 -184 -73t-75 -183q0 -94 48 -160t137 -81v-175h-238v47h195v94q-91 26 -143 102t-52 174q0 130 92 217t221 87t220.5 -86.5t91.5 -216.5q0 -99 -51.5 -175t-143.5 -102v-94h195v-47z" />
    <glyph glyph-name="uni03BC" unicode="&#x3bc;" horiz-adv-x="556" 
d="M79 -228v694h52v-264q0 -83 30 -125t103 -42q67 0 110.5 52t43.5 142v237h53v-359q0 -43 4 -107h-57v89h-2q-22 -44 -68 -73t-96 -29q-78 0 -121 46v-261h-52z" />
    <glyph glyph-name="pi" unicode="&#x3c0;" horiz-adv-x="561" 
d="M523 9q-33 -15 -60 -15q-21 0 -35 6.5t-21 14.5t-11 25t-4.5 29.5t-0.5 36.5v312h-234v-418h-51v418h-71v48h483v-48h-76v-320q0 -30 8 -44.5t34 -14.5q20 0 39 8v-38z" />
    <glyph glyph-name="uni0400" unicode="&#x400;" horiz-adv-x="591" 
d="M154 343v-292h388v-51h-444v708h431v-51h-375v-264h351v-50h-351zM317 764l-126 144h72l101 -144h-47z" />
    <glyph glyph-name="uni0401" unicode="&#x401;" horiz-adv-x="591" 
d="M183 851q0 17 12 30t30 13t30.5 -13t12.5 -30q0 -18 -12.5 -31t-30.5 -13t-30 13t-12 31zM363 851q0 17 12.5 30t30.5 13t30.5 -13t12.5 -30q0 -18 -12.5 -31t-30.5 -13t-30.5 13t-12.5 31zM98 0v708h431v-51h-375v-264h351v-50h-351v-292h388v-51h-444z" />
    <glyph glyph-name="uni0402" unicode="&#x402;" horiz-adv-x="787" 
d="M488 -9q-42 0 -80 8l9 50q30 -7 66 -7q95 0 147 40.5t52 118.5q0 80 -52.5 122t-152.5 42q-101 0 -168 -25v-340h-57v657h-238v51h533v-51h-238v-265q77 22 171 22q122 0 190.5 -54t68.5 -158q0 -103 -67.5 -157t-183.5 -54z" />
    <glyph glyph-name="uni0403" unicode="&#x403;" horiz-adv-x="503" 
d="M421 908l-126 -144h-47l101 144h72zM98 0v708h391v-51h-334v-657h-57z" />
    <glyph glyph-name="uni0404" unicode="&#x404;" horiz-adv-x="721" 
d="M427 -19q-160 0 -263 105.5t-103 267.5t104 267.5t262 105.5q76 0 142.5 -28.5t104.5 -77.5l-46 -36q-30 39 -84 65t-116 26q-127 0 -209.5 -80.5t-95.5 -202.5h369v-50h-371v-4q5 -130 89.5 -218.5t217.5 -88.5q143 0 217 104l44 -30q-40 -56 -108.5 -90.5t-153.5 -34.5
z" />
    <glyph glyph-name="uni0405" unicode="&#x405;" horiz-adv-x="566" 
d="M491 643l-41 -37q-59 72 -156 72q-64 0 -114 -37.5t-50 -105.5q0 -42 20.5 -71t53.5 -45t72.5 -29t79 -28t72.5 -35.5t53.5 -57.5t20.5 -88q0 -96 -67 -148t-159 -52q-136 0 -214 102l40 35q74 -87 174 -87q67 0 117.5 39.5t50.5 107.5q0 42 -20.5 71.5t-53 46.5
t-72.5 30.5t-79.5 28.5t-72 35.5t-53 57t-20.5 87.5q0 92 67 142t157 50q130 0 194 -84z" />
    <glyph glyph-name="uni0406" unicode="&#x406;" horiz-adv-x="252" 
d="M98 0v708h57v-708h-57z" />
    <glyph glyph-name="uni0407" unicode="&#x407;" horiz-adv-x="252" 
d="M-7 851q0 17 12.5 30t30.5 13t30 -13t12 -30q0 -18 -12 -31t-30 -13t-30.5 13t-12.5 31zM174 851q0 17 12 30t30 13t30.5 -13t12.5 -30q0 -18 -12.5 -31t-30.5 -13t-30 13t-12 31zM98 0v708h57v-708h-57z" />
    <glyph glyph-name="uni0408" unicode="&#x408;" horiz-adv-x="488" 
d="M210 -18q-71 0 -120 37.5t-64 96.5l53 15q12 -44 45 -71.5t80 -27.5q135 0 135 173v503h57v-507q0 -42 -9 -78.5t-29.5 -69.5t-58 -52t-89.5 -19z" />
    <glyph glyph-name="uni0409" unicode="&#x409;" horiz-adv-x="1078" 
d="M64 -7q-35 0 -60 8l10 51q28 -7 42 -7q95 0 133.5 117.5t38.5 389.5v156h415v-312h143q109 0 176.5 -51t67.5 -149t-68 -147t-179 -49h-197v658h-302v-131q0 -273 -49 -403.5t-171 -130.5zM643 49h134q89 0 142 36t53 110t-51 112.5t-139 38.5h-139v-297z" />
    <glyph glyph-name="uni040A" unicode="&#x40a;" horiz-adv-x="1059" 
d="M98 0v708h57v-312h413v312h57v-312h142q109 0 176.5 -51t67.5 -149t-68 -147t-179 -49h-196v346h-413v-346h-57zM625 49h134q89 0 141.5 35.5t52.5 110.5q0 74 -51 112.5t-139 38.5h-138v-297z" />
    <glyph glyph-name="uni040B" unicode="&#x40b;" horiz-adv-x="787" 
d="M252 0v657h-238v51h533v-51h-238v-265q79 22 170 22q223 0 223 -183v-231h-57v226q0 64 -39.5 101t-124.5 37q-107 0 -172 -23v-341h-57z" />
    <glyph glyph-name="uni040C" unicode="&#x40c;" horiz-adv-x="609" 
d="M454 908l-126 -144h-47l101 144h72zM98 0v708h57v-320l343 320h82l-358 -322l377 -386h-83l-361 378v-378h-57z" />
    <glyph glyph-name="uni040D" unicode="&#x40d;" horiz-adv-x="737" 
d="M362 764l-126 144h72l101 -144h-47zM98 0v708h57v-621h2l416 621h67v-708h-57v625h-3l-416 -625h-66z" />
    <glyph glyph-name="uni040E" unicode="&#x40e;" horiz-adv-x="619" 
d="M124 -7q-33 0 -57 6l10 53q21 -7 47 -7q63 0 106 79l53 98l-276 486h66l242 -428l234 428h63l-333 -604q-31 -56 -66 -83.5t-89 -27.5zM314 775q-58 0 -95.5 34.5t-44.5 90.5l38 7q7 -42 35 -65t67 -23t67 23t35 65l38 -7q-7 -56 -44.5 -90.5t-95.5 -34.5z" />
    <glyph glyph-name="uni040F" unicode="&#x40f;" horiz-adv-x="719" 
d="M332 -178v178h-234v708h57v-657h410v657h57v-708h-235v-178h-55z" />
    <glyph glyph-name="uni0410" unicode="&#x410;" horiz-adv-x="690" 
d="M12 0l307 708h57l301 -708h-63l-80 191h-379l-80 -191h-63zM176 243h337l-167 405z" />
    <glyph glyph-name="uni0411" unicode="&#x411;" horiz-adv-x="622" 
d="M98 0v708h410v-51h-353v-261h157q109 0 176.5 -51t67.5 -149t-68 -147t-179 -49h-211zM155 49h149q89 0 141.5 35.5t52.5 110.5q0 74 -51 112.5t-139 38.5h-153v-297z" />
    <glyph glyph-name="uni0412" unicode="&#x412;" horiz-adv-x="629" 
d="M98 0v708h205q44 0 81.5 -8.5t71.5 -27.5t53.5 -55t19.5 -86q0 -60 -36.5 -101.5t-94.5 -54.5v-2q69 -7 117 -54t48 -125q0 -93 -70.5 -143.5t-182.5 -50.5h-212zM155 49h149q89 0 145 36t56 111t-52 112.5t-137 37.5h-161v-297zM155 394h152q67 0 115.5 32.5t48.5 100.5
t-50 100t-129 32h-137v-265z" />
    <glyph glyph-name="uni0413" unicode="&#x413;" horiz-adv-x="503" 
d="M98 0v708h391v-51h-334v-657h-57z" />
    <glyph glyph-name="uni0414" unicode="&#x414;" horiz-adv-x="744" 
d="M17 -178v229h56q128 131 128 462v195h426v-657h81v-229h-55v178h-582v-178h-54zM145 51h425v606h-313v-144q0 -325 -112 -462z" />
    <glyph glyph-name="uni0415" unicode="&#x415;" horiz-adv-x="591" 
d="M98 0v708h431v-51h-375v-264h351v-50h-351v-292h388v-51h-444z" />
    <glyph glyph-name="uni0416" unicode="&#x416;" horiz-adv-x="942" 
d="M10 0l365 386l-346 322h82l331 -320v320h57v-320l332 320h82l-346 -322l365 -386h-83l-350 378v-378h-57v378l-349 -378h-83z" />
    <glyph glyph-name="uni0417" unicode="&#x417;" horiz-adv-x="575" 
d="M264 -19q-141 0 -223 100l39 34q76 -84 185 -84q75 0 129 45.5t54 118.5q0 75 -57.5 113t-142.5 38h-46v50h43q80 0 130.5 35.5t50.5 108.5q0 60 -47 99t-114 39q-89 0 -160 -71l-35 35q80 85 193 85q99 0 158 -50t59 -139q0 -63 -37 -107t-95 -57v-2q68 -12 113 -59.5
t45 -117.5q0 -97 -69.5 -155.5t-172.5 -58.5z" />
    <glyph glyph-name="uni0418" unicode="&#x418;" horiz-adv-x="737" 
d="M98 0v708h57v-621h2l416 621h67v-708h-57v625h-3l-416 -625h-66z" />
    <glyph glyph-name="uni0419" unicode="&#x419;" horiz-adv-x="737" 
d="M98 0v708h57v-621h2l416 621h67v-708h-57v625h-3l-416 -625h-66zM368 775q-58 0 -95.5 34.5t-44.5 90.5l38 7q7 -42 35 -65t67 -23t67 23t35 65l38 -7q-7 -56 -44.5 -90.5t-95.5 -34.5z" />
    <glyph glyph-name="uni041A" unicode="&#x41a;" horiz-adv-x="609" 
d="M98 0v708h57v-320l343 320h82l-358 -322l377 -386h-83l-361 378v-378h-57z" />
    <glyph glyph-name="uni041B" unicode="&#x41b;" horiz-adv-x="741" 
d="M64 -7q-35 0 -60 8l10 51q28 -7 42 -7q95 0 133.5 117.5t38.5 389.5v156h415v-708h-57v658h-302v-131q0 -273 -49 -403.5t-171 -130.5z" />
    <glyph glyph-name="uni041C" unicode="&#x41c;" horiz-adv-x="892" 
d="M98 0v708h88l261 -613l259 613h88v-708h-57v635h-2l-273 -635h-32l-273 635h-2v-635h-57z" />
    <glyph glyph-name="uni041D" unicode="&#x41d;" horiz-adv-x="722" 
d="M98 0v708h57v-314h413v314h57v-708h-57v341h-413v-341h-57z" />
    <glyph glyph-name="uni041E" unicode="&#x41e;" horiz-adv-x="857" 
d="M428 -19q-158 0 -262.5 105.5t-104.5 267.5t104.5 267.5t262.5 105.5q159 0 263.5 -105.5t104.5 -267.5t-104.5 -267.5t-263.5 -105.5zM428 32q138 0 223 93.5t85 228.5t-85.5 228.5t-222.5 93.5t-222 -93.5t-85 -228.5t85 -228.5t222 -93.5z" />
    <glyph glyph-name="uni041F" unicode="&#x41f;" horiz-adv-x="719" 
d="M98 0v708h524v-708h-57v657h-410v-657h-57z" />
    <glyph glyph-name="uni0420" unicode="&#x420;" horiz-adv-x="578" 
d="M98 0v708h197q105 0 169 -46t64 -139q0 -91 -63 -140t-167 -49h-143v-334h-57zM155 383h140q81 0 128.5 35.5t47.5 104.5t-48 102.5t-129 33.5h-139v-276z" />
    <glyph glyph-name="uni0421" unicode="&#x421;" horiz-adv-x="721" 
d="M645 136l39 -31q-95 -124 -258 -124q-159 0 -262 105.5t-103 267.5t104 267.5t262 105.5q78 0 142 -27t102 -76l-41 -38q-32 40 -85.5 65t-116.5 25q-138 0 -222.5 -93.5t-84.5 -228.5t84.5 -228.5t222.5 -93.5q133 0 217 104z" />
    <glyph glyph-name="uni0422" unicode="&#x422;" horiz-adv-x="561" 
d="M252 0v657h-238v51h533v-51h-238v-657h-57z" />
    <glyph glyph-name="uni0423" unicode="&#x423;" horiz-adv-x="619" 
d="M124 -7q-33 0 -57 6l10 53q21 -7 47 -7q63 0 106 79l53 98l-276 486h66l242 -428l234 428h63l-333 -604q-31 -56 -66 -83.5t-89 -27.5z" />
    <glyph glyph-name="uni0424" unicode="&#x424;" horiz-adv-x="823" 
d="M383 -19v85q-147 2 -238 83.5t-91 215.5q0 137 91 215.5t238 82.5v64h57v-64q148 -4 238.5 -82.5t90.5 -215.5q0 -134 -90.5 -215.5t-238.5 -83.5v-85h-57zM383 116v497q-125 -4 -197 -71t-72 -178q0 -112 71.5 -177t197.5 -71zM440 116q126 6 198 71t72 177
q0 111 -72 178t-198 71v-497z" />
    <glyph glyph-name="uni0425" unicode="&#x425;" horiz-adv-x="631" 
d="M23 0l257 372l-234 336h71l200 -296l199 296h67l-232 -337l257 -371h-71l-222 329l-221 -329h-71z" />
    <glyph glyph-name="uni0426" unicode="&#x426;" horiz-adv-x="738" 
d="M648 -178v178h-550v708h57v-657h410v657h57v-657h80v-229h-54z" />
    <glyph glyph-name="uni0427" unicode="&#x427;" horiz-adv-x="631" 
d="M476 0v302q-79 -22 -173 -22q-220 0 -220 183v245h57v-240q0 -64 39.5 -101t121.5 -37q112 0 175 23v355h57v-708h-57z" />
    <glyph glyph-name="uni0428" unicode="&#x428;" horiz-adv-x="1059" 
d="M98 0v708h57v-657h346v657h57v-657h346v657h57v-708h-863z" />
    <glyph glyph-name="uni0429" unicode="&#x429;" horiz-adv-x="1078" 
d="M988 -178v178h-890v708h57v-657h346v657h57v-657h346v657h57v-657h81v-229h-54z" />
    <glyph glyph-name="uni042A" unicode="&#x42a;" horiz-adv-x="693" 
d="M201 0v657h-187v51h245v-312h142q109 0 176.5 -51t67.5 -149t-68 -147t-179 -49h-197zM259 49h134q89 0 141.5 35.5t52.5 110.5q0 74 -51 112.5t-139 38.5h-138v-297z" />
    <glyph glyph-name="uni042B" unicode="&#x42b;" horiz-adv-x="807" 
d="M98 0v708h57v-312h142q109 0 176.5 -51t67.5 -149t-68 -147t-179 -49h-196zM155 49h134q89 0 141.5 35.5t52.5 110.5q0 74 -51 112.5t-139 38.5h-138v-297zM652 0v708h57v-708h-57z" />
    <glyph glyph-name="uni042C" unicode="&#x42c;" horiz-adv-x="589" 
d="M98 0v708h57v-312h142q109 0 176.5 -51t67.5 -149t-68 -147t-179 -49h-196zM155 49h134q89 0 141.5 35.5t52.5 110.5q0 74 -51 112.5t-139 38.5h-138v-297z" />
    <glyph glyph-name="uni042D" unicode="&#x42d;" horiz-adv-x="721" 
d="M294 -19q-84 0 -153 34.5t-109 90.5l44 30q74 -104 217 -104q134 0 220.5 90.5t86.5 220.5h-371v50h369q-12 122 -95 202.5t-210 80.5q-61 0 -115.5 -26t-84.5 -65l-46 36q39 49 105.5 77.5t141.5 28.5q158 0 262 -105.5t104 -267.5t-103 -267.5t-263 -105.5z" />
    <glyph glyph-name="uni042E" unicode="&#x42e;" horiz-adv-x="1056" 
d="M655 -18q-148 0 -241.5 102.5t-98.5 258.5h-160v-343h-57v708h57v-315h162q12 144 104.5 238.5t233.5 94.5q150 0 245 -106.5t95 -263.5q0 -161 -94.5 -267.5t-245.5 -106.5zM655 33q129 0 204.5 95t75.5 228q0 83 -32 155t-97 118.5t-151 46.5q-128 0 -204 -95t-76 -225
q0 -133 75.5 -228t204.5 -95z" />
    <glyph glyph-name="uni042F" unicode="&#x42f;" horiz-adv-x="599" 
d="M46 0l194 317q-83 13 -132.5 62t-49.5 133q0 98 67.5 147t178.5 49h197v-708h-57v312h-142l-187 -312h-69zM306 362h138v297h-134q-89 0 -142 -36t-53 -110t51.5 -112.5t139.5 -38.5z" />
    <glyph glyph-name="uni0430" unicode="&#x430;" horiz-adv-x="527" 
d="M218 -13q-62 0 -111 35t-49 104q0 40 17.5 69t44.5 45.5t67.5 26t78.5 12.5t87 3h35v21q0 130 -132 130q-82 0 -139 -55l-30 36q66 64 174 64q81 0 130 -43t49 -126v-204q0 -63 8 -105h-49q-8 48 -8 86h-2q-55 -99 -171 -99zM231 32q76 0 116.5 49.5t40.5 119.5v38h-35
q-239 0 -239 -110q0 -50 34.5 -73.5t82.5 -23.5z" />
    <glyph glyph-name="uni0431" unicode="&#x431;" horiz-adv-x="615" 
d="M311 -13q-122 0 -184 81q-59 67 -59 216q0 63 2.5 108.5t9.5 94.5t21.5 83t36.5 63.5t56.5 46.5t80.5 23l150 18q71 9 83 46l39 -12q-17 -67 -106 -78l-143 -18q-102 -13 -142 -81t-42 -224h3q62 123 209 123q103 0 167 -70t64 -175q0 -106 -69 -175.5t-177 -69.5z
M311 34q84 0 136.5 56t52.5 141q0 86 -51 143t-135 57q-83 0 -136.5 -57.5t-53.5 -142.5t51.5 -141t135.5 -56z" />
    <glyph glyph-name="uni0432" unicode="&#x432;" horiz-adv-x="532" 
d="M94 0v466h209q62 0 105 -27t43 -90q0 -39 -24 -66t-61 -36v-1q46 -6 77 -36.5t31 -81.5q0 -61 -46 -94.5t-120 -33.5h-214zM149 47h151q53 0 85.5 21t32.5 64q0 44 -31 66t-80 22h-158v-173zM149 265h152q39 0 68 19.5t29 58.5q0 40 -29.5 58.5t-76.5 18.5h-143v-155z
" />
    <glyph glyph-name="uni0433" unicode="&#x433;" horiz-adv-x="419" 
d="M94 0v466h303v-46h-248v-420h-55z" />
    <glyph glyph-name="uni0434" unicode="&#x434;" horiz-adv-x="599" 
d="M25 -153v200h55q34 43 56 119t22 174v126h329v-419h76v-200h-51v153h-436v-153h-51zM142 47h292v373h-223v-94q0 -165 -69 -279z" />
    <glyph glyph-name="uni0435" unicode="&#x435;" horiz-adv-x="567" 
d="M115 265h340q-3 75 -47.5 121.5t-119.5 46.5q-74 0 -122 -52.5t-51 -115.5zM294 -13q-102 0 -169 70t-67 177q0 105 66.5 174.5t164.5 69.5q105 0 162.5 -65.5t57.5 -162.5v-28h-395q2 -77 52 -132.5t130 -55.5q93 0 160 79l36 -29q-75 -97 -198 -97z" />
    <glyph glyph-name="uni0436" unicode="&#x436;" horiz-adv-x="729" 
d="M13 0l257 244l-232 222h78l219 -220h2v220h55v-220h2l219 220h78l-232 -222l257 -244h-80l-242 237h-2v-237h-55v237h-2l-242 -237h-80z" />
    <glyph glyph-name="uni0437" unicode="&#x437;" horiz-adv-x="464" 
d="M225 -13q-125 0 -186 86l40 32q51 -71 145 -71q53 0 89 24t36 73q0 44 -39 67t-99 23h-39v44h35q56 0 92 23.5t36 66.5q0 39 -31.5 58.5t-83.5 19.5q-37 0 -70.5 -17t-52.5 -47l-42 30q23 38 67.5 58.5t99.5 20.5q75 0 121 -32t46 -91q0 -41 -27.5 -70.5t-71.5 -38.5v-2
q51 -7 82 -38t31 -77q0 -66 -49.5 -104t-128.5 -38z" />
    <glyph glyph-name="uni0438" unicode="&#x438;" horiz-adv-x="596" 
d="M94 0v466h55v-390l293 390h59v-466h-53v393h-2l-293 -393h-59z" />
    <glyph glyph-name="uni0439" unicode="&#x439;" horiz-adv-x="596" 
d="M297 575q-58 0 -95.5 34.5t-44.5 90.5l38 7q7 -42 35 -65t67 -23t67 23t35 65l38 -7q-7 -56 -44.5 -90.5t-95.5 -34.5zM94 0v466h55v-390l293 390h59v-466h-53v393h-2l-293 -393h-59z" />
    <glyph glyph-name="uni043A" unicode="&#x43a;" horiz-adv-x="496" 
d="M96 0v466h54v-220h3l227 220h78l-243 -222l268 -244h-80l-250 237h-3v-237h-54z" />
    <glyph glyph-name="uni043B" unicode="&#x43b;" horiz-adv-x="581" 
d="M58 -5q-26 0 -46 6l7 47q13 -5 31 -5q59 0 86.5 63.5t27.5 197.5v162h323v-466h-54v420h-216v-133q0 -292 -159 -292z" />
    <glyph glyph-name="uni043C" unicode="&#x43c;" horiz-adv-x="720" 
d="M94 0v466h81l185 -386l186 386h79v-466h-54v403h-2l-195 -403h-29l-196 403v-403h-55z" />
    <glyph glyph-name="uni043D" unicode="&#x43d;" horiz-adv-x="584" 
d="M94 0v466h55v-201h286v201h54v-466h-54v219h-286v-219h-55z" />
    <glyph glyph-name="uni043E" unicode="&#x43e;" horiz-adv-x="609" 
d="M304 -13q-107 0 -176.5 70t-69.5 176q0 107 69 176t177 69t177.5 -69t69.5 -176q0 -106 -69.5 -176t-177.5 -70zM304 34q86 0 138 57t52 142t-52 142.5t-138 57.5q-85 0 -137 -57.5t-52 -142.5t52 -142t137 -57z" />
    <glyph glyph-name="uni043F" unicode="&#x43f;" horiz-adv-x="577" 
d="M94 0v466h388v-466h-54v420h-279v-420h-55z" />
    <glyph glyph-name="uni0440" unicode="&#x440;" horiz-adv-x="632" 
d="M148 90v-330h-54v706h54v-93h3q29 52 78.5 78.5t106.5 26.5q106 0 172.5 -69.5t66.5 -175.5t-65.5 -176t-171.5 -70q-58 0 -109 26.5t-78 76.5h-3zM517 233q0 85 -50.5 142.5t-135.5 57.5q-81 0 -134.5 -57.5t-53.5 -142.5t53.5 -142t134.5 -57q85 0 135.5 57t50.5 142z
" />
    <glyph glyph-name="uni0441" unicode="&#x441;" horiz-adv-x="494" 
d="M466 405l-36 -33q-21 27 -56 43t-73 16q-83 0 -134.5 -56.5t-51.5 -141.5t51 -141t133 -56t136 56l34 -31q-64 -74 -170 -74q-108 0 -174 69t-66 177q0 107 67.5 176t173.5 69q108 0 166 -73z" />
    <glyph glyph-name="uni0442" unicode="&#x442;" horiz-adv-x="441" 
d="M193 0v420h-172v46h398v-46h-172v-420h-54z" />
    <glyph glyph-name="uni0443" unicode="&#x443;" horiz-adv-x="470" 
d="M84 -241q-25 0 -55 7l7 49q21 -8 46 -8q34 0 54.5 21.5t36.5 63.5l40 105l-195 469h61l162 -410l152 410h59l-232 -596q-22 -55 -53 -83t-83 -28z" />
    <glyph glyph-name="uni0444" unicode="&#x444;" horiz-adv-x="701" 
d="M323 -240v227q-126 2 -198 66.5t-72 178.5q0 113 72 178.5t198 66.5v284h55v-284q126 -1 198 -66.5t72 -178.5q0 -114 -72 -178.5t-198 -66.5v-227h-55zM323 34v397q-101 -2 -157 -53.5t-56 -144.5q0 -96 55.5 -147.5t157.5 -51.5zM378 34q102 0 157.5 51.5t55.5 147.5
q0 93 -55.5 145t-157.5 53v-397z" />
    <glyph glyph-name="uni0445" unicode="&#x445;" horiz-adv-x="474" 
d="M20 0l183 242l-169 224h70l133 -186l133 186h66l-167 -222l186 -244h-71l-148 205l-151 -205h-65z" />
    <glyph glyph-name="uni0446" unicode="&#x446;" horiz-adv-x="594" 
d="M507 -153v153h-413v466h55v-419h279v419h54v-419h76v-200h-51z" />
    <glyph glyph-name="uni0447" unicode="&#x447;" horiz-adv-x="525" 
d="M376 0v197q-71 -19 -143 -19q-156 0 -156 145v143h55v-137q0 -61 27.5 -83t84.5 -22q56 0 132 19v223h54v-466h-54z" />
    <glyph glyph-name="uni0448" unicode="&#x448;" horiz-adv-x="843" 
d="M94 0v466h55v-419h246v419h54v-419h246v419h54v-466h-655z" />
    <glyph glyph-name="uni0449" unicode="&#x449;" horiz-adv-x="861" 
d="M774 -153v153h-680v466h55v-419h246v419h54v-419h246v419h54v-419h76v-200h-51z" />
    <glyph glyph-name="uni044A" unicode="&#x44a;" horiz-adv-x="566" 
d="M164 0v420h-143v46h198v-183h125q86 0 131.5 -38t45.5 -106q0 -67 -45 -103t-132 -36h-180zM219 47h131q115 0 115 92q0 98 -115 98h-131v-190z" />
    <glyph glyph-name="uni044B" unicode="&#x44b;" horiz-adv-x="692" 
d="M94 0v466h55v-183h125q86 0 131.5 -38t45.5 -106q0 -67 -45 -103t-132 -36h-180zM149 47h131q115 0 115 92q0 98 -115 98h-131v-190zM543 0v466h54v-466h-54z" />
    <glyph glyph-name="uni044C" unicode="&#x44c;" horiz-adv-x="496" 
d="M94 0v466h55v-183h125q86 0 131.5 -38t45.5 -106q0 -67 -45 -103t-132 -36h-180zM149 47h131q115 0 115 92q0 98 -115 98h-131v-190z" />
    <glyph glyph-name="uni044D" unicode="&#x44d;" horiz-adv-x="496" 
d="M193 -13q-109 0 -172 73l38 32q51 -58 134 -58t134 52.5t55 132.5h-230v46h228q-10 74 -59.5 120t-126.5 46q-79 0 -133 -58l-34 34q60 71 168 71q109 0 176 -68t67 -177t-68 -177.5t-177 -68.5z" />
    <glyph glyph-name="uni044E" unicode="&#x44e;" horiz-adv-x="793" 
d="M94 0v466h55v-201h113q11 93 75.5 153t160.5 60q105 0 171 -70t66 -176t-66.5 -176t-170.5 -70q-101 0 -166.5 66t-70.5 166l-112 1v-219h-55zM498 32q81 0 130.5 57.5t49.5 142.5t-49.5 142.5t-130.5 57.5q-82 0 -131 -57t-49 -143t49 -143t131 -57z" />
    <glyph glyph-name="uni044F" unicode="&#x44f;" horiz-adv-x="534" 
d="M63 0l127 192q-118 25 -118 135q0 66 47 102.5t128 36.5h193v-466h-55v188h-136l-120 -188h-66zM247 234h138v186h-135q-59 0 -91 -24t-32 -69q0 -43 31.5 -68t88.5 -25z" />
    <glyph glyph-name="uni0450" unicode="&#x450;" horiz-adv-x="567" 
d="M115 265h340q-3 75 -47.5 121.5t-119.5 46.5q-74 0 -122 -52.5t-51 -115.5zM294 -13q-102 0 -169 70t-67 177q0 105 66.5 174.5t164.5 69.5q105 0 162.5 -65.5t57.5 -162.5v-28h-395q2 -77 52 -132.5t130 -55.5q93 0 160 79l36 -29q-75 -97 -198 -97zM286 564l-126 144
h72l101 -144h-47z" />
    <glyph glyph-name="uni0451" unicode="&#x451;" horiz-adv-x="567" 
d="M161 651q0 17 12.5 30t30.5 13t30.5 -13t12.5 -30q0 -18 -12.5 -31t-30.5 -13t-30.5 13t-12.5 31zM342 651q0 17 12.5 30t30.5 13t30 -13t12 -30q0 -18 -12 -31t-30 -13t-30.5 13t-12.5 31zM115 265h340q-3 75 -47.5 121.5t-119.5 46.5q-74 0 -122 -52.5t-51 -115.5z
M294 -13q-102 0 -169 70t-67 177q0 105 66.5 174.5t164.5 69.5q105 0 162.5 -65.5t57.5 -162.5v-28h-395q2 -77 52 -132.5t130 -55.5q93 0 160 79l36 -29q-75 -97 -198 -97z" />
    <glyph glyph-name="uni0452" unicode="&#x452;" horiz-adv-x="579" 
d="M346 -241q-34 0 -56 7l9 47q28 -6 46 -6q91 0 91 121v336q0 169 -133 169q-64 0 -109 -51.5t-45 -144.5v-237h-54v573h-86v41h86v142h54v-142h162v-41h-162v-198h2q19 47 65 75t99 28q88 0 131.5 -53.5t43.5 -140.5v-361q0 -80 -38.5 -122t-105.5 -42z" />
    <glyph glyph-name="uni0453" unicode="&#x453;" horiz-adv-x="419" 
d="M365 708l-126 -144h-47l101 144h72zM94 0v466h303v-46h-248v-420h-55z" />
    <glyph glyph-name="uni0454" unicode="&#x454;" horiz-adv-x="496" 
d="M303 -13q-109 0 -177 68.5t-68 177.5t67 177t177 68t170 -71l-37 -34q-55 61 -133 61q-76 0 -126 -47t-60 -122h243v-46h-245q4 -80 55.5 -133.5t133.5 -53.5q81 0 134 60l39 -32q-63 -73 -173 -73z" />
    <glyph glyph-name="uni0455" unicode="&#x455;" horiz-adv-x="435" 
d="M379 399l-42 -30q-38 64 -117 64q-42 0 -73.5 -20.5t-31.5 -60.5q0 -38 27 -56.5t90 -32.5q78 -17 117 -48t39 -86q0 -70 -49.5 -105.5t-119.5 -35.5q-118 0 -177 87l43 31q21 -32 56.5 -52t77.5 -20q48 0 81.5 22.5t33.5 68.5q0 35 -28 55t-68 29.5t-79.5 21t-67.5 40.5
t-28 77q0 64 46.5 97t112.5 33q52 0 93.5 -20.5t63.5 -58.5z" />
    <glyph glyph-name="uni0456" unicode="&#x456;" horiz-adv-x="243" 
d="M94 0v466h55v-466h-55zM121 610q-16 0 -28 12t-12 29t12 29t28 12t28.5 -12t12.5 -29t-12.5 -29t-28.5 -12z" />
    <glyph glyph-name="uni0457" unicode="&#x457;" horiz-adv-x="243" 
d="M-12 651q0 17 12.5 30t30.5 13t30.5 -13t12.5 -30q0 -18 -12.5 -31t-30.5 -13t-30.5 13t-12.5 31zM169 651q0 17 12.5 30t30.5 13t30 -13t12 -30q0 -18 -12 -31t-30 -13t-30.5 13t-12.5 31zM149 466v-466h-55v466h55z" />
    <glyph glyph-name="uni0458" unicode="&#x458;" horiz-adv-x="244" 
d="M23 -240q-30 0 -47 6l8 45q20 -5 38 -5q44 0 58.5 27.5t14.5 79.5v553h54v-560q0 -68 -28 -107t-98 -39zM122 610q-16 0 -28 12t-12 29t12 29t28 12t28.5 -12t12.5 -29t-12.5 -29t-28.5 -12z" />
    <glyph glyph-name="uni0459" unicode="&#x459;" horiz-adv-x="834" 
d="M58 -5q-26 0 -46 6l7 47q13 -5 31 -5q59 0 86.5 63.5t27.5 197.5v162h323v-183h125q86 0 131.5 -38t45.5 -106q0 -67 -44.5 -103t-131.5 -36h-180v420h-216v-133q0 -292 -159 -292zM487 47h131q115 0 115 92q0 98 -115 98h-131v-190z" />
    <glyph glyph-name="uni045A" unicode="&#x45a;" horiz-adv-x="836" 
d="M94 0v466h55v-193h286v193h54v-193h125q87 0 132 -35.5t45 -103.5q0 -134 -176 -134h-180v227h-286v-227h-55zM489 47h131q115 0 115 87q0 93 -115 93h-131v-180z" />
    <glyph glyph-name="uni045B" unicode="&#x45b;" horiz-adv-x="579" 
d="M95 0v573h-86v41h86v142h54v-142h162v-41h-162v-198h2q19 47 65 75t99 28q88 0 131.5 -53.5t43.5 -140.5v-284h-54v264q0 169 -133 169q-64 0 -109 -51.5t-45 -144.5v-237h-54z" />
    <glyph glyph-name="uni045C" unicode="&#x45c;" horiz-adv-x="496" 
d="M400 708l-126 -144h-47l101 144h72zM96 0v466h54v-220h3l227 220h78l-243 -222l268 -244h-80l-250 237h-3v-237h-54z" />
    <glyph glyph-name="uni045D" unicode="&#x45d;" horiz-adv-x="596" 
d="M296 564l-125 144h71l101 -144h-47zM94 0v466h55v-390l293 390h59v-466h-53v393h-2l-293 -393h-59z" />
    <glyph glyph-name="uni045E" unicode="&#x45e;" horiz-adv-x="470" 
d="M242 575q-58 0 -95.5 34.5t-44.5 90.5l38 7q7 -42 35 -65t67 -23t67 23t35 65l38 -7q-7 -56 -44.5 -90.5t-95.5 -34.5zM84 -241q-25 0 -55 7l7 49q21 -8 46 -8q34 0 54.5 21.5t36.5 63.5l40 105l-195 469h61l162 -410l152 410h59l-232 -596q-22 -55 -53 -83t-83 -28z" />
    <glyph glyph-name="uni045F" unicode="&#x45f;" horiz-adv-x="577" 
d="M263 -153v153h-169v466h55v-419h279v419h54v-466h-168v-153h-51z" />
    <glyph glyph-name="uni0490" unicode="&#x490;" horiz-adv-x="503" 
d="M98 0v708h337v146h54v-197h-334v-657h-57z" />
    <glyph glyph-name="uni0491" unicode="&#x491;" horiz-adv-x="419" 
d="M94 0v466h253v124h50v-170h-248v-420h-55z" />
    <glyph glyph-name="Wgrave" unicode="&#x1e80;" horiz-adv-x="967" 
d="M78 708l184 -633h2l184 633h71l185 -633h3l182 633h60l-210 -708h-69l-186 632h-2l-185 -632h-69l-210 708h60zM465 764l-126 144h72l101 -144h-47z" />
    <glyph glyph-name="wgrave" unicode="&#x1e81;" horiz-adv-x="732" 
d="M28 466h58l117 -398h2l133 398h55l135 -398h2l116 398h57l-144 -466h-61l-132 396h-2l-131 -396h-61zM339 564l-126 144h72l101 -144h-47z" />
    <glyph glyph-name="Wacute" unicode="&#x1e82;" horiz-adv-x="967" 
d="M78 708l184 -633h2l184 633h71l185 -633h3l182 633h60l-210 -708h-69l-186 632h-2l-185 -632h-69l-210 708h60zM629 908l-126 -144h-47l101 144h72z" />
    <glyph glyph-name="wacute" unicode="&#x1e83;" horiz-adv-x="732" 
d="M28 466h58l117 -398h2l133 398h55l135 -398h2l116 398h57l-144 -466h-61l-132 396h-2l-131 -396h-61zM519 708l-126 -144h-47l101 144h72z" />
    <glyph glyph-name="Wdieresis" unicode="&#x1e84;" horiz-adv-x="967" 
d="M78 708l184 -633h2l184 633h71l185 -633h3l182 633h60l-210 -708h-69l-186 632h-2l-185 -632h-69l-210 708h60zM350 851q0 17 12.5 30t30.5 13t30 -13t12 -30q0 -18 -12 -31t-30 -13t-30.5 13t-12.5 31zM531 851q0 17 12 30t30 13t30.5 -13t12.5 -30q0 -18 -12.5 -31
t-30.5 -13t-30 13t-12 31z" />
    <glyph glyph-name="wdieresis" unicode="&#x1e85;" horiz-adv-x="732" 
d="M28 466h58l117 -398h2l133 398h55l135 -398h2l116 398h57l-144 -466h-61l-132 396h-2l-131 -396h-61zM232 651q0 17 12.5 30t30.5 13t30 -13t12 -30q0 -18 -12 -31t-30 -13t-30.5 13t-12.5 31zM413 651q0 17 12 30t30 13t30.5 -13t12.5 -30q0 -18 -12.5 -31t-30.5 -13
t-30 13t-12 31z" />
    <glyph glyph-name="Ygrave" unicode="&#x1ef2;" horiz-adv-x="583" 
d="M320 306v-306h-57v306l-259 402h71l218 -353l219 353h66zM281 764l-126 144h72l101 -144h-47z" />
    <glyph glyph-name="ygrave" unicode="&#x1ef3;" horiz-adv-x="470" 
d="M84 -241q-25 0 -55 7l7 49q21 -8 46 -8q34 0 54.5 21.5t36.5 63.5l40 105l-195 469h61l162 -411l2 2l150 409h59l-232 -596q-22 -55 -53 -83t-83 -28zM227 564l-126 144h72l101 -144h-47z" />
    <glyph glyph-name="uni2010" unicode="&#x2010;" horiz-adv-x="314" 
d="M262 269v-46h-210v46h210z" />
    <glyph glyph-name="endash" unicode="&#x2013;" horiz-adv-x="400" 
d="M370 269v-46h-340v46h340z" />
    <glyph glyph-name="emdash" unicode="&#x2014;" horiz-adv-x="600" 
d="M570 269v-46h-540v46h540z" />
    <glyph glyph-name="quoteleft" unicode="&#x2018;" horiz-adv-x="221" 
d="M50 475l76 233h45l-64 -233h-57z" />
    <glyph glyph-name="quoteright" unicode="&#x2019;" horiz-adv-x="221" 
d="M171 708l-76 -233h-45l64 233h57z" />
    <glyph glyph-name="quotesinglbase" unicode="&#x201a;" horiz-adv-x="221" 
d="M171 94l-76 -233h-45l64 233h57z" />
    <glyph glyph-name="quotedblleft" unicode="&#x201c;" horiz-adv-x="376" 
d="M50 475l77 233h45l-65 -233h-57zM205 475l76 233h45l-64 -233h-57z" />
    <glyph glyph-name="quotedblright" unicode="&#x201d;" horiz-adv-x="376" 
d="M204 475l65 233h57l-77 -233h-45zM50 475l64 233h57l-76 -233h-45z" />
    <glyph glyph-name="quotedblbase" unicode="&#x201e;" horiz-adv-x="376" 
d="M204 -139l65 233h57l-77 -233h-45zM50 -139l64 233h57l-76 -233h-45z" />
    <glyph glyph-name="dagger" unicode="&#x2020;" horiz-adv-x="545" 
d="M299 708v-205h201v-48h-201v-581h-53v581h-201v48h201v205h53z" />
    <glyph glyph-name="daggerdbl" unicode="&#x2021;" horiz-adv-x="545" 
d="M299 708v-196h195v-49h-195v-344h195v-49h-195v-196h-53v196h-195v49h195v344h-195v49h195v196h53z" />
    <glyph glyph-name="bullet" unicode="&#x2022;" horiz-adv-x="500" 
d="M73 354q0 74 51.5 125.5t125.5 51.5t125.5 -51.5t51.5 -125.5t-51.5 -125.5t-125.5 -51.5t-125.5 51.5t-51.5 125.5z" />
    <glyph glyph-name="ellipsis" unicode="&#x2026;" horiz-adv-x="1000" 
d="M211 40q0 -19 -13 -32.5t-32 -13.5t-31.5 13.5t-12.5 32.5q0 18 12.5 31.5t31.5 13.5t32 -13.5t13 -31.5zM545 40q0 -19 -13 -32.5t-32 -13.5t-32 13.5t-13 32.5q0 18 13 31.5t32 13.5t32 -13.5t13 -31.5zM878 40q0 -19 -12.5 -32.5t-31.5 -13.5t-32 13.5t-13 32.5
q0 18 13 31.5t32 13.5t31.5 -13.5t12.5 -31.5z" />
    <glyph glyph-name="perthousand" unicode="&#x2030;" horiz-adv-x="1000" 
d="M473 -10q-62 0 -106 44.5t-44 107.5q0 62 44 107t106 45q63 0 107 -44.5t44 -107.5t-44 -107.5t-107 -44.5zM473 34q45 0 76 31t31 77q0 45 -31 76.5t-76 31.5q-44 0 -74.5 -31.5t-30.5 -76.5q0 -46 30.5 -77t74.5 -31zM821 -10q-62 0 -106.5 44.5t-44.5 107.5
q0 62 44.5 107t106.5 45q63 0 107 -44.5t44 -107.5t-44 -107.5t-107 -44.5zM821 34q45 0 76 31t31 77q0 45 -31.5 76.5t-75.5 31.5t-75 -31.5t-31 -76.5q0 -46 31 -77t75 -31zM587 716l-447 -746l-41 22l448 746zM181 416q-62 0 -106.5 44.5t-44.5 107.5q0 62 44.5 107
t106.5 45q63 0 107 -44.5t44 -107.5t-44 -107.5t-107 -44.5zM181 460q45 0 76 31t31 77q0 45 -31.5 76.5t-75.5 31.5t-75 -31.5t-31 -76.5q0 -46 31 -77t75 -31z" />
    <glyph glyph-name="guilsinglleft" unicode="&#x2039;" horiz-adv-x="315" 
d="M124 239l115 -179l-38 -26l-135 205l134 205l38 -26z" />
    <glyph glyph-name="guilsinglright" unicode="&#x203a;" horiz-adv-x="315" 
d="M191 239l-115 179l38 27l135 -206l-134 -205l-38 26z" />
    <glyph glyph-name="interrobang" unicode="&#x203d;" horiz-adv-x="479" 
d="M282 47q0 -1 0.5 -4t0.5 -4q0 -15 -11 -27t-28 -12q-16 0 -27 11.5t-11 27.5q0 15 11 27t29 12q14 0 24 -9t12 -22zM212 194v349h52v-183h1q3 5 58 64q31 33 44.5 59t13.5 62q0 60 -39 94t-98 34q-57 0 -95 -35t-46 -91l-54 10q15 77 68 121t129 44q82 0 136 -46.5
t54 -127.5q0 -54 -22 -90t-66 -75q-46 -41 -63.5 -68t-17.5 -68v-53h-55z" />
    <glyph glyph-name="fraction" unicode="&#x2044;" horiz-adv-x="100" 
d="M287 716l-447 -746l-42 22l448 746z" />
    <glyph glyph-name="zero.superior" unicode="&#x2070;" horiz-adv-x="364" 
d="M321 663q0 -43 -6.5 -79t-21.5 -69t-43.5 -52t-67.5 -19q-40 0 -68.5 19t-43.5 52t-21.5 69t-6.5 79q0 58 11 104t44 80.5t85 34.5t84.5 -34.5t43.5 -80t11 -104.5zM271 663q0 30 -4 58t-13 56t-27.5 45t-44.5 17q-35 0 -56.5 -31t-27.5 -67t-6 -78q0 -43 6 -79
t27.5 -66.5t56.5 -30.5q26 0 44.5 17t27.5 45t13 56t4 58z" />
    <glyph glyph-name="four.superior" unicode="&#x2074;" horiz-adv-x="364" 
d="M267 452h-44v101h-190v43l177 278h57v-278h62v-43h-62v-101zM223 596v214h-3l-137 -214h140z" />
    <glyph glyph-name="five.superior" unicode="&#x2075;" horiz-adv-x="364" 
d="M313 586q0 -65 -39.5 -103.5t-100.5 -38.5q-92 0 -129 79l44 18q29 -54 85 -54q39 0 65 25.5t26 70.5q0 43 -26.5 69.5t-70.5 26.5q-40 0 -91 -28l4 223h216v-44h-169l-3 -119q21 9 54 9q61 0 98 -37.5t37 -96.5z" />
    <glyph glyph-name="six.superior" unicode="&#x2076;" horiz-adv-x="364" 
d="M320 579q0 -59 -39 -97t-99 -38q-59 0 -98 38t-39 97q0 50 38 112l112 183h57l-110 -173l1 -1q21 12 46 12q56 0 93.5 -37.5t37.5 -95.5zM271 579q0 39 -24 65t-63 26t-65 -26t-26 -65q0 -40 25 -66t65 -26q38 0 63 26t25 66z" />
    <glyph glyph-name="seven.superior" unicode="&#x2077;" horiz-adv-x="364" 
d="M143 452h-54l169 378h-196v44h249v-39z" />
    <glyph glyph-name="eight.superior" unicode="&#x2078;" horiz-adv-x="364" 
d="M317 568q0 -55 -39.5 -89.5t-95.5 -34.5t-96 34.5t-40 89.5q0 77 71 108v1q-55 29 -55 93q0 49 34.5 80.5t85.5 31.5t85.5 -31.5t34.5 -80.5q0 -63 -56 -93v-1q33 -13 52 -42.5t19 -65.5zM182 839q-31 0 -51.5 -20t-20.5 -51q0 -30 20.5 -50.5t51.5 -20.5t51.5 20.5
t20.5 50.5q0 31 -20.5 51t-51.5 20zM182 654q-38 0 -63 -24t-25 -60t24.5 -59.5t63.5 -23.5t63 23.5t24 59.5t-24.5 60t-62.5 24z" />
    <glyph glyph-name="nine.superior" unicode="&#x2079;" horiz-adv-x="364" 
d="M319 748q-1 -55 -38 -114l-112 -182h-57l111 174l-1 1q-20 -12 -47 -12q-56 0 -93.5 38t-37.5 95q0 58 39.5 96t98.5 38t98 -38t39 -96zM271 748q0 38 -25.5 64.5t-63.5 26.5q-39 0 -64 -26t-25 -65q0 -40 24.5 -65.5t63.5 -25.5t64.5 26t25.5 65z" />
    <glyph glyph-name="zero.inferior" unicode="&#x2080;" horiz-adv-x="364" 
d="M321 73q0 -43 -6.5 -79t-21.5 -69t-43.5 -52t-67.5 -19q-40 0 -68.5 19t-43.5 52t-21.5 69t-6.5 79q0 58 11 104t44 80.5t85 34.5t84.5 -34.5t43.5 -80t11 -104.5zM271 73q0 30 -4 58t-13 56t-27.5 45t-44.5 17q-35 0 -56.5 -31t-27.5 -67t-6 -78q0 -43 6 -79t27.5 -66.5
t56.5 -30.5q26 0 44.5 17t27.5 45t13 56t4 58z" />
    <glyph glyph-name="one.inferior" unicode="&#x2081;" horiz-adv-x="364" 
d="M172 -138v362l-73 -59l-31 33l112 86h41v-422h-49z" />
    <glyph glyph-name="two.inferior" unicode="&#x2082;" horiz-adv-x="364" 
d="M313 -138h-268v46l163 169q51 52 52 100q0 33 -21 52t-54 19q-30 0 -52.5 -19t-30.5 -53l-47 9q10 49 46 78t84 29q55 0 90.5 -30.5t35.5 -83.5q0 -38 -18 -67t-57 -69l-132 -136h209v-44z" />
    <glyph glyph-name="three.inferior" unicode="&#x2083;" horiz-adv-x="364" 
d="M174 -146q-97 0 -135 88l45 16q12 -29 36.5 -45t53.5 -16q38 0 62.5 21.5t24.5 60.5q0 41 -30 61.5t-73 20.5h-24v41h24q42 0 66.5 20.5t24.5 57.5q0 31 -22 50.5t-54 19.5q-51 0 -78 -48l-39 21q41 69 119 69q53 0 87.5 -30t34.5 -82q0 -34 -18.5 -59t-49.5 -37
q37 -11 59 -38.5t22 -66.5q0 -59 -39 -92t-97 -33z" />
    <glyph glyph-name="four.inferior" unicode="&#x2084;" horiz-adv-x="364" 
d="M267 -138h-44v101h-190v43l177 278h57v-278h62v-43h-62v-101zM223 6v214h-3l-137 -214h140z" />
    <glyph glyph-name="five.inferior" unicode="&#x2085;" horiz-adv-x="364" 
d="M313 -4q0 -65 -39.5 -103.5t-100.5 -38.5q-92 0 -129 79l44 18q29 -54 85 -54q39 0 65 25.5t26 70.5q0 43 -26.5 69.5t-70.5 26.5q-40 0 -91 -28l4 223h216v-44h-169l-3 -119q21 9 54 9q61 0 98 -37.5t37 -96.5z" />
    <glyph glyph-name="six.inferior" unicode="&#x2086;" horiz-adv-x="364" 
d="M320 -11q0 -59 -39 -97t-99 -38q-59 0 -98 38t-39 97q0 50 38 112l112 183h57l-110 -173l1 -1q21 12 46 12q56 0 93.5 -37.5t37.5 -95.5zM271 -11q0 39 -24 65t-63 26t-65 -26t-26 -65q0 -40 25 -66t65 -26q38 0 63 26t25 66z" />
    <glyph glyph-name="seven.inferior" unicode="&#x2087;" horiz-adv-x="364" 
d="M143 -138h-54l169 378h-196v44h249v-39z" />
    <glyph glyph-name="eight.inferior" unicode="&#x2088;" horiz-adv-x="364" 
d="M317 -22q0 -55 -39.5 -89.5t-95.5 -34.5t-96 34.5t-40 89.5q0 77 71 108v1q-55 29 -55 93q0 49 34.5 80.5t85.5 31.5t85.5 -31.5t34.5 -80.5q0 -63 -56 -93v-1q33 -13 52 -42.5t19 -65.5zM182 249q-31 0 -51.5 -20t-20.5 -51q0 -30 20.5 -50.5t51.5 -20.5t51.5 20.5
t20.5 50.5q0 31 -20.5 51t-51.5 20zM182 64q-38 0 -63 -24t-25 -60t24.5 -59.5t63.5 -23.5t63 23.5t24 59.5t-24.5 60t-62.5 24z" />
    <glyph glyph-name="nine.inferior" unicode="&#x2089;" horiz-adv-x="364" 
d="M319 158q-1 -55 -38 -114l-112 -182h-57l111 174l-1 1q-20 -12 -47 -12q-56 0 -93.5 38t-37.5 95q0 58 39.5 96t98.5 38t98 -38t39 -96zM271 158q0 38 -25.5 64.5t-63.5 26.5q-39 0 -64 -26t-25 -65q0 -40 24.5 -65.5t63.5 -25.5t64.5 26t25.5 65z" />
    <glyph glyph-name="Euro" unicode="&#x20ac;" horiz-adv-x="574" 
d="M510 646q-52 30 -130 30q-88 0 -148.5 -56.5t-82.5 -157.5h311l-15 -45h-303q-5 -33 -5 -68q0 -27 4 -59h266l-15 -45h-246q16 -97 80.5 -155t152.5 -58q83 0 140 41l24 -45q-65 -47 -172 -47q-114 0 -190 76.5t-94 187.5h-72l16 45h51q-3 42 -3 58q0 35 4 69h-67l16 45
h57q27 126 106 195.5t188 69.5q86 0 147 -33z" />
    <glyph glyph-name="afii61248" unicode="&#x2105;" horiz-adv-x="830" 
d="M213 380q-76 0 -123.5 48t-47.5 122t47.5 122t123.5 48q79 0 122 -56l-39 -30q-31 42 -83 42q-53 0 -85.5 -36t-32.5 -90t32.5 -90t85.5 -36q52 0 88 41l37 -29q-48 -56 -125 -56zM211 -30l-41 22l447 746l41 -22zM788 158q0 -74 -48 -122t-123 -48t-123 48t-48 122
t48 122t123 48t123 -48t48 -122zM735 158q0 54 -32.5 90t-85.5 36t-85 -36t-32 -90t32 -90t85 -36t85.5 36t32.5 90z" />
    <glyph glyph-name="afii61289" unicode="&#x2113;" horiz-adv-x="500" 
d="M407 38q-55 -52 -122 -52q-53 0 -86 31t-33 93v129l-59 -65h-2l-21 29l82 84v263q0 80 33.5 125.5t85.5 45.5q45 0 73 -33.5t28 -90.5q0 -141 -167 -320v-158q0 -50 23 -70.5t55 -20.5q47 0 88 38h2zM341 593q0 40 -16 64.5t-40 24.5q-27 0 -46.5 -31.5t-19.5 -92.5v-233
q122 144 122 268z" />
    <glyph glyph-name="uni2116" unicode="&#x2116;" horiz-adv-x="1036" 
d="M98 0v708h77l369 -628v628h57v-708h-77l-369 632v-632h-57zM716 311v46h278v-46h-278zM855 419q-65 0 -107 42t-42 107t42 106.5t107 41.5t107 -41.5t42 -106.5t-42 -107t-107 -42zM855 457q47 0 74.5 32t27.5 79q0 46 -27 78t-75 32t-75 -32t-27 -78q0 -47 27.5 -79
t74.5 -32z" />
    <glyph glyph-name="published" unicode="&#x2117;" horiz-adv-x="800" 
d="M20 353q0 157 111.5 267t269.5 110q157 0 268 -110t111 -267q0 -156 -111 -265.5t-268 -109.5q-158 0 -269.5 109.5t-111.5 265.5zM69 353q0 -136 97.5 -232.5t234.5 -96.5t233.5 96.5t96.5 232.5q0 137 -96.5 234t-233.5 97t-234.5 -97t-97.5 -234zM283 128v439h154
q72 0 114.5 -35.5t42.5 -101.5q0 -63 -42.5 -100.5t-113.5 -37.5h-102v-164h-53zM336 339h100q50 0 77 24t27 67t-28 66.5t-77 23.5h-99v-181z" />
    <glyph glyph-name="trademark" unicode="&#x2122;" horiz-adv-x="1000" 
d="M397 708v-44h-133v-368h-49v368h-135v44h317zM917 708v-412h-49v359h-2l-148 -359h-31l-147 359h-2v-359h-49v412h77l138 -334l138 334h75z" />
    <glyph glyph-name="Omega" unicode="&#x2126;" horiz-adv-x="742" 
d="M678 0h-238v175q89 16 137 82t48 159q0 110 -75 183t-185 73q-109 0 -184 -73t-75 -183q0 -94 48 -160t137 -81v-175h-238v47h195v94q-91 26 -143 102t-52 174q0 130 92 217t221 87t220.5 -86.5t91.5 -216.5q0 -99 -51.5 -175t-143.5 -102v-94h195v-47z" />
    <glyph glyph-name="estimated" unicode="&#x212e;" horiz-adv-x="605" 
d="M561 259h-404v-181q59 -59 145 -59q122 0 193 120l35 -21q-46 -72 -98 -103.5t-130 -31.5q-115 0 -186.5 79t-71.5 197q0 119 71 197.5t187 78.5q115 0 186.5 -77t72.5 -199zM157 295h291v145q-63 60 -147 60t-144 -60v-145z" />
    <glyph glyph-name="partialdiff" unicode="&#x2202;" horiz-adv-x="490" 
d="M226 -13q-86 0 -139 65t-53 157q0 93 51.5 152.5t136.5 59.5q51 0 96 -25t76 -68q0 11 0.5 31t0.5 30q0 75 -18 138t-61 107t-106 44q-54 0 -111 -45l-29 35q62 54 137 54q53 0 94.5 -21t68 -55.5t44 -82t24.5 -96.5t7 -103q0 -77 -11 -141.5t-35.5 -119t-68.5 -85.5
t-104 -31zM227 30q43 0 75.5 24.5t50 65t26 79t10.5 78.5q-68 99 -162 99q-67 0 -104.5 -49.5t-37.5 -118.5q0 -68 38 -123t104 -55z" />
    <glyph glyph-name="Delta" unicode="&#x2206;" horiz-adv-x="666" 
d="M646 0h-624l279 712h61zM570 49l-239 610l-237 -610h476z" />
    <glyph glyph-name="product" unicode="&#x220f;" horiz-adv-x="709" 
d="M632 -214h-53v951h-449v-951h-53v1000h555v-1000z" />
    <glyph glyph-name="summation" unicode="&#x2211;" horiz-adv-x="601" 
d="M569 -214h-538v45l332 458l-318 451v46h512v-49h-445l316 -448l-333 -454h474v-49z" />
    <glyph glyph-name="minus" unicode="&#x2212;" horiz-adv-x="666" 
d="M581 328v-48h-496v48h496z" />
    <glyph glyph-name="uni2215" unicode="&#x2215;" horiz-adv-x="100" 
d="M287 716l-447 -746l-42 22l448 746z" />
    <glyph glyph-name="uni2219" unicode="&#x2219;" horiz-adv-x="254" 
d="M172 296q0 -18 -13 -31.5t-32 -13.5t-32 13.5t-13 31.5t13 32t32 14t32 -14t13 -32z" />
    <glyph glyph-name="radical" unicode="&#x221a;" horiz-adv-x="488" 
d="M492 786l-209 -1000h-56l-165 348l-51 -24l-19 41l94 44l162 -344l194 935h50z" />
    <glyph glyph-name="infinity" unicode="&#x221e;" horiz-adv-x="735" 
d="M184 107q-59 0 -96 40t-37 102q0 61 36.5 102t95.5 41q34 0 71.5 -20t59.5 -39.5t57 -54.5l9 9q34 34 53.5 51.5t54.5 36t67 18.5q60 0 97.5 -40t37.5 -102t-37 -103t-97 -41q-48 0 -91.5 30t-93.5 81q-4 -3 -23 -21t-25.5 -23.5l-24 -19.5t-27.5 -19.5t-26 -13.5
t-30.5 -11t-30.5 -3zM185 153q62 0 155 95q-48 47 -85 73t-73 26q-39 0 -62 -28.5t-23 -69.5q0 -42 23.5 -69t64.5 -27zM559 153q39 0 62 27t23 68q0 42 -23.5 71t-64.5 29q-25 0 -54 -16.5t-48.5 -34t-52.5 -50.5q48 -46 84 -70t74 -24z" />
    <glyph glyph-name="integral" unicode="&#x222b;" horiz-adv-x="541" 
d="M162 -210q-23 0 -39.5 10.5t-16.5 31.5q0 12 8.5 20t20.5 8q16 0 28.5 -18t19.5 -18q39 0 39 164l1 167q0 391 1 399q0 5 0.5 26t1 30t2 29.5t4 31l6.5 28t9.5 27.5t14 22t18.5 18.5t24 11t31 4.5q24 0 43 -11t19 -33q0 -29 -32 -29q-16 0 -28.5 18.5t-20.5 18.5
q-41 0 -40 -176v-9v-507q0 -41 -1 -68.5t-4.5 -61t-11 -55t-20 -41t-32 -29t-45.5 -9.5z" />
    <glyph glyph-name="approxequal" unicode="&#x2248;" horiz-adv-x="666" 
d="M62 267q7 56 36.5 93t85.5 37q46 0 144.5 -36t134.5 -36q69 0 86 81h35q-5 -54 -35.5 -91t-86.5 -37q-44 0 -143 35.5t-133 35.5q-38 0 -60 -23.5t-27 -58.5h-37zM62 91q18 131 121 131q45 0 144 -36t136 -36q68 0 85 81h36q-6 -55 -36.5 -92.5t-86.5 -37.5
q-44 0 -142 36t-133 36q-38 0 -60 -23.5t-27 -58.5h-37z" />
    <glyph glyph-name="notequal" unicode="&#x2260;" horiz-adv-x="666" 
d="M579 147h-284l-79 -153l-42 22l68 131h-155v47h180l70 137h-250v48h276l76 147l42 -22l-65 -125h163v-48h-188l-71 -137h259v-47z" />
    <glyph glyph-name="lessequal" unicode="&#x2264;" horiz-adv-x="666" 
d="M579 96l-492 199v52l492 200v-52l-430 -174l430 -174v-51zM579 4h-492v48h492v-48z" />
    <glyph glyph-name="greaterequal" unicode="&#x2265;" horiz-adv-x="666" 
d="M579 295l-492 -199v51l431 174l-431 174v52l492 -200v-52zM579 4h-492v48h492v-48z" />
    <glyph glyph-name="lozenge" unicode="&#x25ca;" horiz-adv-x="593" 
d="M490 356l-169 -391h-51l-167 391l167 391h51zM437 356l-141 341l-141 -341l141 -341z" />
    <glyph glyph-name="f_i" unicode="&#xf001;" horiz-adv-x="529" 
d="M282 466v-46h-114v-420h-55v420h-97v46h97v139q0 80 39 121.5t108 41.5q32 0 53 -7l-9 -47q-24 7 -45 7q-91 0 -91 -122v-133h114zM435 466v-466h-54v466h54zM448 651q0 -17 -12 -29t-28 -12t-28.5 12t-12.5 29t12.5 29t28.5 12t28 -12t12 -29z" />
    <glyph glyph-name="f_l" unicode="&#xf002;" horiz-adv-x="529" 
d="M282 466v-46h-114v-420h-55v420h-97v46h97v139q0 80 39 121.5t108 41.5q32 0 53 -7l-9 -47q-24 7 -45 7q-91 0 -91 -122v-133h114zM434 756v-756h-54v756h54z" />
    <glyph glyph-name="uniF8FF" unicode="&#xf8ff;" horiz-adv-x="512" 
d="M278 117h-56v67h56v-67zM271 234h-46l-2 17q0 54 11.5 79.5t47.5 60.5q31 31 40.5 47t9.5 36q0 36 -22.5 60.5t-53.5 24.5q-71 0 -82 -95l-50 8q7 69 43 103t92 34q54 0 89 -36t35 -95q0 -33 -13 -60t-50 -60t-43 -50t-6 -74zM50 50h412v617h-412v-617zM0 718h512v-718
h-512v718z" />
    <glyph glyph-name="grave.cap" 
d="M125 764l-126 144h72l101 -144h-47z" />
    <glyph glyph-name="acute.cap" 
d="M241 908l-126 -144h-47l101 144h72z" />
    <glyph glyph-name="circumflex.cap" 
d="M152 908l107 -144h-53l-86 115l-86 -115h-53l107 144h64z" />
    <glyph glyph-name="caron.cap" 
d="M259 908l-107 -144h-64l-107 144h53l86 -115l86 115h53z" />
    <glyph glyph-name="caron.alt" 
d="M207 708l-70 -185h-45l58 185h57z" />
    <glyph glyph-name="tilde.cap" 
d="M6 781h-35q15 94 82 94q22 0 71 -23.5t64 -23.5q35 0 46 49h35q-15 -93 -81 -93q-23 0 -71 23.5t-64 23.5q-36 0 -47 -50z" />
    <glyph glyph-name="dieresis.cap" 
d="M-13 851q0 17 12.5 30t30.5 13t30 -13t12 -30q0 -18 -12 -31t-30 -13t-30.5 13t-12.5 31zM168 851q0 17 12 30t30 13t30.5 -13t12.5 -30q0 -18 -12.5 -31t-30.5 -13t-30 13t-12 31z" />
    <glyph glyph-name="macron.cap" 
d="M249 850v-44h-258v44h258z" />
    <glyph glyph-name="breve.cap" 
d="M224 905h36q-5 -61 -43.5 -95.5t-97.5 -34.5t-97 34.5t-43 95.5h37q7 -41 35.5 -63.5t67.5 -22.5q89 0 105 86z" />
    <glyph glyph-name="ring.cap" 
d="M216 850q0 -40 -28.5 -67.5t-67.5 -27.5t-67.5 27.5t-28.5 67.5t28.5 67.5t67.5 27.5t67.5 -27.5t28.5 -67.5zM185 850q0 27 -19 46t-46 19t-46 -19t-19 -46t19 -46t46 -19t46 19t19 46z" />
    <glyph glyph-name="hungarumlaut.cap" 
d="M-30 764l101 144h72l-126 -144h-47zM124 764l101 144h72l-126 -144h-47z" />
    <glyph glyph-name="dotaccent.cap" 
d="M161 851q0 -17 -12.5 -29t-28.5 -12t-28.5 12t-12.5 29t12.5 29t28.5 12t28.5 -12t12.5 -29z" />
    <glyph glyph-name="commaaccent" 
d="M172 -45l-71 -185h-45l59 185h57z" />
    <glyph glyph-name="commaaccent.alt" 
d="M92 564l71 185h45l-59 -185h-57z" />
    <glyph glyph-name="zero.denominator" horiz-adv-x="364" 
d="M321 211q0 -43 -6.5 -79t-21.5 -69t-43.5 -52t-67.5 -19q-40 0 -68.5 19t-43.5 52t-21.5 69t-6.5 79q0 58 11 104t44 80.5t85 34.5t84.5 -34.5t43.5 -80t11 -104.5zM271 211q0 30 -4 58t-13 56t-27.5 45t-44.5 17q-35 0 -56.5 -31t-27.5 -67t-6 -78q0 -43 6 -79
t27.5 -66.5t56.5 -30.5q26 0 44.5 17t27.5 45t13 56t4 58z" />
    <glyph glyph-name="one.denominator" horiz-adv-x="364" 
d="M172 0v362l-73 -60l-31 34l112 85h41v-421h-49z" />
    <glyph glyph-name="two.denominator" horiz-adv-x="364" 
d="M313 0h-268v46l163 169q52 54 52 100q0 32 -21 51.5t-54 19.5q-30 0 -52.5 -19t-30.5 -53l-47 8q10 49 46 78.5t84 29.5q55 0 90.5 -30.5t35.5 -83.5q0 -38 -17.5 -67t-57.5 -70l-132 -136h209v-43z" />
    <glyph glyph-name="three.denominator" horiz-adv-x="364" 
d="M174 -8q-97 0 -135 88l45 15q24 -60 90 -60q38 0 62.5 21.5t24.5 60.5q0 41 -30 61.5t-73 20.5h-24v41h24q41 0 66 20t25 57q0 32 -22 51t-54 19q-51 0 -78 -48l-39 22q42 69 119 69q53 0 87.5 -30t34.5 -82q0 -70 -68 -96v-1q37 -10 59 -37.5t22 -66.5q0 -59 -39 -92
t-97 -33z" />
    <glyph glyph-name="four.denominator" horiz-adv-x="364" 
d="M267 0h-44v101h-190v43l177 278h57v-278h62v-43h-62v-101zM223 144v214h-3l-137 -214h140z" />
    <glyph glyph-name="five.denominator" horiz-adv-x="364" 
d="M313 134q0 -65 -39.5 -103.5t-100.5 -38.5q-92 0 -129 79l44 18q29 -54 85 -54q39 0 65 25.5t26 70.5q0 43 -26.5 69.5t-70.5 26.5q-40 0 -91 -28l4 223h216v-44h-169l-3 -119q21 9 54 9q61 0 98 -37.5t37 -96.5z" />
    <glyph glyph-name="six.denominator" horiz-adv-x="364" 
d="M320 127q0 -59 -39 -97t-99 -38q-59 0 -98 38t-39 97q0 50 38 112l112 183h57l-110 -173l1 -1q21 12 46 12q56 0 93.5 -37.5t37.5 -95.5zM271 127q0 39 -24 65t-63 26t-65 -26t-26 -65q0 -40 25 -66t65 -26q38 0 63 26t25 66z" />
    <glyph glyph-name="seven.denominator" horiz-adv-x="364" 
d="M143 0h-54l169 378h-196v44h249v-39z" />
    <glyph glyph-name="eight.denominator" horiz-adv-x="364" 
d="M317 116q0 -55 -39.5 -89.5t-95.5 -34.5t-96 34.5t-40 89.5q0 77 71 108v1q-55 29 -55 93q0 49 34.5 80.5t85.5 31.5t85.5 -31.5t34.5 -80.5q0 -63 -56 -93v-1q33 -13 52 -42.5t19 -65.5zM182 387q-31 0 -51.5 -20t-20.5 -51q0 -30 20.5 -50.5t51.5 -20.5t51.5 20.5
t20.5 50.5q0 31 -20.5 51t-51.5 20zM182 202q-38 0 -63 -24t-25 -60t24.5 -59.5t63.5 -23.5t63 23.5t24 59.5t-24.5 60t-62.5 24z" />
    <glyph glyph-name="nine.denominator" horiz-adv-x="364" 
d="M319 296q-1 -55 -38 -114l-112 -182h-57l111 174l-1 1q-20 -12 -47 -12q-56 0 -93.5 38t-37.5 95q0 58 39.5 96t98.5 38t98 -38t39 -96zM271 296q0 38 -25.5 64.5t-63.5 26.5q-39 0 -64 -26t-25 -65q0 -40 24.5 -65.5t63.5 -25.5t64.5 26t25.5 65z" />
    <glyph glyph-name="zero.numerator" horiz-adv-x="364" 
d="M321 497q0 -43 -6.5 -79t-21.5 -69t-43.5 -52t-67.5 -19q-40 0 -68.5 19t-43.5 52t-21.5 69t-6.5 79q0 58 11 104t44 80.5t85 34.5t84.5 -34.5t43.5 -80t11 -104.5zM271 497q0 30 -4 58t-13 56t-27.5 45t-44.5 17q-35 0 -56.5 -31t-27.5 -67t-6 -78q0 -43 6 -79
t27.5 -66.5t56.5 -30.5q26 0 44.5 17t27.5 45t13 56t4 58z" />
    <glyph glyph-name="one.numerator" horiz-adv-x="364" 
d="M172 287v361l-73 -59l-31 34l112 85h41v-421h-49z" />
    <glyph glyph-name="two.numerator" horiz-adv-x="364" 
d="M313 287h-268v46l163 169q52 54 52 99q0 33 -21 52t-54 19q-31 0 -53 -18.5t-30 -52.5l-47 8q10 49 46 78t84 29q55 0 90.5 -30.5t35.5 -82.5q0 -39 -18 -68t-57 -69l-132 -136h209v-43z" />
    <glyph glyph-name="three.numerator" horiz-adv-x="364" 
d="M174 278q-97 0 -135 89l45 15q24 -60 90 -60q38 0 62.5 21.5t24.5 60.5q0 40 -30 60.5t-73 20.5h-24v41h24q42 0 66.5 20.5t24.5 57.5q0 31 -22 50.5t-54 19.5q-51 0 -78 -48l-39 22q41 68 119 68q54 0 88 -29.5t34 -81.5q0 -34 -18.5 -59.5t-49.5 -36.5v-1
q37 -10 59 -37.5t22 -67.5q0 -59 -39 -92t-97 -33z" />
    <glyph glyph-name="four.numerator" horiz-adv-x="364" 
d="M267 286h-44v101h-190v43l177 278h57v-278h62v-43h-62v-101zM223 430v214h-3l-137 -214h140z" />
    <glyph glyph-name="five.numerator" horiz-adv-x="364" 
d="M313 420q0 -65 -39.5 -103.5t-100.5 -38.5q-92 0 -129 79l44 18q29 -54 85 -54q39 0 65 25.5t26 70.5q0 43 -26.5 69.5t-70.5 26.5q-40 0 -91 -28l4 223h216v-44h-169l-3 -119q21 9 54 9q61 0 98 -37.5t37 -96.5z" />
    <glyph glyph-name="six.numerator" horiz-adv-x="364" 
d="M320 413q0 -59 -39 -97t-99 -38q-59 0 -98 38t-39 97q0 50 38 112l112 183h57l-110 -173l1 -1q21 12 46 12q56 0 93.5 -37.5t37.5 -95.5zM271 413q0 39 -24 65t-63 26t-65 -26t-26 -65q0 -40 25 -66t65 -26q38 0 63 26t25 66z" />
    <glyph glyph-name="seven.numerator" horiz-adv-x="364" 
d="M143 286h-54l169 378h-196v44h249v-39z" />
    <glyph glyph-name="eight.numerator" horiz-adv-x="364" 
d="M317 402q0 -55 -39.5 -89.5t-95.5 -34.5t-96 34.5t-40 89.5q0 77 71 108v1q-55 29 -55 93q0 49 34.5 80.5t85.5 31.5t85.5 -31.5t34.5 -80.5q0 -63 -56 -93v-1q33 -13 52 -42.5t19 -65.5zM182 673q-31 0 -51.5 -20t-20.5 -51q0 -30 20.5 -50.5t51.5 -20.5t51.5 20.5
t20.5 50.5q0 31 -20.5 51t-51.5 20zM182 488q-38 0 -63 -24t-25 -60t24.5 -59.5t63.5 -23.5t63 23.5t24 59.5t-24.5 60t-62.5 24z" />
    <glyph glyph-name="nine.numerator" horiz-adv-x="364" 
d="M319 582q-1 -55 -38 -114l-112 -182h-57l111 174l-1 1q-20 -12 -47 -12q-56 0 -93.5 38t-37.5 95q0 58 39.5 96t98.5 38t98 -38t39 -96zM271 582q0 38 -25.5 64.5t-63.5 26.5q-39 0 -64 -26t-25 -65q0 -40 24.5 -65.5t63.5 -25.5t64.5 26t25.5 65z" />
    <glyph glyph-name="cyrbreve" 
d="M120 575q-58 0 -95.5 34.5t-44.5 90.5l38 7q7 -42 35 -65t67 -23t67 23t35 65l38 -7q-7 -56 -44.5 -90.5t-95.5 -34.5z" />
    <glyph glyph-name="cyrbreve.cap" 
d="M120 775q-58 0 -95.5 34.5t-44.5 90.5l38 7q7 -42 35 -65t67 -23t67 23t35 65l38 -7q-7 -56 -44.5 -90.5t-95.5 -34.5z" />
    <glyph glyph-name="exclam.sc" horiz-adv-x="275" 
d="M165 528v-377h-55v377h55zM182 39q0 -18 -12.5 -31.5t-31.5 -13.5q-20 0 -32 13t-12 32t12 32t32 13q19 0 31.5 -13.5t12.5 -31.5z" />
    <glyph glyph-name="dollar.sc" horiz-adv-x="478" 
d="M216 44v209q-66 19 -102.5 51.5t-36.5 90.5q0 60 39 94t100 39v56h39v-56q81 -3 133 -57l-37 -36q-39 49 -96 49v-190q74 -23 110.5 -59.5t36.5 -95.5t-42 -98t-105 -41v-58h-39v58q-90 4 -150 78l36 31q21 -29 52.5 -46.5t61.5 -18.5zM255 242v-198q41 3 67 28t26 67
q0 71 -93 103zM216 306v179q-37 -2 -62 -25t-25 -62q0 -38 22.5 -59t64.5 -33z" />
    <glyph glyph-name="percent.sc" horiz-adv-x="669" 
d="M310 411q0 -55 -37.5 -92.5t-92.5 -37.5q-54 0 -91.5 37.5t-37.5 92.5q0 54 37.5 91.5t91.5 37.5q55 0 92.5 -37.5t37.5 -91.5zM264 411q0 35 -24.5 59.5t-59.5 24.5q-34 0 -58.5 -24.5t-24.5 -59.5q0 -36 24.5 -60t58.5 -24q35 0 59.5 24t24.5 60zM619 117
q0 -55 -37.5 -92.5t-92.5 -37.5q-54 0 -91.5 37.5t-37.5 92.5q0 54 37.5 91.5t91.5 37.5q55 0 92.5 -37.5t37.5 -91.5zM573 117q0 36 -24.5 60t-59.5 24q-34 0 -58.5 -24t-24.5 -60t24.5 -60t58.5 -24q35 0 59.5 24t24.5 60zM522 534l-338 -564l-38 22l338 564z" />
    <glyph glyph-name="ampersand.sc" horiz-adv-x="569" 
d="M517 281l-94 -164l114 -117h-77l-68 72q-65 -85 -167 -85q-68 0 -115 41t-47 109q0 96 117 157q-58 66 -58 126q0 54 36.5 87t93.5 33t92 -31t35 -83q0 -81 -119 -142l125 -130l71 127h61zM324 425q0 32 -20.5 51t-51.5 19t-53.5 -21.5t-22.5 -55.5q0 -44 51 -100
q97 47 97 107zM356 109l-143 150q-92 -46 -92 -123q0 -45 30 -73.5t76 -28.5q81 0 129 75z" />
    <glyph glyph-name="parenleft.sc" horiz-adv-x="236" 
d="M84 264q0 -80 27 -162.5t71 -144.5l-42 -26q-49 66 -78.5 154.5t-29.5 178.5q0 91 29.5 179t78.5 154l42 -25q-44 -62 -71 -145t-27 -163z" />
    <glyph glyph-name="parenright.sc" horiz-adv-x="236" 
d="M203 264q0 -91 -29 -178.5t-78 -154.5l-43 25q45 62 72 145t27 163t-27 162.5t-72 144.5l43 26q49 -67 78 -155t29 -178z" />
    <glyph glyph-name="bracketleft.sc" horiz-adv-x="236" 
d="M177 -65h-128v658h128v-42h-77v-573h77v-43z" />
    <glyph glyph-name="backslash.sc" horiz-adv-x="289" 
d="M282 2l-47 -16l-227 541l46 16z" />
    <glyph glyph-name="bracketright.sc" horiz-adv-x="236" 
d="M187 -65h-128v43h76v573h-76v42h128v-658z" />
    <glyph glyph-name="braceleft.sc" horiz-adv-x="236" 
d="M195 -65h-50q-84 0 -84 97v125q0 45 -14 64t-44 19v48q30 0 44 19t14 64v125q0 97 84 97h50v-42h-41q-41 0 -41 -59v-121q0 -87 -62 -106v-2q62 -19 62 -107v-120q0 -58 41 -58h41v-43z" />
    <glyph glyph-name="slash.sc" horiz-adv-x="289" 
d="M55 -14l-47 16l227 541l47 -16z" />
    <glyph glyph-name="braceright.sc" horiz-adv-x="236" 
d="M90 -65h-49v43h41q41 0 41 58v121q0 87 62 106v2q-62 19 -62 107v120q0 59 -41 59h-41v42h49q84 0 84 -97v-125q0 -45 14.5 -64t44.5 -19v-48q-30 0 -44.5 -19t-14.5 -64v-125q0 -97 -84 -97z" />
    <glyph glyph-name="zero.sc" horiz-adv-x="478" 
d="M239 540q64 0 105 -43t56 -102t15 -132q0 -53 -9 -99.5t-28 -87.5t-55 -65t-84 -24q-49 0 -85 24t-55 65t-27.5 87t-8.5 100t8.5 100t27.5 87.5t55 65.5t85 24zM239 492q-34 0 -58 -22t-36 -58.5t-17 -73t-5 -75.5q0 -40 5 -76t17 -71.5t36 -57t58 -21.5q33 0 57.5 21.5
t36.5 57t17 72t5 75.5t-5 75.5t-17 73t-36.5 58.5t-57.5 22z" />
    <glyph glyph-name="one.sc" horiz-adv-x="478" 
d="M300 528v-528h-56v457l-93 -80l-33 39l132 112h50z" />
    <glyph glyph-name="two.sc" horiz-adv-x="478" 
d="M408 50v-50h-331v55l202 210q66 67 67 130q0 44 -27 69.5t-70 25.5q-39 0 -66.5 -23t-37.5 -67l-55 12q14 60 56 94t103 34q68 0 111 -38t43 -106q0 -77 -89 -169l-170 -177h264z" />
    <glyph glyph-name="three.sc" horiz-adv-x="478" 
d="M226 -13q-122 0 -169 112l52 20q34 -81 117 -81q49 0 81 29.5t32 78.5q0 54 -36.5 79.5t-93.5 25.5h-30v50h30q50 0 83 24.5t33 71.5q0 41 -29.5 67.5t-71.5 26.5q-65 0 -99 -62l-46 26q51 85 147 85q66 0 110 -37.5t44 -103.5q0 -40 -23 -72.5t-63 -45.5l-8 -4
q50 -11 79.5 -46.5t29.5 -83.5q0 -72 -47 -116t-122 -44z" />
    <glyph glyph-name="four.sc" horiz-adv-x="478" 
d="M340 528v-352h78v-49h-78v-127h-53v127h-236v50l224 351h65zM287 176v281h-2l-175 -281h177z" />
    <glyph glyph-name="five.sc" horiz-adv-x="478" 
d="M380 528v-50h-221l-5 -157q31 12 68 12q81 0 128.5 -45t47.5 -123q0 -79 -50 -128.5t-128 -49.5q-56 0 -98.5 27t-61.5 71l51 23q13 -34 42 -52t65 -18q53 0 88 34.5t35 89.5q0 56 -35 90t-93 34q-56 0 -113 -35l6 277h274z" />
    <glyph glyph-name="six.sc" horiz-adv-x="478" 
d="M240 -13q-76 0 -124 47t-48 122q0 66 49 143l143 229h64l-148 -229h1q33 20 72 20q70 0 116 -45t46 -117q0 -75 -47.5 -122.5t-123.5 -47.5zM240 38q51 0 83.5 33.5t32.5 84.5q0 50 -31.5 83.5t-82.5 33.5q-52 0 -85.5 -33t-33.5 -84t33 -84.5t84 -33.5z" />
    <glyph glyph-name="seven.sc" horiz-adv-x="478" 
d="M400 528v-47l-213 -481h-63l216 477h-255v51h315z" />
    <glyph glyph-name="eight.sc" horiz-adv-x="478" 
d="M388 398q0 -38 -21 -70t-57 -46v-2q46 -16 71.5 -53t25.5 -86q0 -70 -47.5 -112t-120.5 -42t-121 42t-48 112q0 49 25.5 86t71.5 53v2q-36 14 -57 46t-21 70q0 63 43 102.5t107 39.5q63 0 106 -39.5t43 -102.5zM126 147q0 -47 31.5 -78t81.5 -31t81.5 31t31.5 78
q0 46 -32 76.5t-81 30.5q-48 0 -80.5 -30.5t-32.5 -76.5zM144 396q0 -40 27 -65.5t68 -25.5q40 0 67.5 25.5t27.5 65.5q0 42 -26.5 68t-68.5 26t-68.5 -26t-26.5 -68z" />
    <glyph glyph-name="nine.sc" horiz-adv-x="478" 
d="M154 0l148 229h-4q-30 -19 -68 -19q-69 0 -115.5 44.5t-46.5 116.5q0 74 47.5 121.5t123.5 47.5q75 0 123.5 -46.5t48.5 -121.5q0 -67 -50 -143l-143 -229h-64zM237 256q52 0 85 33t33 83q0 51 -33 84t-83 33q-51 0 -83 -33t-32 -84q0 -50 31 -83t82 -33z" />
    <glyph glyph-name="question.sc" horiz-adv-x="353" 
d="M146 157v37q0 57 50 106l12 11.5t11 11.5q25 25 34.5 43t9.5 48q0 37 -22.5 61.5t-60.5 24.5q-72 0 -89 -85l-53 9q11 60 48 92.5t97 32.5q64 0 100 -37.5t36 -94.5q0 -43 -15 -71.5t-50 -57.5q-33 -28 -43.5 -50t-10.5 -56v-25h-54zM177 -6q-18 0 -30.5 13t-12.5 31
t12.5 31t30.5 13q19 0 31.5 -13t12.5 -31t-12.5 -31t-31.5 -13z" />
    <glyph glyph-name="a.sc" horiz-adv-x="528" 
d="M128 137l-58 -137h-59l228 528h52l225 -528h-62l-56 137h-270zM264 464l-116 -279h229z" />
    <glyph glyph-name="b.sc" horiz-adv-x="508" 
d="M94 0v528h168q68 0 116 -31.5t48 -100.5q0 -89 -88 -118v-2q49 -8 81 -41.5t32 -88.5q0 -72 -54 -109t-137 -37h-166zM149 478v-179h107q49 0 81.5 22.5t32.5 69.5q0 87 -125 87h-96zM149 250v-200h105q61 0 100.5 23.5t39.5 75.5q0 101 -132 101h-113z" />
    <glyph glyph-name="c.sc" horiz-adv-x="558" 
d="M486 109l41 -30q-72 -92 -196 -92q-119 0 -196.5 78t-77.5 199t78.5 198.5t197.5 77.5q55 0 104.5 -20.5t79.5 -57.5l-42 -34q-22 28 -60.5 45t-81.5 17q-96 0 -156 -65t-60 -161t59.5 -161t155.5 -65q98 0 154 71z" />
    <glyph glyph-name="d.sc" horiz-adv-x="607" 
d="M94 0v528h171q74 0 136.5 -26.5t105 -88t42.5 -149.5q0 -86 -42.5 -147.5t-105 -89t-136.5 -27.5h-171zM149 478v-428h104q107 0 172 57t65 157t-65 157t-172 57h-104z" />
    <glyph glyph-name="e.sc" horiz-adv-x="492" 
d="M149 249v-199h283v-50h-338v528h327v-50h-272v-180h256v-49h-256z" />
    <glyph glyph-name="f.sc" horiz-adv-x="463" 
d="M149 245v-245h-55v528h319v-50h-264v-184h247v-49h-247z" />
    <glyph glyph-name="g.sc" horiz-adv-x="615" 
d="M523 473l-38 -40q-54 57 -150 57q-98 0 -158 -65t-60 -160q0 -97 60.5 -162t159.5 -65q83 0 139 32v162h-123v49h179v-246q-86 -48 -196 -48q-123 0 -201 78.5t-78 199.5t78.5 198t199.5 77q118 0 188 -67z" />
    <glyph glyph-name="h.sc" horiz-adv-x="606" 
d="M94 0v528h55v-231h307v231h56v-528h-56v249h-307v-249h-55z" />
    <glyph glyph-name="i.sc" horiz-adv-x="243" 
d="M149 528v-528h-55v528h55z" />
    <glyph glyph-name="j.sc" horiz-adv-x="392" 
d="M21 92l52 16q20 -69 87 -69q91 0 91 121v368h56v-372q0 -70 -33.5 -119.5t-110.5 -49.5q-55 0 -92 29t-50 76z" />
    <glyph glyph-name="k.sc" horiz-adv-x="502" 
d="M149 528v-236h2l246 236h78l-261 -242l276 -286h-81l-258 277h-2v-277h-55v528h55z" />
    <glyph glyph-name="l.sc" horiz-adv-x="412" 
d="M149 528v-478h244v-50h-299v528h55z" />
    <glyph glyph-name="m.sc" horiz-adv-x="720" 
d="M94 0v528h88l179 -436l178 436h87v-528h-55v461h-3l-191 -461h-35l-191 461h-2v-461h-55z" />
    <glyph glyph-name="n.sc" horiz-adv-x="612" 
d="M166 528l295 -448h2v448h56v-528h-71l-297 454h-2v-454h-55v528h72z" />
    <glyph glyph-name="o.sc" horiz-adv-x="668" 
d="M611 265q0 -121 -78.5 -199.5t-199.5 -78.5q-119 0 -197.5 78.5t-78.5 199.5t78 198t198 77q121 0 199.5 -76.5t78.5 -198.5zM551 265q0 96 -60 161.5t-158 65.5q-97 0 -156.5 -65.5t-59.5 -161.5t59.5 -161.5t156.5 -65.5q98 0 158 65.5t60 161.5z" />
    <glyph glyph-name="p.sc" horiz-adv-x="477" 
d="M94 0v528h160q81 0 130 -39t49 -114q0 -73 -50.5 -113t-130.5 -40h-103v-222h-55zM149 478v-209h100q57 0 92 27.5t35 78.5q0 53 -35 78t-93 25h-99z" />
    <glyph glyph-name="q.sc" horiz-adv-x="668" 
d="M634 50v-50h-305q-118 0 -195 74.5t-77 194.5q0 118 77.5 194.5t194.5 76.5t194 -76.5t77 -194.5q0 -74 -34.5 -131.5t-92.5 -85.5v-2h161zM117 269q0 -93 59 -156t153 -63q95 0 153.5 63.5t58.5 155.5q0 93 -59 157.5t-153 64.5q-93 0 -152.5 -64.5t-59.5 -157.5z" />
    <glyph glyph-name="r.sc" horiz-adv-x="491" 
d="M149 243v-243h-55v528h159q80 0 131 -34t51 -108q0 -59 -37.5 -94t-97.5 -42l150 -250h-67l-142 243h-92zM149 478v-186h97q132 0 132 94q0 92 -130 92h-99z" />
    <glyph glyph-name="s.sc" horiz-adv-x="440" 
d="M378 479l-40 -38q-38 51 -109 51q-45 0 -79.5 -25t-34.5 -71q0 -39 28 -62t67.5 -35.5t79 -27t67.5 -46.5t28 -83q0 -74 -51 -114.5t-124 -40.5q-49 0 -94 19.5t-73 55.5l44 37q45 -63 124 -63q47 0 82.5 26.5t35.5 74.5q0 39 -28 62.5t-67.5 36t-79.5 27t-68 47
t-28 84.5q0 70 51.5 108t122.5 38q95 0 146 -61z" />
    <glyph glyph-name="t.sc" horiz-adv-x="428" 
d="M241 478v-478h-56v478h-172v50h402v-50h-174z" />
    <glyph glyph-name="u.sc" horiz-adv-x="574" 
d="M287 -13q-101 0 -151 61t-50 150v330h55v-326q0 -70 35 -116.5t111 -46.5t111 46.5t35 116.5v326h56v-330q0 -89 -50.5 -150t-151.5 -61z" />
    <glyph glyph-name="v.sc" horiz-adv-x="488" 
d="M73 528l170 -458h2l170 458h61l-204 -528h-57l-203 528h61z" />
    <glyph glyph-name="w.sc" horiz-adv-x="759" 
d="M85 528l128 -451h2l132 451h65l132 -451h2l128 451h60l-156 -528h-63l-135 452l-137 -452h-62l-155 528h59z" />
    <glyph glyph-name="x.sc" horiz-adv-x="474" 
d="M99 528l138 -211l137 211h65l-168 -251l189 -277h-69l-154 235l-154 -235h-69l188 277l-171 251h68z" />
    <glyph glyph-name="y.sc" horiz-adv-x="450" 
d="M252 229v-229h-55v229l-193 299h67l154 -253l155 253h66z" />
    <glyph glyph-name="z.sc" horiz-adv-x="484" 
d="M429 528v-50l-312 -428h317v-50h-384v50l311 428h-303v50h371z" />
    <glyph glyph-name="agrave.sc" horiz-adv-x="528" 
d="M128 137l-58 -137h-59l228 528h52l225 -528h-62l-56 137h-270zM264 464l-116 -279h229zM240 585l-126 144h72l101 -144h-47z" />
    <glyph glyph-name="aacute.sc" horiz-adv-x="528" 
d="M128 137l-58 -137h-59l228 528h52l225 -528h-62l-56 137h-270zM264 464l-116 -279h229zM417 729l-126 -144h-47l101 144h72z" />
    <glyph glyph-name="acircumflex.sc" horiz-adv-x="528" 
d="M128 137l-58 -137h-59l228 528h52l225 -528h-62l-56 137h-270zM264 464l-116 -279h229zM296 729l107 -144h-53l-86 115l-86 -115h-53l107 144h64z" />
    <glyph glyph-name="atilde.sc" horiz-adv-x="528" 
d="M128 137l-58 -137h-59l228 528h52l225 -528h-62l-56 137h-270zM264 464l-116 -279h229zM151 605h-35q15 94 82 94q23 0 71.5 -23t63.5 -23q35 0 46 49h35q-15 -93 -81 -93q-24 0 -72 23.5t-63 23.5q-36 0 -47 -51z" />
    <glyph glyph-name="adieresis.sc" horiz-adv-x="528" 
d="M128 137l-58 -137h-59l228 528h52l225 -528h-62l-56 137h-270zM264 464l-116 -279h229zM132 672q0 17 12.5 30t30.5 13t30 -13t12 -30q0 -18 -12 -31t-30 -13t-30.5 13t-12.5 31zM313 672q0 17 12 30t30 13t30.5 -13t12.5 -30q0 -18 -12.5 -31t-30.5 -13t-30 13t-12 31z
" />
    <glyph glyph-name="amacron.sc" horiz-adv-x="528" 
d="M128 137l-58 -137h-59l228 528h52l225 -528h-62l-56 137h-270zM264 464l-116 -279h229zM394 671v-44h-258v44h258z" />
    <glyph glyph-name="abreve.sc" horiz-adv-x="528" 
d="M128 137l-58 -137h-59l228 528h52l225 -528h-62l-56 137h-270zM264 464l-116 -279h229zM369 726h36q-5 -61 -43.5 -95.5t-97.5 -34.5t-97 34.5t-43 95.5h37q7 -41 35.5 -63.5t67.5 -22.5q89 0 105 86z" />
    <glyph glyph-name="aring.sc" horiz-adv-x="528" 
d="M128 137l-58 -137h-59l228 528h52l225 -528h-62l-56 137h-270zM264 464l-116 -279h229zM361 671q0 -40 -28.5 -67.5t-67.5 -27.5t-67.5 27.5t-28.5 67.5t28.5 67.5t67.5 27.5t67.5 -27.5t28.5 -67.5zM330 671q0 27 -19 46t-46 19t-46 -19t-19 -46t19 -46t46 -19t46 19
t19 46z" />
    <glyph glyph-name="aogonek.sc" horiz-adv-x="528" 
d="M11 0l228 528h52l225 -528l-12 -1l-11 -1q-43 -42 -61.5 -69t-18.5 -56q0 -24 15.5 -38.5t38.5 -14.5q35 0 57 24l16 -32q-35 -35 -88 -35q-36 0 -62 23.5t-26 60.5q0 62 90 139l-56 137h-270l-58 -137h-59zM148 185h229l-113 279z" />
    <glyph glyph-name="ae.sc" horiz-adv-x="767" 
d="M424 249v-199h283v-50h-338v147h-222l-95 -147h-64l343 528h365v-50h-272v-180h256v-49h-256zM359 478l-181 -283h191v283h-10z" />
    <glyph glyph-name="cacute.sc" horiz-adv-x="558" 
d="M486 109l41 -30q-72 -92 -196 -92q-119 0 -196.5 78t-77.5 199t78.5 198.5t197.5 77.5q55 0 104.5 -20.5t79.5 -57.5l-42 -34q-22 28 -60.5 45t-81.5 17q-96 0 -156 -65t-60 -161t59.5 -161t155.5 -65q98 0 154 71zM445 729l-126 -144h-47l101 144h72z" />
    <glyph glyph-name="ccircumflex.sc" horiz-adv-x="558" 
d="M486 109l41 -30q-72 -92 -196 -92q-119 0 -196.5 78t-77.5 199t78.5 198.5t197.5 77.5q55 0 104.5 -20.5t79.5 -57.5l-42 -34q-22 28 -60.5 45t-81.5 17q-96 0 -156 -65t-60 -161t59.5 -161t155.5 -65q98 0 154 71zM365 729l107 -144h-53l-86 115l-86 -115h-53l107 144
h64z" />
    <glyph glyph-name="ccaron.sc" horiz-adv-x="558" 
d="M486 109l41 -30q-72 -92 -196 -92q-119 0 -196.5 78t-77.5 199t78.5 198.5t197.5 77.5q55 0 104.5 -20.5t79.5 -57.5l-42 -34q-22 28 -60.5 45t-81.5 17q-96 0 -156 -65t-60 -161t59.5 -161t155.5 -65q98 0 154 71zM470 729l-107 -144h-64l-107 144h53l86 -115l86 115h53
z" />
    <glyph glyph-name="cdotaccent.sc" horiz-adv-x="558" 
d="M486 109l41 -30q-72 -92 -196 -92q-119 0 -196.5 78t-77.5 199t78.5 198.5t197.5 77.5q55 0 104.5 -20.5t79.5 -57.5l-42 -34q-22 28 -60.5 45t-81.5 17q-96 0 -156 -65t-60 -161t59.5 -161t155.5 -65q98 0 154 71zM375 672q0 -17 -12.5 -29t-28.5 -12t-28.5 12t-12.5 29
t12.5 29t28.5 12t28.5 -12t12.5 -29z" />
    <glyph glyph-name="ccedilla.sc" horiz-adv-x="558" 
d="M486 109l41 -30q-71 -89 -192 -92l-41 -65q15 5 40 5q33 0 58.5 -18.5t25.5 -52.5q0 -45 -35 -65t-81 -20q-50 0 -93 20l13 31q33 -16 76 -16q26 0 49 12t23 37q0 43 -60 43q-28 0 -51 -10l-15 13l56 88q-108 10 -175.5 86t-67.5 189q0 121 78.5 198.5t197.5 77.5
q55 0 104.5 -20.5t79.5 -57.5l-42 -34q-22 28 -60.5 45t-81.5 17q-96 0 -156 -65t-60 -161t59.5 -161t155.5 -65q98 0 154 71z" />
    <glyph glyph-name="dcaron.sc" horiz-adv-x="607" 
d="M94 0v528h171q74 0 136.5 -26.5t105 -88t42.5 -149.5q0 -86 -42.5 -147.5t-105 -89t-136.5 -27.5h-171zM149 478v-428h104q107 0 172 57t65 157t-65 157t-172 57h-104zM429 729l-107 -144h-64l-107 144h53l86 -115l86 115h53z" />
    <glyph glyph-name="dcroat.sc" horiz-adv-x="607" 
d="M18 255v42h76v231h171q74 0 136.5 -26.5t105 -88t42.5 -149.5q0 -86 -42.5 -147.5t-105 -89t-136.5 -27.5h-171v255h-76zM149 478v-181h154v-42h-154v-205h104q107 0 172 57t65 157t-65 157t-172 57h-104z" />
    <glyph glyph-name="eth.sc" horiz-adv-x="607" 
d="M18 255v42h76v231h171q74 0 136.5 -26.5t105 -88t42.5 -149.5q0 -86 -42.5 -147.5t-105 -89t-136.5 -27.5h-171v255h-76zM149 478v-181h154v-42h-154v-205h104q107 0 172 57t65 157t-65 157t-172 57h-104z" />
    <glyph glyph-name="egrave.sc" horiz-adv-x="492" 
d="M149 249v-199h283v-50h-338v528h327v-50h-272v-180h256v-49h-256zM250 585l-126 144h72l101 -144h-47z" />
    <glyph glyph-name="eacute.sc" horiz-adv-x="492" 
d="M149 249v-199h283v-50h-338v528h327v-50h-272v-180h256v-49h-256zM393 729l-126 -144h-47l101 144h72z" />
    <glyph glyph-name="ecircumflex.sc" horiz-adv-x="492" 
d="M149 249v-199h283v-50h-338v528h327v-50h-272v-180h256v-49h-256zM288 729l107 -144h-53l-86 115l-86 -115h-53l107 144h64z" />
    <glyph glyph-name="ecaron.sc" horiz-adv-x="492" 
d="M149 249v-199h283v-50h-338v528h327v-50h-272v-180h256v-49h-256zM398 729l-107 -144h-64l-107 144h53l86 -115l86 115h53z" />
    <glyph glyph-name="edieresis.sc" horiz-adv-x="492" 
d="M149 249v-199h283v-50h-338v528h327v-50h-272v-180h256v-49h-256zM126 672q0 17 12.5 30t30.5 13t30 -13t12 -30q0 -18 -12 -31t-30 -13t-30.5 13t-12.5 31zM307 672q0 17 12 30t30 13t30.5 -13t12.5 -30q0 -18 -12.5 -31t-30.5 -13t-30 13t-12 31z" />
    <glyph glyph-name="emacron.sc" horiz-adv-x="492" 
d="M149 249v-199h283v-50h-338v528h327v-50h-272v-180h256v-49h-256zM389 671v-44h-258v44h258z" />
    <glyph glyph-name="ebreve.sc" horiz-adv-x="492" 
d="M149 249v-199h283v-50h-338v528h327v-50h-272v-180h256v-49h-256zM361 726h36q-5 -61 -43.5 -95.5t-97.5 -34.5t-97 34.5t-43 95.5h37q7 -41 35.5 -63.5t67.5 -22.5q89 0 105 86z" />
    <glyph glyph-name="edotaccent.sc" horiz-adv-x="492" 
d="M149 249v-199h283v-50h-338v528h327v-50h-272v-180h256v-49h-256zM303 672q0 -17 -12.5 -29t-28.5 -12t-28.5 12t-12.5 29t12.5 29t28.5 12t28.5 -12t12.5 -29z" />
    <glyph glyph-name="eogonek.sc" horiz-adv-x="492" 
d="M443 -156l16 -32q-35 -35 -87 -35q-37 0 -63 23.5t-26 60.5q0 62 90 139h-279v528h327v-50h-272v-180h256v-49h-256v-199h283v-50h-18q-45 -45 -63.5 -71.5t-18.5 -55.5q0 -24 15.5 -38.5t38.5 -14.5q35 0 57 24z" />
    <glyph glyph-name="gcircumflex.sc" horiz-adv-x="615" 
d="M523 473l-38 -40q-54 57 -150 57q-98 0 -158 -65t-60 -160q0 -97 60.5 -162t159.5 -65q83 0 139 32v162h-123v49h179v-246q-86 -48 -196 -48q-123 0 -201 78.5t-78 199.5t78.5 198t199.5 77q118 0 188 -67zM368 729l107 -144h-53l-86 115l-86 -115h-53l107 144h64z" />
    <glyph glyph-name="gbreve.sc" horiz-adv-x="615" 
d="M523 473l-38 -40q-54 57 -150 57q-98 0 -158 -65t-60 -160q0 -97 60.5 -162t159.5 -65q83 0 139 32v162h-123v49h179v-246q-86 -48 -196 -48q-123 0 -201 78.5t-78 199.5t78.5 198t199.5 77q118 0 188 -67zM441 726h36q-5 -61 -43.5 -95.5t-97.5 -34.5t-97 34.5t-43 95.5
h37q7 -41 35.5 -63.5t67.5 -22.5q89 0 105 86z" />
    <glyph glyph-name="gdotaccent.sc" horiz-adv-x="615" 
d="M523 473l-38 -40q-54 57 -150 57q-98 0 -158 -65t-60 -160q0 -97 60.5 -162t159.5 -65q83 0 139 32v162h-123v49h179v-246q-86 -48 -196 -48q-123 0 -201 78.5t-78 199.5t78.5 198t199.5 77q118 0 188 -67zM375 672q0 -17 -12.5 -29t-28.5 -12t-28.5 12t-12.5 29t12.5 29
t28.5 12t28.5 -12t12.5 -29z" />
    <glyph glyph-name="gcommaaccent.sc" horiz-adv-x="615" 
d="M523 473l-38 -40q-54 57 -150 57q-98 0 -158 -65t-60 -160q0 -97 60.5 -162t159.5 -65q83 0 139 32v162h-123v49h179v-246q-86 -48 -196 -48q-123 0 -201 78.5t-78 199.5t78.5 198t199.5 77q118 0 188 -67zM371 -45l-71 -185h-45l59 185h57z" />
    <glyph glyph-name="kgreenlandic.sc" horiz-adv-x="502" 
d="M149 528v-236h2l246 236h78l-261 -242l276 -286h-81l-258 277h-2v-277h-55v528h55z" />
    <glyph glyph-name="hcircumflex.sc" horiz-adv-x="606" 
d="M94 0v528h55v-231h307v231h56v-528h-56v249h-307v-249h-55zM334 729l107 -144h-53l-86 115l-86 -115h-53l107 144h64z" />
    <glyph glyph-name="hbar.sc" horiz-adv-x="606" 
d="M94 0v528h55v-115h307v115h56v-528h-56v249h-307v-249h-55zM149 297h307v83h-307v-83z" />
    <glyph glyph-name="igrave.sc" horiz-adv-x="243" 
d="M149 528v-528h-55v528h55zM103 585l-126 144h72l101 -144h-47z" />
    <glyph glyph-name="iacute.sc" horiz-adv-x="243" 
d="M149 528v-528h-55v528h55zM268 729l-126 -144h-47l101 144h72z" />
    <glyph glyph-name="ibreve.sc" horiz-adv-x="243" 
d="M149 528v-528h-55v528h55zM226 726h36q-5 -61 -43.5 -95.5t-97.5 -34.5t-97 34.5t-43 95.5h37q7 -41 35.5 -63.5t67.5 -22.5q89 0 105 86z" />
    <glyph glyph-name="icircumflex.sc" horiz-adv-x="243" 
d="M149 528v-528h-55v528h55zM152 729l107 -144h-53l-86 115l-86 -115h-53l107 144h64z" />
    <glyph glyph-name="itilde.sc" horiz-adv-x="243" 
d="M149 528v-528h-55v528h55zM7 605h-35q15 94 82 94q23 0 71.5 -23t63.5 -23q35 0 46 49h35q-15 -93 -81 -93q-24 0 -72 23.5t-63 23.5q-36 0 -47 -51z" />
    <glyph glyph-name="idieresis.sc" horiz-adv-x="243" 
d="M149 528v-528h-55v528h55zM-13 672q0 17 12.5 30t30.5 13t30 -13t12 -30q0 -18 -12 -31t-30 -13t-30.5 13t-12.5 31zM168 672q0 17 12 30t30 13t30.5 -13t12.5 -30q0 -18 -12.5 -31t-30.5 -13t-30 13t-12 31z" />
    <glyph glyph-name="imacron.sc" horiz-adv-x="243" 
d="M149 528v-528h-55v528h55zM251 671v-44h-258v44h258z" />
    <glyph glyph-name="idotaccent.sc" horiz-adv-x="243" 
d="M149 528v-528h-55v528h55zM164 651q0 -17 -12.5 -29t-28.5 -12t-28.5 12t-12.5 29t12.5 29t28.5 12t28.5 -12t12.5 -29z" />
    <glyph glyph-name="iogonek.sc" horiz-adv-x="243" 
d="M107 -223q-36 0 -62 23.5t-26 60.5q0 61 89 138h-2.5t-4.5 0.5t-5 0.5h-2v528h55v-528q-44 -45 -62.5 -71.5t-18.5 -55.5q0 -24 15.5 -38.5t38.5 -14.5q35 0 57 24l16 -32q-35 -35 -88 -35z" />
    <glyph glyph-name="jcircumflex.sc" horiz-adv-x="392" 
d="M21 92l52 16q20 -69 87 -69q91 0 91 121v368h56v-372q0 -70 -33.5 -119.5t-110.5 -49.5q-55 0 -92 29t-50 76zM309 729l107 -144h-53l-86 115l-86 -115h-53l107 144h64z" />
    <glyph glyph-name="kcommaaccent.sc" horiz-adv-x="502" 
d="M149 528v-236h2l246 236h78l-261 -242l276 -286h-81l-258 277h-2v-277h-55v528h55zM306 -44l-71 -185h-45l59 185h57z" />
    <glyph glyph-name="lacute.sc" horiz-adv-x="412" 
d="M149 528v-478h244v-50h-299v528h55zM272 729l-126 -144h-47l101 144h72z" />
    <glyph glyph-name="lcaron.sc" horiz-adv-x="412" 
d="M149 528v-478h244v-50h-299v528h55zM337 528l-71 -185h-45l59 185h57z" />
    <glyph glyph-name="lcommaaccent.sc" horiz-adv-x="412" 
d="M149 528v-478h244v-50h-299v528h55zM288 -47l-71 -185h-45l59 185h57z" />
    <glyph glyph-name="lslash.sc" horiz-adv-x="412" 
d="M149 528v-181l123 103v-56l-123 -104v-240h244v-50h-299v244l-77 -64v57l77 64v227h55z" />
    <glyph glyph-name="ldot.sc" horiz-adv-x="412" 
d="M149 528v-478h244v-50h-299v528h55zM316 312q0 -17 -12.5 -29t-28.5 -12t-28.5 12t-12.5 29t12.5 29t28.5 12t28.5 -12t12.5 -29z" />
    <glyph glyph-name="nacute.sc" horiz-adv-x="612" 
d="M166 528l295 -448h2v448h56v-528h-71l-297 454h-2v-454h-55v528h72zM428 729l-126 -144h-47l101 144h72z" />
    <glyph glyph-name="ncaron.sc" horiz-adv-x="612" 
d="M166 528l295 -448h2v448h56v-528h-71l-297 454h-2v-454h-55v528h72zM446 729l-107 -144h-64l-107 144h53l86 -115l86 115h53z" />
    <glyph glyph-name="ntilde.sc" horiz-adv-x="612" 
d="M166 528l295 -448h2v448h56v-528h-71l-297 454h-2v-454h-55v528h72zM192 605h-35q15 94 82 94q23 0 71.5 -23t63.5 -23q35 0 46 49h35q-15 -93 -81 -93q-24 0 -72 23.5t-63 23.5q-36 0 -47 -51z" />
    <glyph glyph-name="ncommaaccent.sc" horiz-adv-x="612" 
d="M166 528l295 -448h2v448h56v-528h-71l-297 454h-2v-454h-55v528h72zM346 -45l-71 -185h-45l59 185h57z" />
    <glyph glyph-name="ograve.sc" horiz-adv-x="668" 
d="M611 265q0 -121 -78.5 -199.5t-199.5 -78.5q-119 0 -197.5 78.5t-78.5 199.5t78 198t198 77q121 0 199.5 -76.5t78.5 -198.5zM551 265q0 96 -60 161.5t-158 65.5q-97 0 -156.5 -65.5t-59.5 -161.5t59.5 -161.5t156.5 -65.5q98 0 158 65.5t60 161.5zM327 585l-126 144h72
l101 -144h-47z" />
    <glyph glyph-name="oacute.sc" horiz-adv-x="668" 
d="M611 265q0 -121 -78.5 -199.5t-199.5 -78.5q-119 0 -197.5 78.5t-78.5 199.5t78 198t198 77q121 0 199.5 -76.5t78.5 -198.5zM551 265q0 96 -60 161.5t-158 65.5q-97 0 -156.5 -65.5t-59.5 -161.5t59.5 -161.5t156.5 -65.5q98 0 158 65.5t60 161.5zM465 729l-126 -144
h-47l101 144h72z" />
    <glyph glyph-name="ocircumflex.sc" horiz-adv-x="668" 
d="M611 265q0 -121 -78.5 -199.5t-199.5 -78.5q-119 0 -197.5 78.5t-78.5 199.5t78 198t198 77q121 0 199.5 -76.5t78.5 -198.5zM551 265q0 96 -60 161.5t-158 65.5q-97 0 -156.5 -65.5t-59.5 -161.5t59.5 -161.5t156.5 -65.5q98 0 158 65.5t60 161.5zM365 729l107 -144h-53
l-86 115l-86 -115h-53l107 144h64z" />
    <glyph glyph-name="otilde.sc" horiz-adv-x="668" 
d="M611 265q0 -121 -78.5 -199.5t-199.5 -78.5q-119 0 -197.5 78.5t-78.5 199.5t78 198t198 77q121 0 199.5 -76.5t78.5 -198.5zM551 265q0 96 -60 161.5t-158 65.5q-97 0 -156.5 -65.5t-59.5 -161.5t59.5 -161.5t156.5 -65.5q98 0 158 65.5t60 161.5zM220 605h-35
q15 94 82 94q23 0 71.5 -23t63.5 -23q35 0 46 49h35q-15 -93 -81 -93q-24 0 -72 23.5t-63 23.5q-36 0 -47 -51z" />
    <glyph glyph-name="odieresis.sc" horiz-adv-x="668" 
d="M611 265q0 -121 -78.5 -199.5t-199.5 -78.5q-119 0 -197.5 78.5t-78.5 199.5t78 198t198 77q121 0 199.5 -76.5t78.5 -198.5zM551 265q0 96 -60 161.5t-158 65.5q-97 0 -156.5 -65.5t-59.5 -161.5t59.5 -161.5t156.5 -65.5q98 0 158 65.5t60 161.5zM200 672q0 17 12.5 30
t30.5 13t30 -13t12 -30q0 -18 -12 -31t-30 -13t-30.5 13t-12.5 31zM381 672q0 17 12 30t30 13t30.5 -13t12.5 -30q0 -18 -12.5 -31t-30.5 -13t-30 13t-12 31z" />
    <glyph glyph-name="omacron.sc" horiz-adv-x="668" 
d="M611 265q0 -121 -78.5 -199.5t-199.5 -78.5q-119 0 -197.5 78.5t-78.5 199.5t78 198t198 77q121 0 199.5 -76.5t78.5 -198.5zM551 265q0 96 -60 161.5t-158 65.5q-97 0 -156.5 -65.5t-59.5 -161.5t59.5 -161.5t156.5 -65.5q98 0 158 65.5t60 161.5zM463 671v-44h-258v44
h258z" />
    <glyph glyph-name="obreve.sc" horiz-adv-x="668" 
d="M611 265q0 -121 -78.5 -199.5t-199.5 -78.5q-119 0 -197.5 78.5t-78.5 199.5t78 198t198 77q121 0 199.5 -76.5t78.5 -198.5zM551 265q0 96 -60 161.5t-158 65.5q-97 0 -156.5 -65.5t-59.5 -161.5t59.5 -161.5t156.5 -65.5q98 0 158 65.5t60 161.5zM438 726h36
q-5 -61 -43.5 -95.5t-97.5 -34.5t-97 34.5t-43 95.5h37q7 -41 35.5 -63.5t67.5 -22.5q89 0 105 86z" />
    <glyph glyph-name="ohungarumlaut.sc" horiz-adv-x="668" 
d="M611 265q0 -121 -78.5 -199.5t-199.5 -78.5q-119 0 -197.5 78.5t-78.5 199.5t78 198t198 77q121 0 199.5 -76.5t78.5 -198.5zM551 265q0 96 -60 161.5t-158 65.5q-97 0 -156.5 -65.5t-59.5 -161.5t59.5 -161.5t156.5 -65.5q98 0 158 65.5t60 161.5zM228 585l101 144h72
l-126 -144h-47zM382 585l101 144h72l-126 -144h-47z" />
    <glyph glyph-name="oslash.sc" horiz-adv-x="668" 
d="M73 -22l-26 26l74 76q-64 77 -64 185q0 121 78 198t198 77q109 0 180 -59l67 69l26 -26l-66 -68q71 -77 71 -191q0 -122 -78.5 -200t-199.5 -78q-110 0 -187 66zM333 37q98 0 158 65.5t60 162.5q0 87 -51 150l-315 -322q59 -56 148 -56zM161 121l313 320q-59 51 -141 51
q-97 0 -156.5 -65.5t-59.5 -161.5q0 -85 44 -144z" />
    <glyph glyph-name="oe.sc" horiz-adv-x="778" 
d="M434 249v-199h284v-50h-381q-116 0 -195 73.5t-79 190.5t79.5 190.5t194.5 73.5h370v-50h-273v-180h256v-49h-256zM337 50h42v428h-42q-93 0 -154 -61t-61 -153t61 -153t154 -61z" />
    <glyph glyph-name="racute.sc" horiz-adv-x="491" 
d="M149 243v-243h-55v528h159q80 0 131 -34t51 -108q0 -59 -37.5 -94t-97.5 -42l150 -250h-67l-142 243h-92zM149 478v-186h97q132 0 132 94q0 92 -130 92h-99zM365 729l-126 -144h-47l101 144h72z" />
    <glyph glyph-name="rcaron.sc" horiz-adv-x="491" 
d="M149 243v-243h-55v528h159q80 0 131 -34t51 -108q0 -59 -37.5 -94t-97.5 -42l150 -250h-67l-142 243h-92zM149 478v-186h97q132 0 132 94q0 92 -130 92h-99zM387 729l-107 -144h-64l-107 144h53l86 -115l86 115h53z" />
    <glyph glyph-name="rcommaaccent.sc" horiz-adv-x="491" 
d="M149 243v-243h-55v528h159q80 0 131 -34t51 -108q0 -59 -37.5 -94t-97.5 -42l150 -250h-67l-142 243h-92zM149 478v-186h97q132 0 132 94q0 92 -130 92h-99zM296 -45l-71 -185h-45l59 185h57z" />
    <glyph glyph-name="sacute.sc" horiz-adv-x="440" 
d="M378 479l-40 -38q-38 51 -109 51q-45 0 -79.5 -25t-34.5 -71q0 -39 28 -62t67.5 -35.5t79 -27t67.5 -46.5t28 -83q0 -74 -51 -114.5t-124 -40.5q-49 0 -94 19.5t-73 55.5l44 37q45 -63 124 -63q47 0 82.5 26.5t35.5 74.5q0 39 -28 62.5t-67.5 36t-79.5 27t-68 47
t-28 84.5q0 70 51.5 108t122.5 38q95 0 146 -61zM343 729l-126 -144h-47l101 144h72z" />
    <glyph glyph-name="scircumflex.sc" horiz-adv-x="440" 
d="M378 479l-40 -38q-38 51 -109 51q-45 0 -79.5 -25t-34.5 -71q0 -39 28 -62t67.5 -35.5t79 -27t67.5 -46.5t28 -83q0 -74 -51 -114.5t-124 -40.5q-49 0 -94 19.5t-73 55.5l44 37q45 -63 124 -63q47 0 82.5 26.5t35.5 74.5q0 39 -28 62.5t-67.5 36t-79.5 27t-68 47
t-28 84.5q0 70 51.5 108t122.5 38q95 0 146 -61zM263 729l107 -144h-53l-86 115l-86 -115h-53l107 144h64z" />
    <glyph glyph-name="scaron.sc" horiz-adv-x="440" 
d="M378 479l-40 -38q-38 51 -109 51q-45 0 -79.5 -25t-34.5 -71q0 -39 28 -62t67.5 -35.5t79 -27t67.5 -46.5t28 -83q0 -74 -51 -114.5t-124 -40.5q-49 0 -94 19.5t-73 55.5l44 37q45 -63 124 -63q47 0 82.5 26.5t35.5 74.5q0 39 -28 62.5t-67.5 36t-79.5 27t-68 47
t-28 84.5q0 70 51.5 108t122.5 38q95 0 146 -61zM369 729l-107 -144h-64l-107 144h53l86 -115l86 115h53z" />
    <glyph glyph-name="scedilla.sc" horiz-adv-x="440" 
d="M378 479l-40 -38q-38 51 -109 51q-45 0 -79.5 -25t-34.5 -71q0 -39 28 -62t67.5 -35.5t79 -27t67.5 -46.5t28 -83q0 -69 -44.5 -108.5t-111.5 -45.5l-42 -66q15 5 40 5q33 0 58.5 -18.5t25.5 -52.5q0 -45 -35 -65t-81 -20q-50 0 -93 20l13 31q33 -16 76 -16q26 0 49 12
t23 37q0 43 -60 43q-28 0 -51 -10l-15 13l56 87q-98 7 -150 74l44 37q45 -63 124 -63q47 0 82.5 26.5t35.5 74.5q0 39 -28 62.5t-67.5 36t-79.5 27t-68 47t-28 84.5q0 70 51.5 108t122.5 38q95 0 146 -61z" />
    <glyph glyph-name="scommaaccent.sc" horiz-adv-x="440" 
d="M378 479l-40 -38q-38 51 -109 51q-45 0 -79.5 -25t-34.5 -71q0 -39 28 -62t67.5 -35.5t79 -27t67.5 -46.5t28 -83q0 -74 -51 -114.5t-124 -40.5q-49 0 -94 19.5t-73 55.5l44 37q45 -63 124 -63q47 0 82.5 26.5t35.5 74.5q0 39 -28 62.5t-67.5 36t-79.5 27t-68 47
t-28 84.5q0 70 51.5 108t122.5 38q95 0 146 -61zM252 -47l-71 -185h-45l59 185h57z" />
    <glyph glyph-name="tcaron.sc" horiz-adv-x="428" 
d="M241 478v-478h-56v478h-172v50h402v-50h-174zM352 729l-107 -144h-64l-107 144h53l86 -115l86 115h53z" />
    <glyph glyph-name="tcommaaccent.sc" horiz-adv-x="428" 
d="M241 478v-478h-56v478h-172v50h402v-50h-174zM255 -45l-71 -185h-45l59 185h57z" />
    <glyph glyph-name="tbar.sc" horiz-adv-x="428" 
d="M66 323v37h119v118h-172v50h402v-50h-174v-118h121v-37h-121v-323h-56v323h-119z" />
    <glyph glyph-name="thorn.sc" horiz-adv-x="480" 
d="M94 0v528h56v-104h104q181 0 181 -140q0 -71 -48.5 -108t-135.5 -37h-101v-139h-56zM150 375v-187h95q134 0 134 96q0 47 -32.5 69t-100.5 22h-96z" />
    <glyph glyph-name="ugrave.sc" horiz-adv-x="574" 
d="M287 -13q-101 0 -151 61t-50 150v330h55v-326q0 -70 35 -116.5t111 -46.5t111 46.5t35 116.5v326h56v-330q0 -89 -50.5 -150t-151.5 -61zM275 585l-126 144h72l101 -144h-47z" />
    <glyph glyph-name="uacute.sc" horiz-adv-x="574" 
d="M287 -13q-101 0 -151 61t-50 150v330h55v-326q0 -70 35 -116.5t111 -46.5t111 46.5t35 116.5v326h56v-330q0 -89 -50.5 -150t-151.5 -61zM426 729l-126 -144h-47l101 144h72z" />
    <glyph glyph-name="ucircumflex.sc" horiz-adv-x="574" 
d="M287 -13q-101 0 -151 61t-50 150v330h55v-326q0 -70 35 -116.5t111 -46.5t111 46.5t35 116.5v326h56v-330q0 -89 -50.5 -150t-151.5 -61zM320 729l107 -144h-53l-86 115l-86 -115h-53l107 144h64z" />
    <glyph glyph-name="utilde.sc" horiz-adv-x="574" 
d="M287 -13q-101 0 -151 61t-50 150v330h55v-326q0 -70 35 -116.5t111 -46.5t111 46.5t35 116.5v326h56v-330q0 -89 -50.5 -150t-151.5 -61zM175 605h-35q15 94 82 94q23 0 71.5 -23t63.5 -23q35 0 46 49h35q-15 -93 -81 -93q-24 0 -72 23.5t-63 23.5q-36 0 -47 -51z" />
    <glyph glyph-name="udieresis.sc" horiz-adv-x="574" 
d="M287 -13q-101 0 -151 61t-50 150v330h55v-326q0 -70 35 -116.5t111 -46.5t111 46.5t35 116.5v326h56v-330q0 -89 -50.5 -150t-151.5 -61zM156 672q0 17 12.5 30t30.5 13t30 -13t12 -30q0 -18 -12 -31t-30 -13t-30.5 13t-12.5 31zM337 672q0 17 12 30t30 13t30.5 -13
t12.5 -30q0 -18 -12.5 -31t-30.5 -13t-30 13t-12 31z" />
    <glyph glyph-name="umacron.sc" horiz-adv-x="574" 
d="M287 -13q-101 0 -151 61t-50 150v330h55v-326q0 -70 35 -116.5t111 -46.5t111 46.5t35 116.5v326h56v-330q0 -89 -50.5 -150t-151.5 -61zM418 671v-44h-258v44h258z" />
    <glyph glyph-name="ubreve.sc" horiz-adv-x="574" 
d="M287 -13q-101 0 -151 61t-50 150v330h55v-326q0 -70 35 -116.5t111 -46.5t111 46.5t35 116.5v326h56v-330q0 -89 -50.5 -150t-151.5 -61zM393 726h36q-5 -61 -43.5 -95.5t-97.5 -34.5t-97 34.5t-43 95.5h37q7 -41 35.5 -63.5t67.5 -22.5q89 0 105 86z" />
    <glyph glyph-name="uring.sc" horiz-adv-x="574" 
d="M287 -13q-101 0 -151 61t-50 150v330h55v-326q0 -70 35 -116.5t111 -46.5t111 46.5t35 116.5v326h56v-330q0 -89 -50.5 -150t-151.5 -61zM383 671q0 -40 -28.5 -67.5t-67.5 -27.5t-67.5 27.5t-28.5 67.5t28.5 67.5t67.5 27.5t67.5 -27.5t28.5 -67.5zM352 671q0 27 -19 46
t-46 19t-46 -19t-19 -46t19 -46t46 -19t46 19t19 46z" />
    <glyph glyph-name="uhungarumlaut.sc" horiz-adv-x="574" 
d="M287 -13q-101 0 -151 61t-50 150v330h55v-326q0 -70 35 -116.5t111 -46.5t111 46.5t35 116.5v326h56v-330q0 -89 -50.5 -150t-151.5 -61zM178 585l101 144h72l-126 -144h-47zM332 585l101 144h72l-126 -144h-47z" />
    <glyph glyph-name="uogonek.sc" horiz-adv-x="574" 
d="M365 -156l16 -32q-35 -35 -88 -35q-36 0 -62 23.5t-26 60.5q0 59 75 126q-98 3 -146 63t-48 148v330h55v-326q0 -70 35 -116.5t111 -46.5t111 46.5t35 116.5v326h56v-330q0 -80 -41 -138t-122 -69q-39 -41 -55.5 -66t-16.5 -52q0 -24 15.5 -38.5t38.5 -14.5q35 0 57 24z
" />
    <glyph glyph-name="wacute.sc" horiz-adv-x="759" 
d="M85 528l128 -451h2l132 451h65l132 -451h2l128 451h60l-156 -528h-63l-135 452l-137 -452h-62l-155 528h59zM528 729l-126 -144h-47l101 144h72z" />
    <glyph glyph-name="wcircumflex.sc" horiz-adv-x="759" 
d="M85 528l128 -451h2l132 451h65l132 -451h2l128 451h60l-156 -528h-63l-135 452l-137 -452h-62l-155 528h59zM412 729l107 -144h-53l-86 115l-86 -115h-53l107 144h64z" />
    <glyph glyph-name="wdieresis.sc" horiz-adv-x="759" 
d="M85 528l128 -451h2l132 451h65l132 -451h2l128 451h60l-156 -528h-63l-135 452l-137 -452h-62l-155 528h59zM246 672q0 17 12.5 30t30.5 13t30 -13t12 -30q0 -18 -12 -31t-30 -13t-30.5 13t-12.5 31zM427 672q0 17 12 30t30 13t30.5 -13t12.5 -30q0 -18 -12.5 -31
t-30.5 -13t-30 13t-12 31z" />
    <glyph glyph-name="wgrave.sc" horiz-adv-x="759" 
d="M85 528l128 -451h2l132 451h65l132 -451h2l128 451h60l-156 -528h-63l-135 452l-137 -452h-62l-155 528h59zM357 585l-126 144h72l101 -144h-47z" />
    <glyph glyph-name="yacute.sc" horiz-adv-x="450" 
d="M252 229v-229h-55v229l-193 299h67l154 -253l155 253h66zM351 729l-126 -144h-47l101 144h72z" />
    <glyph glyph-name="ycircumflex.sc" horiz-adv-x="450" 
d="M252 229v-229h-55v229l-193 299h67l154 -253l155 253h66zM257 729l107 -144h-53l-86 115l-86 -115h-53l107 144h64z" />
    <glyph glyph-name="ydieresis.sc" horiz-adv-x="450" 
d="M252 229v-229h-55v229l-193 299h67l154 -253l155 253h66zM93 672q0 17 12.5 30t30.5 13t30 -13t12 -30q0 -18 -12 -31t-30 -13t-30.5 13t-12.5 31zM274 672q0 17 12 30t30 13t30.5 -13t12.5 -30q0 -18 -12.5 -31t-30.5 -13t-30 13t-12 31z" />
    <glyph glyph-name="ygrave.sc" horiz-adv-x="450" 
d="M252 229v-229h-55v229l-193 299h67l154 -253l155 253h66zM224 585l-126 144h72l101 -144h-47z" />
    <glyph glyph-name="zacute.sc" horiz-adv-x="484" 
d="M429 528v-50l-312 -428h317v-50h-384v50l311 428h-303v50h371zM350 729l-126 -144h-47l101 144h72z" />
    <glyph glyph-name="zcaron.sc" horiz-adv-x="484" 
d="M429 528v-50l-312 -428h317v-50h-384v50l311 428h-303v50h371zM386 729l-107 -144h-64l-107 144h53l86 -115l86 115h53z" />
    <glyph glyph-name="zdotaccent.sc" horiz-adv-x="484" 
d="M429 528v-50l-312 -428h317v-50h-384v50l311 428h-303v50h371zM283 672q0 -17 -12.5 -29t-28.5 -12t-28.5 12t-12.5 29t12.5 29t28.5 12t28.5 -12t12.5 -29z" />
    <glyph glyph-name="ij.sc" horiz-adv-x="630" 
d="M149 528v-528h-55v528h55zM259 92l52 16q8 -32 31 -50.5t56 -18.5q91 0 91 121v368h55v-372q0 -44 -11.5 -79.5t-45 -62.5t-86.5 -27q-55 0 -92 29t-50 76z" />
    <glyph glyph-name="germandbls.sc" horiz-adv-x="893" 
d="M385 479l-40 -38q-39 51 -109 51q-46 0 -80.5 -25t-34.5 -71q0 -39 28 -62t67.5 -35.5t79.5 -26.5t68 -46.5t28 -83.5q0 -74 -51 -114.5t-124 -40.5q-50 0 -95 19.5t-72 55.5l44 37q20 -29 53 -46t70 -17q48 0 83 26.5t35 74.5q0 39 -28 62.5t-67.5 36t-79 27t-67.5 47
t-28 84.5q0 70 51.5 108t122.5 38q95 0 146 -61zM831 479l-40 -38q-38 51 -109 51q-46 0 -80.5 -25t-34.5 -71q0 -39 28 -62t67.5 -35.5t79.5 -26.5t68 -46.5t28 -83.5q0 -74 -51 -114.5t-124 -40.5q-49 0 -94 19.5t-73 55.5l44 37q20 -29 53 -46t71 -17q47 0 82.5 26.5
t35.5 74.5q0 39 -28 62.5t-68 36t-79.5 27t-67.5 47t-28 84.5q0 70 51.5 108t122.5 38q95 0 146 -61z" />
    <glyph glyph-name="eng.sc" horiz-adv-x="612" 
d="M94 0v528h72l295 -433h2v433h56v-622q0 -146 -127 -146q-29 0 -47 6l8 45q20 -5 38 -5q44 0 58.5 27.5t14.5 79.5v78l-313 463h-2v-454h-55z" />
    <glyph glyph-name="grave.sc" 
d="M125 585l-126 144h72l101 -144h-47z" />
    <glyph glyph-name="acute.sc" 
d="M241 729l-126 -144h-47l101 144h72z" />
    <glyph glyph-name="circumflex.sc" 
d="M152 729l107 -144h-53l-86 115l-86 -115h-53l107 144h64z" />
    <glyph glyph-name="caron.sc" 
d="M259 729l-107 -144h-64l-107 144h53l86 -115l86 115h53z" />
    <glyph glyph-name="tilde.sc" 
d="M6 605h-35q15 94 82 94q23 0 71.5 -23t63.5 -23q35 0 46 49h35q-15 -93 -81 -93q-24 0 -72 23.5t-63 23.5q-36 0 -47 -51z" />
    <glyph glyph-name="dieresis.sc" 
d="M-13 672q0 17 12.5 30t30.5 13t30 -13t12 -30q0 -18 -12 -31t-30 -13t-30.5 13t-12.5 31zM168 672q0 17 12 30t30 13t30.5 -13t12.5 -30q0 -18 -12.5 -31t-30.5 -13t-30 13t-12 31z" />
    <glyph glyph-name="macron.sc" 
d="M249 671v-44h-258v44h258z" />
    <glyph glyph-name="breve.sc" 
d="M224 726h36q-5 -61 -43.5 -95.5t-97.5 -34.5t-97 34.5t-43 95.5h37q7 -41 35.5 -63.5t67.5 -22.5q89 0 105 86z" />
    <glyph glyph-name="ring.sc" 
d="M216 671q0 -40 -28.5 -67.5t-67.5 -27.5t-67.5 27.5t-28.5 67.5t28.5 67.5t67.5 27.5t67.5 -27.5t28.5 -67.5zM185 671q0 27 -19 46t-46 19t-46 -19t-19 -46t19 -46t46 -19t46 19t19 46z" />
    <glyph glyph-name="hungarumlaut.sc" 
d="M-30 585l101 144h72l-126 -144h-47zM124 585l101 144h72l-126 -144h-47z" />
    <glyph glyph-name="dotaccent.sc" 
d="M161 672q0 -17 -12.5 -29t-28.5 -12t-28.5 12t-12.5 29t12.5 29t28.5 12t28.5 -12t12.5 -29z" />
    <glyph glyph-name="exclamdown.sc" horiz-adv-x="275" 
d="M165 0h-55v376h55v-376zM182 489q0 -18 -12.5 -31.5t-31.5 -13.5q-20 0 -32 13t-12 32t12 32t32 13q19 0 31.5 -13.5t12.5 -31.5z" />
    <glyph glyph-name="questiondown.sc" horiz-adv-x="353" 
d="M172 -13q-65 0 -101 37.5t-36 95.5q0 42 15.5 70.5t50.5 57.5q32 27 43 50t11 56v26h54v-38q0 -34 -15 -59.5t-59 -69.5q-25 -25 -34.5 -43t-9.5 -47q0 -37 23 -62t61 -25q72 0 89 86l53 -10q-11 -59 -48.5 -92t-96.5 -33zM177 454q-18 0 -30.5 13t-12.5 31t12 31t31 13
t31 -13t12 -31t-12 -31t-31 -13z" />
    <glyph glyph-name="Euro.sc" horiz-adv-x="478" 
d="M401 465q-46 25 -98 25q-58 0 -101.5 -38.5t-58.5 -109.5h223l-14 -42h-214q-4 -23 -4 -45q0 -17 3 -35h194l-14 -43h-173q10 -60 51.5 -100.5t98.5 -40.5q61 0 109 34l22 -43q-58 -40 -132 -40q-85 0 -140.5 55.5t-67.5 134.5h-59l16 43h37q-2 12 -2 31q0 13 3 49h-53
l15 42h44q18 93 77.5 145.5t140.5 52.5q65 0 116 -29z" />
    <glyph glyph-name="cent.sc" horiz-adv-x="478" 
d="M304 -72h-44v61q-95 10 -151.5 77t-56.5 167q0 98 57.5 165.5t150.5 77.5v64h44v-62q100 -5 155 -73l-36 -33q-43 54 -119 59v-395q74 4 124 56l34 -31q-60 -70 -158 -74v-59zM108 233q0 -76 41.5 -130t110.5 -65v390q-70 -12 -111 -66t-41 -129z" />
    <glyph glyph-name="sterling.sc" horiz-adv-x="478" 
d="M324 295v-46h-120v-199h185v-50h-313v50h72v199h-66v46h66v74q0 79 41.5 125t115.5 46q63 0 107 -39l-36 -39q-31 31 -73 31q-48 0 -73.5 -33t-25.5 -96v-69h120z" />
    <glyph glyph-name="florin.sc" horiz-adv-x="478" 
d="M355 317v-42h-93l-39 -235q-22 -126 -119 -126q-43 0 -71 21l21 42q21 -16 50 -16q53 0 66 85l37 229h-83v42h87l20 113q9 53 38 81t74 28q47 0 80 -26l-29 -38q-21 18 -48 18q-51 0 -62 -69l-18 -107h89z" />
    <glyph glyph-name="yen.sc" horiz-adv-x="478" 
d="M91 166h123v74h-123v42h112l-171 246h63l146 -220l145 220h60l-169 -246h113v-42h-123v-74h123v-42h-123v-124h-53v124h-123v42z" />
    <glyph glyph-name="perthousand.sc" horiz-adv-x="970" 
d="M310 411q0 -55 -37.5 -92.5t-92.5 -37.5q-54 0 -91.5 37.5t-37.5 92.5q0 54 37.5 91.5t91.5 37.5q55 0 92.5 -37.5t37.5 -91.5zM264 411q0 35 -24.5 59.5t-59.5 24.5q-34 0 -58.5 -24.5t-24.5 -59.5q0 -36 24.5 -60t58.5 -24q35 0 59.5 24t24.5 60zM619 117
q0 -55 -37.5 -92.5t-92.5 -37.5q-54 0 -91.5 37.5t-37.5 92.5q0 54 37.5 91.5t91.5 37.5q55 0 92.5 -37.5t37.5 -91.5zM573 117q0 36 -24.5 60t-59.5 24q-34 0 -58.5 -24t-24.5 -60t24.5 -60t58.5 -24q35 0 59.5 24t24.5 60zM925 117q0 -55 -37.5 -92.5t-92.5 -37.5
t-92.5 37.5t-37.5 92.5q0 54 37.5 91.5t92.5 37.5t92.5 -37.5t37.5 -91.5zM879 117q0 35 -25 59.5t-59 24.5t-59 -24.5t-25 -59.5q0 -36 25 -60t59 -24t59 24t25 60zM522 534l-338 -564l-38 22l338 564z" />
    <glyph glyph-name="zero.onum" horiz-adv-x="684" 
d="M621 265q0 -122 -79 -200t-201 -78q-121 0 -199.5 78t-78.5 200q0 123 78.5 200t199.5 77q123 0 201.5 -77t78.5 -200zM560 265q0 97 -60 161.5t-159 64.5q-98 0 -157.5 -64t-59.5 -162q0 -97 59.5 -162t157.5 -65q99 0 159 64.5t60 162.5z" />
    <glyph glyph-name="one.onum" horiz-adv-x="375" 
d="M237 0h-56v456l-102 -86l-33 40l141 118h50v-528z" />
    <glyph glyph-name="two.onum" horiz-adv-x="514" 
d="M449 0h-393v53l99 70q130 92 178 141t48 111q0 54 -36 85.5t-96 31.5q-48 0 -86.5 -24.5t-59.5 -70.5l-44 27q28 56 77.5 87t113.5 31q86 0 137 -44t51 -122q0 -38 -14 -71.5t-47.5 -67t-67 -59.5t-92.5 -68l-81 -57v-3h313v-50z" />
    <glyph glyph-name="three.onum" horiz-adv-x="525" 
d="M182 -170q-64 0 -103 9l9 52q39 -11 93 -11q96 0 156.5 46t60.5 138q0 75 -49.5 117t-132.5 42q-50 0 -105 -15l-16 43q178 137 272 224v4h-294v49h363v-58q-81 -76 -246 -204v-4q28 5 51 5q89 0 151.5 -54.5t62.5 -144.5q0 -115 -77 -176.5t-196 -61.5z" />
    <glyph glyph-name="four.onum" horiz-adv-x="563" 
d="M535 9h-118v-179h-55v179h-316v52l285 481h61l-288 -483h258v266h55v-266h118v-50z" />
    <glyph glyph-name="five.onum" horiz-adv-x="519" 
d="M443 528v-52h-275l-26 -218q38 12 86 12q92 0 156.5 -54t64.5 -150q0 -115 -74.5 -175.5t-191.5 -60.5q-67 0 -111 10l9 48q42 -9 97 -9q100 0 157 47.5t57 137.5q0 78 -53 118.5t-128 40.5q-69 0 -127 -23l37 328h322z" />
    <glyph glyph-name="six.onum" horiz-adv-x="578" 
d="M515 209q0 -98 -64.5 -161.5t-162.5 -63.5q-100 0 -163 63.5t-63 166.5q0 123 86.5 251t224.5 247l45 -32q-83 -67 -156 -152t-105 -159l3 -2q52 61 143 61q92 0 152 -62t60 -157zM291 381q-73 0 -122 -49t-49 -125q0 -74 47 -123.5t121 -49.5t121.5 49t47.5 124
q0 76 -45.5 125t-120.5 49z" />
    <glyph glyph-name="seven.onum" horiz-adv-x="514" 
d="M464 475q-187 -382 -298 -658l-58 15q140 328 299 644h-355v52h412v-53z" />
    <glyph glyph-name="eight.onum" horiz-adv-x="571" 
d="M508 190q0 -93 -63.5 -149t-158.5 -56q-96 0 -159.5 56t-63.5 149q0 67 38.5 117.5t103.5 68.5v2q-55 20 -85.5 64t-30.5 99q0 81 56.5 131.5t140.5 50.5q83 0 139.5 -50.5t56.5 -131.5q0 -54 -31 -99t-85 -64v-2q67 -18 104.5 -69t37.5 -117zM286 675q-60 0 -100 -38.5
t-40 -97.5q0 -57 40 -97.5t100 -40.5q59 0 99.5 40.5t40.5 97.5q0 59 -40.5 97.5t-99.5 38.5zM449 193q0 69 -47 114.5t-116 45.5q-70 0 -117 -45.5t-47 -114.5q0 -70 45 -114.5t119 -44.5q72 0 117.5 45t45.5 114z" />
    <glyph glyph-name="nine.onum" horiz-adv-x="578" 
d="M516 313q0 -124 -89 -255t-222 -242l-45 32q81 64 153 147.5t107 158.5l-2 2q-56 -58 -144 -58q-91 0 -151 62t-60 157q0 99 64 162t163 63q100 0 163 -63t63 -166zM289 493q-74 0 -121 -49t-47 -125q0 -75 45.5 -124.5t119.5 -49.5q73 0 122.5 49.5t49.5 125.5
q0 74 -47.5 123.5t-121.5 49.5z" />
    <glyph glyph-name="napostrophe.sc" horiz-adv-x="642" 
d="M197 528l294 -448h2v448h56v-528h-71l-298 454v-454h-56v528h73zM82 528l-71 -185h-45l59 185h57z" />
    <glyph glyph-name="ordfeminine.sc" horiz-adv-x="357" 
d="M104 500l-29 -69h-48l129 290h48l126 -290h-48l-29 69h-149zM179 678l-63 -147h125z" />
    <glyph glyph-name="fi.sc" horiz-adv-x="711" 
d="M149 245v-245h-55v528h319v-50h-264v-184h247v-49h-247zM617 528v-528h-55v528h55z" />
    <glyph glyph-name="fl.sc" horiz-adv-x="880" 
d="M149 245v-245h-55v528h319v-50h-264v-184h247v-49h-247zM618 528v-478h243v-50h-299v528h56z" />
    </font>
</defs>
</svg>
